<svg width="240" height="240" viewBox="0 0 240 240" fill="none" xmlns="http://www.w3.org/2000/svg">
<path d="M14.9186 183.306L17.1284 151.734C17.2385 150.125 17.4925 148.525 17.8819 146.958L29.3206 100.907C30.8869 94.5911 36.5597 90.1545 43.0707 90.1545H152.318C157.669 90.1545 162.563 93.1687 164.967 97.9525L185.288 138.305C186.075 139.872 187.286 141.192 188.784 142.107L214.557 157.872C216.115 158.82 217.284 160.294 217.859 162.021L224.997 183.433C225.369 184.542 226.106 185.499 227.088 186.134L229.366 187.607C230.797 188.53 231.66 190.122 231.66 191.824V203.161C231.66 204.897 230.255 206.294 228.528 206.294H11.4726C9.73687 206.294 8.33984 204.888 8.33984 203.161V189.402C8.33984 187.387 9.8554 185.702 11.8536 185.474L12.9458 185.355C14.0041 185.245 14.8423 184.373 14.9186 183.306Z" fill="#9F8CC2"/>
<path d="M42.868 104.32H85.2105C88.0977 104.32 90.4345 106.656 90.4345 109.544V140.151C90.4345 143.038 88.0977 145.375 85.2105 145.375H35.1124C31.7088 145.375 29.2196 142.175 30.0493 138.873L37.8049 108.265C38.3976 105.937 40.4804 104.32 42.868 104.32Z" fill="white"/>
<path d="M156.517 104.32H106.757C103.87 104.32 101.533 106.656 101.533 109.544V140.151C101.533 143.038 103.87 145.375 106.757 145.375H170.487C174.288 145.375 176.812 141.447 175.237 137.984L161.267 107.376C160.42 105.513 158.566 104.32 156.517 104.32Z" fill="white"/>
<path d="M17.1292 151.725L14.623 184.255C14.623 184.255 21.0832 185.05 24.0974 176.016C25.6892 171.25 25.342 166.042 23.3269 161.445C22.0908 158.642 20.1519 155.273 17.1292 151.725Z" fill="#C0D56B"/>
<path d="M216.708 159.565L225.378 184.331C225.378 184.331 220.535 187.438 215.802 180.495C213.304 176.838 211.729 172.909 212.779 168.557C213.414 165.924 214.464 163.257 216.708 159.565Z" fill="#C0D56B"/>
<path d="M62.4675 221.636C74.7423 221.636 84.6929 211.685 84.6929 199.41C84.6929 187.135 74.7423 177.185 62.4675 177.185C50.1928 177.185 40.2422 187.135 40.2422 199.41C40.2422 211.685 50.1928 221.636 62.4675 221.636Z" fill="#4A4595"/>
<path d="M62.4685 214.015C70.5348 214.015 77.0738 207.476 77.0738 199.41C77.0738 191.344 70.5348 184.805 62.4685 184.805C54.4023 184.805 47.8633 191.344 47.8633 199.41C47.8633 207.476 54.4023 214.015 62.4685 214.015Z" fill="#6556A0"/>
<path d="M62.4688 204.516C65.2884 204.516 67.5742 202.23 67.5742 199.41C67.5742 196.59 65.2884 194.305 62.4688 194.305C59.6491 194.305 57.3633 196.59 57.3633 199.41C57.3633 202.23 59.6491 204.516 62.4688 204.516Z" fill="white"/>
<path d="M177.448 221.636C189.723 221.636 199.673 211.685 199.673 199.41C199.673 187.135 189.723 177.185 177.448 177.185C165.173 177.185 155.223 187.135 155.223 199.41C155.223 211.685 165.173 221.636 177.448 221.636Z" fill="#4A4595"/>
<path d="M177.447 214.015C185.513 214.015 192.052 207.476 192.052 199.41C192.052 191.344 185.513 184.805 177.447 184.805C169.381 184.805 162.842 191.344 162.842 199.41C162.842 207.476 169.381 214.015 177.447 214.015Z" fill="#6556A0"/>
<path d="M177.447 204.516C180.267 204.516 182.553 202.23 182.553 199.41C182.553 196.59 180.267 194.305 177.447 194.305C174.628 194.305 172.342 196.59 172.342 199.41C172.342 202.23 174.628 204.516 177.447 204.516Z" fill="white"/>
<path d="M118.221 155.764H102.6C102.016 155.764 101.533 155.29 101.533 154.697V152.699C101.533 152.115 102.007 151.632 102.6 151.632H118.221C118.805 151.632 119.288 152.106 119.288 152.699V154.697C119.288 155.281 118.805 155.764 118.221 155.764Z" fill="#6556A0"/>
<path d="M82.2385 19.3382C80.7314 23.3854 77.6156 32.7581 76.5827 43.5956C76.0493 49.1668 76.3795 54.7803 77.3955 60.2837C78.1829 64.5764 79.1481 71.299 78.9703 77.7168C78.9364 78.9869 80.3758 79.7404 81.3749 78.953C89.8163 72.3404 114.311 48.9466 84.7277 18.8302C83.9488 18.0428 82.6195 18.3053 82.2385 19.3382Z" fill="#C0D56B"/>
<path d="M26.4171 33.808C35.3241 32.792 74.517 31.124 69.3607 81.0951C69.2252 82.4159 67.5488 82.907 66.719 81.8741C63.8827 78.3349 58.5316 72.3489 52.1646 68.5304C48.0413 66.0581 44.1381 63.2386 40.7514 59.8265C35.5612 54.6025 28.593 46.3473 25.164 35.7808C24.8676 34.8664 25.4688 33.9096 26.4171 33.808Z" fill="#C0D56B"/>
<path d="M26.7969 35.1288C47.4813 41.9192 63.8561 60.3091 68.1995 81.6454C67.4291 79.0546 66.5824 76.4976 65.5325 74.0168C58.5643 56.4736 44.2131 42.2832 26.7969 35.1288Z" fill="#AECA3B"/>
<path d="M83.2541 20.2527C89.7397 35.9247 89.8921 54.0352 84.0076 69.9105C83.1525 72.1711 82.1957 74.3894 81.1035 76.5315C88.4527 58.7428 89.2316 38.5494 83.2541 20.2527Z" fill="#AECA3B"/>
</svg>
