<svg width="2481" height="1388" viewBox="0 0 2481 1388" fill="none" xmlns="http://www.w3.org/2000/svg">
<ellipse cx="1838.88" cy="693.716" rx="255.5" ry="691.945" transform="rotate(40.2037 1838.88 693.716)" fill="#D2BCFF" fill-opacity="0.75"/>
<circle cx="255.5" cy="412.5" r="255.5" fill="#AFE638" fill-opacity="0.75"/>
<g filter="url(#filter0_b_1_386)">
<path d="M212 191H2132V650H212V191Z" fill="white" fill-opacity="0.05"/>
<path d="M212 191H2132V650H212V191Z" fill="url(#paint0_linear_1_386)" fill-opacity="0.2"/>
</g>
<path d="M1689.48 286.479C1690.28 285.721 1691.54 286.629 1691.08 287.628L1685.8 298.931C1685.63 299.288 1685.69 299.71 1685.95 300.008L1693.64 308.906C1694.33 309.704 1693.48 310.887 1692.5 310.484L1681.63 305.987C1681.27 305.836 1680.85 305.913 1680.57 306.184L1671.5 314.751C1670.7 315.509 1669.44 314.601 1669.91 313.602L1675.18 302.299C1675.35 301.942 1675.29 301.52 1675.03 301.222L1667.34 292.324C1666.65 291.526 1667.51 290.343 1668.48 290.746L1679.35 295.243C1679.71 295.394 1680.13 295.317 1680.42 295.046L1689.48 286.479Z" fill="#5E1EE5"/>
<path d="M1730.98 452.365C1730.54 450.137 1733.57 449.02 1734.69 450.996L1786.47 542.647C1787.33 544.182 1789.62 543.925 1790.12 542.234L1820.19 441.353C1820.84 439.178 1824.04 439.594 1824.11 441.863L1827.36 547.079C1827.42 548.842 1829.56 549.676 1830.8 548.413L1904.3 473.061C1905.89 471.436 1908.52 473.29 1907.53 475.332L1861.52 570.009C1860.75 571.596 1862.26 573.331 1863.94 572.786L1964.04 540.224C1966.2 539.522 1967.67 542.389 1965.85 543.736L1881.1 606.186C1879.68 607.232 1880.22 609.471 1881.95 609.768L1985.72 627.456C1987.96 627.838 1987.93 631.061 1985.69 631.405L1881.63 647.321C1879.89 647.587 1879.32 649.817 1880.72 650.887L1964.39 714.774C1966.19 716.151 1964.67 718.993 1962.52 718.254L1862.99 683.99C1861.32 683.416 1859.78 685.125 1860.52 686.724L1904.91 782.173C1905.87 784.232 1903.2 786.04 1901.65 784.388L1829.44 707.793C1828.23 706.51 1826.07 707.307 1825.98 709.069L1820.93 814.214C1820.82 816.482 1817.62 816.843 1817.01 814.657L1788.67 713.278C1788.19 711.579 1785.91 711.282 1785.01 712.803L1731.68 803.557C1730.53 805.514 1727.52 804.345 1728 802.125L1750.02 699.187C1750.38 697.462 1748.5 696.139 1747 697.07L1657.6 752.642C1655.67 753.84 1653.56 751.409 1655.01 749.664L1722.34 668.749C1723.47 667.393 1722.42 665.346 1720.66 665.475L1615.67 673.134C1613.41 673.299 1612.66 670.162 1614.76 669.292L1711.98 628.936C1713.61 628.26 1713.63 625.959 1712.01 625.255L1615.49 583.247C1613.41 582.341 1614.21 579.218 1616.47 579.421L1721.31 588.87C1723.07 589.028 1724.16 587 1723.05 585.625L1657.11 503.573C1655.69 501.804 1657.84 499.409 1659.75 500.64L1748.19 557.729C1749.67 558.686 1751.58 557.395 1751.24 555.664L1730.98 452.365Z" fill="#C4A8FF"/>
<defs>
<filter id="filter0_b_1_386" x="62" y="41" width="2220" height="759" filterUnits="userSpaceOnUse" color-interpolation-filters="sRGB">
<feFlood flood-opacity="0" result="BackgroundImageFix"/>
<feGaussianBlur in="BackgroundImageFix" stdDeviation="75"/>
<feComposite in2="SourceAlpha" operator="in" result="effect1_backgroundBlur_1_386"/>
<feBlend mode="normal" in="SourceGraphic" in2="effect1_backgroundBlur_1_386" result="shape"/>
</filter>
<linearGradient id="paint0_linear_1_386" x1="1172" y1="650" x2="1172" y2="191" gradientUnits="userSpaceOnUse">
<stop stop-color="#5E1EE5"/>
<stop offset="1" stop-color="#AFE638"/>
</linearGradient>
</defs>
</svg>
