<svg width="600" height="481" viewBox="0 0 600 481" fill="none" xmlns="http://www.w3.org/2000/svg">
<path d="M490.438 161.571H99.624V76.5337H490.438V161.571ZM100.239 160.957H489.834V77.1375H100.239V160.957Z" fill="#D7E39B"/>
<path d="M104.825 76.8354H99.9268V81.7264H104.825V76.8354Z" fill="#D7E39B"/>
<path d="M490.136 76.8357H485.237V81.7266H490.136V76.8357Z" fill="#D7E39B"/>
<path d="M68.7815 407.626C68.6 407.334 49.9735 377.929 32.8286 370.743C30.581 369.797 28.4946 368.519 26.6299 366.949L27.2246 366.255C29.0187 367.774 31.0245 369.002 33.1915 369.908C50.6085 377.214 69.3761 406.851 69.5677 407.153L68.7815 407.626Z" fill="#4A4596"/>
<path d="M34.5627 376.922C26.076 376.922 20.8448 374.537 20.5727 374.407C20.3912 374.326 20.2804 374.125 20.3106 373.934C20.3409 373.732 20.492 373.581 20.6936 373.551C29.1098 372.223 42.354 374.678 42.5354 375.785C42.5758 376.037 42.3943 376.278 42.1424 376.319C39.4008 376.741 36.8608 376.922 34.5627 376.922ZM22.6591 374.215C25.4813 375.141 31.6599 376.641 39.8846 375.695C36.4879 374.89 29.2812 373.581 22.6591 374.215Z" fill="#4A4596"/>
<path d="M48.7943 382.266C48.754 382.266 48.7036 382.256 48.6632 382.246C48.4919 382.196 48.3709 382.045 48.3407 381.864C48.2702 381.26 46.5365 366.919 48.4012 360.026C48.4617 359.824 48.6632 359.714 48.8548 359.683C49.0664 359.693 49.2478 359.834 49.2882 360.046C49.4394 360.77 53.0276 377.707 49.137 382.105C49.0463 382.216 48.9152 382.266 48.7943 382.266ZM48.8245 362.551C47.998 368.409 48.764 377.204 49.0967 380.475C50.9613 376.419 49.6006 366.939 48.8245 362.551Z" fill="#4A4596"/>
<path d="M43.4224 386.895C42.5455 386.895 41.7391 386.744 41.0941 386.352C38.3223 384.671 31.2063 383.917 31.1256 383.907C30.9039 383.886 30.7325 383.705 30.7124 383.474C30.7023 383.252 30.8535 383.051 31.0752 383.001C38.8867 381.32 50.6694 383.595 51.1633 383.695C51.3548 383.735 51.4959 383.886 51.5261 384.078C51.5564 384.269 51.4556 384.46 51.2842 384.551C51.0625 384.671 46.7385 386.895 43.4224 386.895ZM34.4115 383.444C36.77 383.846 39.8644 384.53 41.5678 385.567C43.372 386.654 47.2424 385.376 49.5909 384.349C46.7385 383.876 40.0761 382.961 34.4115 383.444Z" fill="#4A4596"/>
<path d="M43.8859 396.285C40.9226 396.285 39.0176 395.711 38.8563 395.661C38.685 395.61 38.554 395.449 38.5338 395.268C38.5136 395.087 38.6144 394.906 38.7757 394.825C43.5735 392.34 57.0394 391.203 57.6038 391.152C57.8256 391.122 58.007 391.263 58.0776 391.464C58.1481 391.666 58.0675 391.877 57.8961 391.998C52.4634 395.459 47.4137 396.285 43.8859 396.285ZM40.469 395.077C43.0292 395.5 48.9659 395.882 55.6484 392.249C52.0401 392.632 44.5411 393.557 40.469 395.077Z" fill="#4A4596"/>
<path d="M49.3482 405.262C48.8543 405.262 48.5721 405.221 48.5519 405.221C48.4108 405.201 48.2898 405.111 48.2193 404.99C48.1487 404.859 48.1487 404.718 48.2092 404.587C49.8219 401.045 60.9494 396.385 61.4232 396.194C61.6046 396.124 61.8062 396.164 61.9372 396.315C62.0682 396.456 62.0884 396.677 61.9977 396.838C57.6636 404.527 51.5152 405.262 49.3482 405.262ZM49.4086 404.366C51.2834 404.396 56.4138 403.812 60.4656 397.593C57.0689 399.113 51.1826 402.061 49.4086 404.366Z" fill="#4A4596"/>
<path d="M26.9222 367.04C26.9122 367.04 26.9021 367.04 26.9021 367.04C26.8315 367.04 19.776 366.577 18.7983 357.801C18.7782 357.64 18.8487 357.479 18.9798 357.389C19.1108 357.288 19.2721 357.268 19.4232 357.328C19.7256 357.449 26.7811 360.337 27.3859 366.537C27.396 366.667 27.3556 366.798 27.2649 366.899C27.1742 366.989 27.0533 367.04 26.9222 367.04ZM19.8163 358.526C20.8142 364.484 24.8862 365.782 26.388 366.064C25.6623 361.877 21.5197 359.391 19.8163 358.526Z" fill="#4A4596"/>
<path d="M526.392 369.485C526.18 369.485 525.999 369.345 525.948 369.133C525.888 368.861 519.79 342.082 528.488 326.775C528.599 326.584 528.821 326.504 529.022 326.564C529.224 326.625 529.365 326.826 529.335 327.047C529.315 327.299 526.845 352.478 526.845 369.022C526.845 369.254 526.674 369.445 526.442 369.475C526.422 369.485 526.402 369.485 526.392 369.485ZM528.196 329.342C523.096 340.573 524.749 356.624 525.988 364.383C526.281 351.341 527.652 335.309 528.196 329.342Z" fill="#4A4596"/>
<path d="M526.553 364.413C526.442 364.413 526.341 364.373 526.25 364.302C526.089 364.162 526.049 363.94 526.139 363.749C526.401 363.246 532.56 351.441 538.587 349.7C538.759 349.65 538.94 349.7 539.061 349.841C539.182 349.972 539.202 350.163 539.132 350.324C539.001 350.626 535.785 357.811 526.815 364.333C526.744 364.383 526.653 364.413 526.553 364.413ZM537.771 351.008C533.85 352.971 529.879 359.1 528.034 362.26C533.679 357.711 536.642 353.041 537.771 351.008Z" fill="#4A4596"/>
<path d="M521.311 366.426C521.261 366.426 521.2 366.416 521.16 366.396C521.019 366.346 520.918 366.235 520.878 366.084C520.656 365.269 515.425 346.037 521.15 340.482C521.291 340.351 521.483 340.311 521.664 340.392C521.835 340.472 521.946 340.643 521.926 340.834C521.916 341.026 520.837 360.217 524.547 363.608C524.647 363.699 524.708 363.84 524.698 363.971C524.688 364.111 524.617 364.232 524.506 364.313L521.583 366.336C521.493 366.406 521.402 366.426 521.311 366.426ZM520.938 342.213C517.461 347.869 520.787 362.079 521.583 365.229L523.539 363.88C520.505 360.056 520.767 346.661 520.938 342.213Z" fill="#4A4596"/>
<path d="M519.669 371.941L519.397 371.478C519.155 371.075 513.561 361.515 514.972 356.574L515.053 356.272L515.385 356.212C515.788 356.181 515.879 356.383 516.454 357.54C517.754 360.136 521.211 367.02 525.696 365.762L527.763 365.178L519.669 371.941ZM515.667 357.993C515.436 362.169 518.913 368.741 519.921 370.542L524.366 366.829C520.022 366.617 516.927 360.499 515.667 357.993Z" fill="#4A4596"/>
<path d="M512.906 382.296C512.835 382.296 512.775 382.286 512.714 382.256C512.583 382.196 512.482 382.065 512.462 381.914C512.361 381.32 510.073 367.302 510.859 363.055C510.89 362.874 511.041 362.723 511.222 362.692C511.404 362.652 511.595 362.733 511.696 362.894C511.948 363.286 517.734 372.514 516.635 380.042C516.615 380.183 516.534 380.304 516.413 380.374L513.147 382.236C513.067 382.276 512.986 382.296 512.906 382.296ZM511.615 364.584C511.434 369.113 512.855 378.563 513.248 381.119L515.748 379.69C516.464 374.074 513.127 367.291 511.615 364.584Z" fill="#4A4596"/>
<path d="M34.5518 321.512C34.5518 321.512 62.6427 314.679 93.566 355.688L88.2845 368.086L96.3882 359.12C96.3882 359.12 133.742 394.101 98.1319 415.104L34.5921 322.186" fill="#D7E39B"/>
<path d="M34.5522 321.512C36.9309 320.606 43.3715 320.979 62.5423 349.016C72.5813 363.689 85.8054 385.506 98.1323 415.114C84.1927 423.889 68.5093 422.963 60.7382 414.701C54.2572 407.817 55.1845 399.646 55.1845 399.646C55.6985 395.087 58.0067 391.847 59.2666 390.317C60.0225 389.451 61.8066 387.177 62.25 383.735C62.6028 381.008 61.9376 378.834 61.5243 377.758C59.9923 377.073 57.6337 376.027 54.7309 374.789C48.2701 372.031 47.3226 371.82 45.5789 370.492C43.8453 369.173 40.3074 366.476 39.743 362.088C39.2491 358.244 41.3154 355.215 42.2225 353.877C45.9216 348.442 52.0296 347.154 53.6927 346.862C52.0196 347.325 47.5847 348.301 42.4644 346.51C41.6883 346.238 37.6566 344.759 34.2195 340.713C32.5363 338.731 29.6637 335.349 29.8048 330.68C29.9459 327.168 31.7602 322.579 34.5522 321.512Z" fill="#C1D66B"/>
<path d="M93.3047 338.349C94.1312 338.429 95.3508 337.372 96.0564 336.436C97.034 335.128 97.2356 333.749 97.407 331.364C97.7598 326.393 97.9412 323.897 97.3062 323.706C96.2882 323.394 94.0304 327.238 93.0527 330.439C92.5286 332.159 92.4782 333.367 92.4278 334.575C92.3976 335.279 92.3774 335.943 92.3976 336.517C87.5998 326.051 87.5696 315.102 87.6905 311.801C88.9001 311.911 90.0592 311.75 90.8151 311.006C93.0426 308.792 90.5531 302.593 87.5494 298.899C84.4249 295.045 78.7704 291.472 76.3513 293.153C73.8819 294.874 75.8675 301.294 76.0389 301.848C76.3917 303.005 77.9338 307.987 82.8827 310.392C83.0642 310.482 84.6768 311.237 86.481 311.63C86.3702 314.397 86.3298 323.102 89.4443 332.371C88.8194 331.546 87.9728 330.71 87.1059 330.066C84.4652 328.124 80.6149 327.279 79.8489 328.406C79.3046 329.211 80.4335 330.821 80.9878 331.616C83.2859 334.897 87.0455 335.279 87.8317 335.34C88.9001 335.42 89.9685 335.501 90.3212 334.927C90.3414 334.897 90.3313 334.856 90.3515 334.826C94.353 344.93 102.356 355.135 118.322 358.546L118.573 357.359C105.249 354.481 97.6388 346.721 93.3047 338.349Z" fill="#C1D66B"/>
<path d="M541.924 397.029C539.515 399.817 535.926 401.588 532.288 403.4C529.435 404.808 527.863 405.271 527.157 406.962C526.361 408.874 527.238 410.937 528.085 412.859C529.718 416.573 531.3 416.955 533.225 420.155C533.89 421.303 535.906 424.755 535.866 429.323C535.856 430.551 535.735 435.643 531.965 439.568C529.798 441.832 527.43 442.648 524.194 443.765C520.223 445.123 516.776 445.536 513.157 445.787C507.765 446.14 503.874 446.391 501.072 446.331H501.022C500.901 446.331 500.79 446.331 500.679 446.321C498.673 446.25 497.232 445.989 496.194 445.465C488.614 441.621 489.703 419.693 498.22 392.521C501.143 396.556 502.272 399.455 508.329 400.139C506.878 392.984 502.483 389.109 503.985 378.714C506.928 375.342 509.892 371.991 512.845 368.62C513.893 372.233 514.095 375.03 519.558 380.173C519.568 380.183 519.578 380.193 519.598 380.213L519.588 380.143L517.491 370.592C517.209 369.314 516.756 368.086 516.151 366.929L515.647 365.983C517.572 363.598 522.471 358.264 530.262 356.825C531.733 356.553 533.88 356.161 536.098 356.282C536.219 356.282 536.35 356.292 536.471 356.292C538.628 356.463 540.815 357.117 542.538 358.848C544.544 360.851 545.643 364.061 545.038 367.231C544.927 367.815 544.081 371.8 540.21 373.752C537.237 375.252 534.415 374.577 533.679 374.376C535.332 375 538.104 376.278 540.674 378.885C542.256 380.495 544.957 383.222 545.34 387.419C545.824 392.551 542.498 396.385 541.924 397.029Z" fill="#D7E39B"/>
<path d="M501.959 446.643C501.656 446.643 501.354 446.643 501.072 446.633C500.911 446.633 500.78 446.633 500.659 446.623C498.552 446.542 497.131 446.271 496.072 445.737C488.412 441.853 489.168 420.437 497.947 392.43C497.977 392.32 498.078 392.239 498.189 392.219C498.3 392.199 498.421 392.249 498.481 392.34C498.875 392.883 499.237 393.407 499.58 393.91C501.737 397.04 503.188 399.133 507.956 399.777C507.472 397.593 506.696 395.671 505.95 393.819C504.337 389.814 502.674 385.668 503.692 378.663C503.703 378.603 503.723 378.553 503.763 378.502C505.235 376.822 506.706 375.141 508.178 373.471C509.659 371.78 511.141 370.099 512.623 368.409C512.693 368.328 512.804 368.288 512.915 368.308C513.026 368.328 513.106 368.419 513.147 368.519C513.268 368.952 513.389 369.365 513.5 369.777C514.286 372.676 514.961 375.192 519.094 379.277L517.199 370.643C516.927 369.395 516.483 368.197 515.888 367.06L515.384 366.114C515.324 366.003 515.344 365.873 515.415 365.782C518.247 362.28 523.105 357.822 530.211 356.513L530.312 356.493C531.834 356.222 533.91 355.839 536.118 355.96C536.168 355.95 536.238 355.96 536.309 355.97C536.369 355.97 536.43 355.98 536.48 355.98C539.151 356.191 541.197 357.057 542.76 358.627C544.957 360.821 545.945 364.132 545.34 367.282C545.199 368.056 544.272 372.042 540.351 374.014C538.728 374.829 537.156 375.03 535.886 374.99C537.76 375.946 539.434 377.174 540.895 378.653C542.528 380.314 545.259 383.081 545.642 387.379C546.106 392.35 543.082 396.174 542.145 397.231C539.706 400.049 536.188 401.8 532.459 403.651C531.925 403.913 531.471 404.134 531.048 404.336C529.062 405.272 527.973 405.795 527.439 407.083C526.683 408.905 527.58 410.947 528.367 412.739C529.284 414.822 530.191 415.838 531.148 416.925C531.884 417.761 532.65 418.616 533.487 420.005C534.162 421.152 536.208 424.644 536.178 429.334C536.158 431.719 535.603 436.237 532.197 439.78C529.979 442.094 527.6 442.909 524.315 444.047C520.434 445.375 517.058 445.828 513.187 446.09L512.975 446.1C508.218 446.412 504.65 446.643 501.959 446.643ZM501.031 446.029C503.844 446.09 507.654 445.838 512.925 445.496L513.137 445.486C516.957 445.224 520.283 444.791 524.093 443.483C527.308 442.376 529.626 441.571 531.743 439.367C535.009 435.976 535.533 431.628 535.553 429.334C535.593 424.815 533.608 421.434 532.953 420.317C532.146 418.978 531.4 418.143 530.685 417.328C529.697 416.211 528.76 415.154 527.802 412.99C526.966 411.078 526.018 408.915 526.875 406.852C527.51 405.342 528.739 404.758 530.786 403.792C531.199 403.591 531.652 403.38 532.146 403.138C535.855 401.286 539.323 399.566 541.691 396.838C542.588 395.832 545.471 392.179 545.038 387.449C544.675 383.363 542.034 380.696 540.462 379.096C538.537 377.134 536.218 375.644 533.578 374.648C533.426 374.588 533.346 374.427 533.396 374.266C533.446 374.115 533.608 374.024 533.769 374.064C534.535 374.276 537.267 374.88 540.079 373.461C543.737 371.619 544.604 367.885 544.735 367.161C545.3 364.252 544.352 361.072 542.326 359.049C540.875 357.59 538.95 356.785 536.45 356.584C536.4 356.584 536.339 356.584 536.269 356.584C536.208 356.584 536.148 356.574 536.097 356.574C533.95 356.453 531.914 356.825 530.423 357.097L530.322 357.117C523.508 358.375 518.791 362.612 516.009 366.014L516.412 366.788C517.037 367.976 517.501 369.234 517.783 370.522L519.88 380.072C519.88 380.082 519.89 380.153 519.9 380.163C519.92 380.294 519.86 380.425 519.739 380.485C519.618 380.545 519.477 380.525 519.386 380.425C514.487 375.805 513.752 373.088 512.905 369.958C512.844 369.727 512.774 369.485 512.713 369.244C511.353 370.794 510.002 372.343 508.641 373.883C507.19 375.534 505.739 377.194 504.287 378.845C503.33 385.638 504.882 389.502 506.525 393.598C507.331 395.6 508.158 397.664 508.651 400.079C508.672 400.169 508.641 400.27 508.581 400.34C508.51 400.411 508.42 400.441 508.319 400.441C502.947 399.837 501.324 397.503 499.086 394.262C498.854 393.92 498.602 393.568 498.35 393.195C489.974 420.196 489.138 441.531 496.355 445.194C497.312 445.677 498.703 445.939 500.709 446.009C500.82 446.029 500.921 446.029 501.031 446.029Z" fill="#C1D66B"/>
<path d="M501.304 446.321L501.082 446.331H501.032C500.911 446.331 500.8 446.331 500.689 446.321C499.288 421.434 509.67 397.231 519.558 380.173C519.568 380.163 519.568 380.153 519.578 380.133C527.409 366.648 534.929 357.631 536.098 356.272C536.219 356.272 536.35 356.282 536.471 356.282L536.702 356.493C536.33 356.926 498.693 400.491 501.304 446.321Z" fill="#C1D66B"/>
<path d="M547.527 260.587C544.131 259.339 539.424 264.18 537.428 267.863C536.944 268.749 535.271 272.069 535.815 276.286C536.047 278.077 536.35 280.412 538.234 281.831C538.446 281.992 538.678 282.123 538.91 282.244C537.922 286.752 536.128 290.617 533.578 293.726C532.197 295.407 531.078 296.293 529.365 297.52C530.302 296.484 531.159 295.216 531.854 294.159C533.094 292.297 534.001 290.939 534.243 288.936C534.747 284.89 532.348 279.929 529.526 279.738C527.419 279.587 525.706 282.143 524.406 284.065C523.468 285.464 520.575 289.751 521.956 294.592C522.097 295.095 523.246 299.131 525.696 299.483C526.038 299.533 526.371 299.493 526.704 299.412C525.403 300.348 523.861 301.506 521.876 303.106C519.185 305.269 515.506 308.228 511.766 312.143C511.444 312.485 511.091 312.847 510.718 313.25C511.04 312.485 511.303 311.76 511.484 311.167C512.754 306.94 511.796 303.377 511.413 302.16C510.587 299.533 507.956 293.636 504.368 293.757C500.256 293.897 498.099 301.797 497.897 302.572C497.695 303.357 496.113 309.778 499.842 315.393C500.891 316.963 502.463 319.328 504.68 319.389C505.023 319.399 505.356 319.338 505.678 319.238C504.237 321.18 502.755 323.434 501.354 326.041C500.538 327.57 499.832 329.08 499.207 330.549C499.429 326.956 498.361 324.249 497.968 323.364C496.778 320.677 493.896 316.259 492.011 316.782C489.743 317.406 489.491 325.014 491.164 330.921C491.89 333.498 493.855 338.801 495.891 338.65C496.123 338.63 496.345 338.54 496.557 338.399C495.549 342.303 495.186 345.423 495.065 347.104C494.601 353.514 495.559 358.365 497.141 366.396C498.099 371.276 498.814 373.42 499.439 375.312C500.014 377.033 500.498 378.522 501.032 381.733C502.171 388.646 503.894 399.082 498.411 408.522C497.806 409.558 497.111 410.545 496.375 411.491C497.04 410.021 497.968 407.586 497.816 404.396C497.665 401.326 496.456 396.013 494.299 395.781C491.85 395.52 488.13 401.809 488.584 407.697C488.846 411.138 490.569 414.862 492.293 415.748C492.253 415.778 492.222 415.818 492.182 415.848L492.958 416.784C495.609 414.58 497.796 412.004 499.459 409.136C505.164 399.314 503.32 388.183 502.221 381.541C501.677 378.23 501.173 376.701 500.578 374.93C499.963 373.068 499.268 370.965 498.32 366.154C498.099 365.027 497.887 363.97 497.695 362.964C498.401 363.216 498.986 362.662 500.79 361.555C506.384 358.103 508.148 358.898 509.73 356.513C510.738 354.973 511.544 352.327 510.325 350.485C508.843 348.241 505.275 348.593 504.57 348.664C501.163 349.006 498.24 351.471 496.96 354.47C496.778 354.903 496.627 355.356 496.496 355.819C496.143 352.931 496.032 350.264 496.254 347.184C496.486 344.034 497.534 335.712 502.413 326.614C504.096 323.474 505.91 320.858 507.624 318.684C508.339 321.099 516.1 321.854 519.084 321.945C522.874 322.065 524.295 321.301 525.162 320.516C526.462 319.348 527.55 317.205 526.905 315.534C525.807 312.686 520.273 312.847 519.043 312.887C516.07 312.978 512.905 313.904 510.647 315.112C511.383 314.306 512.058 313.602 512.633 312.988C515.506 309.979 518.358 307.534 520.737 305.581C520.737 305.642 520.727 305.702 520.737 305.752C520.858 306.698 522.148 307.242 524.738 308.288C530.01 310.432 532.882 311.599 535.614 310.221C537.71 309.164 539.696 306.628 539.222 304.515C538.537 301.425 532.792 300.238 528.8 300.771C527.853 300.902 526.885 301.133 525.968 301.455C527.218 300.519 528.256 299.785 529.163 299.141C531.421 297.551 532.781 296.584 534.495 294.501C537.136 291.291 538.99 287.316 540.039 282.697C541.802 283.16 543.728 282.787 545.048 282.204C549.886 280.08 550.592 273.488 550.763 271.848C551.116 268.708 550.975 261.855 547.527 260.587Z" fill="#C1D66B"/>
<path d="M71.6039 433.399C72.9455 433.399 74.033 432.313 74.033 430.974C74.033 429.634 72.9455 428.549 71.6039 428.549C70.2624 428.549 69.1748 429.634 69.1748 430.974C69.1748 432.313 70.2624 433.399 71.6039 433.399Z" fill="#4A4596"/>
<path d="M542.962 441.209C544.304 441.209 545.391 440.123 545.391 438.783C545.391 437.444 544.304 436.358 542.962 436.358C541.621 436.358 540.533 437.444 540.533 438.783C540.533 440.123 541.621 441.209 542.962 441.209Z" fill="#4A4596"/>
<path d="M78.1251 440.957C79.912 440.957 81.3606 439.511 81.3606 437.727C81.3606 435.942 79.912 434.496 78.1251 434.496C76.3382 434.496 74.8896 435.942 74.8896 437.727C74.8896 439.511 76.3382 440.957 78.1251 440.957Z" fill="#4A4596"/>
<path d="M78.307 427.019C79.231 427.019 79.9801 426.271 79.9801 425.348C79.9801 424.426 79.231 423.678 78.307 423.678C77.3829 423.678 76.6338 424.426 76.6338 425.348C76.6338 426.271 77.3829 427.019 78.307 427.019Z" fill="#4A4596"/>
<path d="M69.1751 439.397C70.0992 439.397 70.8483 438.649 70.8483 437.726C70.8483 436.804 70.0992 436.056 69.1751 436.056C68.251 436.056 67.502 436.804 67.502 437.726C67.502 438.649 68.251 439.397 69.1751 439.397Z" fill="#4A4596"/>
<path d="M552.577 431.698C553.501 431.698 554.251 430.95 554.251 430.028C554.251 429.105 553.501 428.357 552.577 428.357C551.653 428.357 550.904 429.105 550.904 430.028C550.904 430.95 551.653 431.698 552.577 431.698Z" fill="#4A4596"/>
<path d="M545.794 420.518C546.434 420.518 546.953 420 546.953 419.36C546.953 418.721 546.434 418.203 545.794 418.203C545.154 418.203 544.635 418.721 544.635 419.36C544.635 420 545.154 420.518 545.794 420.518Z" fill="#4A4596"/>
<path d="M542.962 432.644C543.886 432.644 544.635 431.896 544.635 430.974C544.635 430.051 543.886 429.303 542.962 429.303C542.038 429.303 541.289 430.051 541.289 430.974C541.289 431.896 542.038 432.644 542.962 432.644Z" fill="#4A4596"/>
<path d="M64.3268 430.481C65.1172 430.481 65.758 429.841 65.758 429.052C65.758 428.262 65.1172 427.623 64.3268 427.623C63.5363 427.623 62.8955 428.262 62.8955 429.052C62.8955 429.841 63.5363 430.481 64.3268 430.481Z" fill="#4A4596"/>
<path d="M477.668 198.958H112.395V416.12H477.668V198.958Z" fill="#55595E"/>
<path d="M499.207 446.341H90.8548C88.8793 446.341 87.2666 444.741 87.2666 442.758V419.693C87.2666 417.72 88.8692 416.11 90.8548 416.11H499.197C501.173 416.11 502.785 417.71 502.785 419.693V442.758C502.785 444.741 501.183 446.341 499.207 446.341Z" fill="#1C2027"/>
<path d="M489.834 198.958H103.757V228.977H489.834V198.958Z" fill="#4B4E53"/>
<path d="M107.853 223.922L107.853 416.117H125.784L125.784 223.922H107.853Z" fill="#4B4E53"/>
<path d="M241.026 220.028V412.223H258.957V220.028H241.026Z" fill="#4B4E53"/>
<path d="M342.189 223.925V416.12H360.121V223.925H342.189Z" fill="#4B4E53"/>
<path d="M408.578 223.922V416.117H426.509V223.922H408.578Z" fill="#4B4E53"/>
<path d="M174.257 223.924V416.119H192.188V223.924H174.257Z" fill="#4B4E53"/>
<path d="M490.418 198.958H99.634C96.3582 198.958 93.6973 196.301 93.6973 193.03V187.576H496.355V193.03C496.355 196.301 493.704 198.958 490.418 198.958Z" fill="#33B7BC"/>
<path d="M490.418 198.957H99.634C96.3582 198.957 93.6973 196.3 93.6973 193.03V158.592H496.355V193.03C496.355 196.3 493.704 198.957 490.418 198.957Z" fill="white"/>
<path d="M496.355 157.757H93.6973V163.966H496.355V157.757Z" fill="#AECB3C"/>
<path d="M496.355 187.565H93.6973V198.947H496.355V187.565Z" fill="#AECB3C"/>
<path d="M295.031 158.583H87.1764C79.6976 158.583 77.4096 148.459 84.1627 145.248L175.562 101.834L292.018 46.5143C293.923 45.6085 296.14 45.6085 298.045 46.5143L414.501 101.834L505.9 145.248C512.653 148.459 510.365 158.583 502.887 158.583H295.031Z" fill="#1C2027"/>
<path d="M295.031 158.582H93.6973L194.369 110.76L295.031 62.938L395.693 110.76L496.355 158.582H295.031Z" fill="white"/>
<path d="M295.031 47.2185C299.863 47.2185 303.78 43.3076 303.78 38.4833C303.78 33.6589 299.863 29.748 295.031 29.748C290.199 29.748 286.282 33.6589 286.282 38.4833C286.282 43.3076 290.199 47.2185 295.031 47.2185Z" fill="#1C2027"/>
<path d="M295.031 144.141C310.874 144.141 323.717 131.318 323.717 115.5C323.717 99.6819 310.874 86.8589 295.031 86.8589C279.189 86.8589 266.346 99.6819 266.346 115.5C266.346 131.318 279.189 144.141 295.031 144.141Z" fill="#AECB3C"/>
<path d="M295.031 139.119C308.096 139.119 318.687 128.545 318.687 115.5C318.687 102.456 308.096 91.8809 295.031 91.8809C281.966 91.8809 271.375 102.456 271.375 115.5C271.375 128.545 281.966 139.119 295.031 139.119Z" fill="white"/>
<path d="M342.455 316.128H247.599V416.12H342.455V316.128Z" fill="#8D8F93"/>
<path d="M293.781 416.12H266.104V335.028C266.104 331.626 268.865 328.859 272.282 328.859H293.791V416.12H293.781Z" fill="#1C2027"/>
<path d="M323.959 416.12H296.281V328.859H317.79C321.197 328.859 323.969 331.616 323.969 335.028V416.12H323.959Z" fill="#1C2027"/>
<path d="M342.455 311.156H247.599V316.128H342.455V311.156Z" fill="#1C2027"/>
<path d="M342.455 299.664H247.599V311.156H342.455V299.664Z" fill="#8D8F93"/>
<path d="M295.031 305.914H243.526C238.87 305.914 237.146 299.805 241.117 297.38L261.094 285.172L295.031 264.431L328.968 285.172L348.946 297.38C352.917 299.805 351.193 305.914 346.537 305.914H295.031Z" fill="#8D8F93"/>
<path d="M295.032 299.664H247.599L271.315 285.183L295.032 270.691L318.748 285.183L342.465 299.664H295.032Z" fill="#1C2027"/>
<path d="M289.739 376.761C290.919 376.761 291.876 375.806 291.876 374.628C291.876 373.45 290.919 372.494 289.739 372.494C288.559 372.494 287.603 373.45 287.603 374.628C287.603 375.806 288.559 376.761 289.739 376.761Z" fill="#AECB3C"/>
<path d="M300.313 376.761C301.493 376.761 302.449 375.806 302.449 374.628C302.449 373.45 301.493 372.494 300.313 372.494C299.132 372.494 298.176 373.45 298.176 374.628C298.176 375.806 299.132 376.761 300.313 376.761Z" fill="#AECB3C"/>
<path d="M129.096 198.958H93.708V206.777H129.096V198.958Z" fill="#AECB3C"/>
<path d="M123.159 215.099H99.6543V403.178H123.159V215.099Z" fill="#6657A1"/>
<path d="M93.708 206.767L99.6548 215.1H123.16L129.096 206.767H93.708Z" fill="#4A4596"/>
<path d="M125.397 410.736H97.4072V416.12H125.397V410.736Z" fill="#6657A1"/>
<path d="M97.4072 410.736L99.6549 403.178H123.16L125.397 410.736H97.4072Z" fill="#4A4596"/>
<path d="M107.859 220.796H99.6543V403.178H107.859V220.796Z" fill="#A08DC2"/>
<path d="M96.9332 202.862L94.746 200.226L93.6877 198.948L92.6293 200.226L90.4321 202.852L87.1966 206.737C87.1966 206.747 87.1865 206.747 87.1865 206.757C87.1865 209.222 88.5875 211.547 90.8655 212.513C95.5523 214.506 100.068 211.195 100.159 206.757V206.747L96.9332 202.862Z" fill="#AECB3C"/>
<path d="M132.342 202.862L130.165 200.236L129.107 198.958L128.048 200.236L125.851 202.862L122.616 206.747C122.616 206.757 122.605 206.757 122.605 206.767C122.605 209.233 124.006 211.557 126.284 212.523C130.971 214.516 135.487 211.205 135.578 206.767V206.757L132.342 202.862Z" fill="#AECB3C"/>
<path d="M195.679 198.958H160.291V206.777H195.679V198.958Z" fill="#AECB3C"/>
<path d="M189.743 215.1H166.238V403.178H189.743V215.1Z" fill="#6657A1"/>
<path d="M160.291 206.767L166.238 215.1H189.743L195.679 206.767H160.291Z" fill="#4A4596"/>
<path d="M191.98 410.736H163.99V416.12H191.98V410.736Z" fill="#6657A1"/>
<path d="M163.99 410.736L166.238 403.178H189.743L191.98 410.736H163.99Z" fill="#4A4596"/>
<path d="M174.443 220.796H166.238V403.178H174.443V220.796Z" fill="#A08DC2"/>
<path d="M163.517 202.862L161.34 200.236L160.281 198.958L159.223 200.236L157.026 202.862L153.79 206.747C153.78 206.757 153.78 206.757 153.78 206.767C153.78 209.232 155.181 211.557 157.459 212.523C162.146 214.516 166.662 211.205 166.752 206.767V206.757L163.517 202.862Z" fill="#AECB3C"/>
<path d="M198.925 202.862L196.748 200.236L195.69 198.958L194.631 200.236L192.434 202.862L189.199 206.747C189.199 206.757 189.188 206.757 189.188 206.767C189.188 209.232 190.59 211.557 192.867 212.523C197.554 214.516 202.07 211.205 202.161 206.767V206.757L198.925 202.862Z" fill="#AECB3C"/>
<path d="M496.385 198.958H460.997V206.777H496.385V198.958Z" fill="#AECB3C"/>
<path d="M490.438 215.1H466.934V403.178H490.438V215.1Z" fill="#6657A1"/>
<path d="M460.997 206.767L466.934 215.1H490.439L496.385 206.767H460.997Z" fill="#4A4596"/>
<path d="M492.686 410.736H464.696V416.12H492.686V410.736Z" fill="#6657A1"/>
<path d="M464.696 410.736L466.934 403.178H490.439L492.686 410.736H464.696Z" fill="#4A4596"/>
<path d="M475.138 220.796H466.934V403.178H475.138V220.796Z" fill="#A08DC2"/>
<path d="M464.212 202.862L462.035 200.236L460.977 198.958L459.918 200.236L457.721 202.862L454.486 206.747C454.486 206.757 454.476 206.757 454.476 206.767C454.476 209.232 455.877 211.557 458.155 212.523C462.841 214.516 467.357 211.205 467.448 206.767V206.757L464.212 202.862Z" fill="#AECB3C"/>
<path d="M499.631 202.862L497.454 200.236L496.396 198.958L495.337 200.236L493.14 202.862L489.905 206.747C489.895 206.757 489.895 206.757 489.895 206.767C489.895 209.232 491.296 211.557 493.573 212.523C498.26 214.516 502.776 211.205 502.867 206.767V206.757L499.631 202.862Z" fill="#AECB3C"/>
<path d="M429.821 198.958H394.433V206.777H429.821V198.958Z" fill="#AECB3C"/>
<path d="M423.885 215.1H400.38V403.178H423.885V215.1Z" fill="#6657A1"/>
<path d="M394.433 206.767L400.379 215.1H423.884L429.821 206.767H394.433Z" fill="#4A4596"/>
<path d="M426.122 410.736H398.132V416.12H426.122V410.736Z" fill="#6657A1"/>
<path d="M398.132 410.736L400.38 403.178H423.884L426.122 410.736H398.132Z" fill="#4A4596"/>
<path d="M408.584 220.796H400.38V403.178H408.584V220.796Z" fill="#A08DC2"/>
<path d="M397.658 202.862L395.481 200.236L394.423 198.958L393.365 200.236L391.167 202.862L387.932 206.747C387.922 206.757 387.922 206.757 387.922 206.767C387.922 209.232 389.323 211.557 391.601 212.523C396.288 214.516 400.803 211.205 400.894 206.767V206.757L397.658 202.862Z" fill="#AECB3C"/>
<path d="M433.067 202.862L430.89 200.236L429.831 198.958L428.773 200.236L426.576 202.862L423.34 206.747C423.34 206.757 423.33 206.757 423.33 206.767C423.33 209.232 424.731 211.557 427.009 212.523C431.696 214.516 436.211 211.205 436.302 206.767V206.757L433.067 202.862Z" fill="#AECB3C"/>
<path d="M363.268 198.958H327.88V206.777H363.268V198.958Z" fill="#AECB3C"/>
<path d="M357.321 215.1H333.816V403.178H357.321V215.1Z" fill="#6657A1"/>
<path d="M327.88 206.767L333.817 215.1H357.332L363.268 206.767H327.88Z" fill="#4A4596"/>
<path d="M359.569 410.736H331.579V416.12H359.569V410.736Z" fill="#6657A1"/>
<path d="M331.579 410.736L333.817 403.178H357.332L359.569 410.736H331.579Z" fill="#4A4596"/>
<path d="M342.021 220.796H333.816V403.178H342.021V220.796Z" fill="#A08DC2"/>
<path d="M331.095 202.862L328.918 200.236L327.86 198.958L326.801 200.236L324.604 202.862L321.368 206.747C321.358 206.757 321.358 206.757 321.358 206.767C321.358 209.232 322.759 211.557 325.037 212.523C329.724 214.516 334.24 211.205 334.33 206.767V206.757L331.095 202.862Z" fill="#AECB3C"/>
<path d="M366.514 202.862L364.337 200.236L363.278 198.958L362.22 200.236L360.023 202.862L356.787 206.747C356.777 206.757 356.777 206.757 356.777 206.767C356.777 209.232 358.178 211.557 360.456 212.523C365.143 214.516 369.659 211.205 369.749 206.767V206.757L366.514 202.862Z" fill="#AECB3C"/>
<path d="M262.263 198.958H226.875V206.777H262.263V198.958Z" fill="#AECB3C"/>
<path d="M256.317 215.1H232.812V403.178H256.317V215.1Z" fill="#6657A1"/>
<path d="M226.875 206.767L232.812 215.1H256.327L262.263 206.767H226.875Z" fill="#4A4596"/>
<path d="M258.564 410.736H230.574V416.12H258.564V410.736Z" fill="#6657A1"/>
<path d="M230.574 410.736L232.812 403.178H256.327L258.564 410.736H230.574Z" fill="#4A4596"/>
<path d="M241.017 220.795H232.812V403.178H241.017V220.795Z" fill="#A08DC2"/>
<path d="M230.101 202.862L227.924 200.236L226.865 198.958L225.807 200.236L223.61 202.862L220.374 206.747C220.374 206.757 220.364 206.757 220.364 206.767C220.364 209.232 221.765 211.557 224.043 212.523C228.73 214.516 233.246 211.205 233.336 206.767V206.757L230.101 202.862Z" fill="#AECB3C"/>
<path d="M265.509 202.862L263.332 200.236L262.274 198.958L261.215 200.236L259.018 202.862L255.783 206.747C255.783 206.757 255.772 206.757 255.772 206.767C255.772 209.232 257.173 211.557 259.451 212.523C264.138 214.516 268.654 211.205 268.745 206.767V206.757L265.509 202.862Z" fill="#AECB3C"/>
<path d="M153.478 372.484H135.909C134.589 372.484 133.521 371.417 133.521 370.099V240.56C133.521 239.242 134.589 238.175 135.909 238.175H153.478C154.798 238.175 155.866 239.242 155.866 240.56V370.099C155.866 371.417 154.798 372.484 153.478 372.484Z" fill="#8D8F93"/>
<path d="M220.061 372.484H202.493C201.173 372.484 200.104 371.417 200.104 370.099V240.56C200.104 239.242 201.173 238.175 202.493 238.175H220.061C221.382 238.175 222.45 239.242 222.45 240.56V370.099C222.45 371.417 221.382 372.484 220.061 372.484Z" fill="#8D8F93"/>
<path d="M387.65 372.484H370.082C368.762 372.484 367.693 371.417 367.693 370.099V240.56C367.693 239.242 368.762 238.175 370.082 238.175H387.65C388.971 238.175 390.039 239.242 390.039 240.56V370.099C390.039 371.417 388.971 372.484 387.65 372.484Z" fill="#8D8F93"/>
<path d="M454.203 372.484H436.635C435.315 372.484 434.246 371.417 434.246 370.099V240.56C434.246 239.242 435.315 238.175 436.635 238.175H454.203C455.523 238.175 456.592 239.242 456.592 240.56V370.099C456.592 371.417 455.523 372.484 454.203 372.484Z" fill="#8D8F93"/>
<path d="M354.902 424.885H282.19C281.515 424.885 280.971 424.342 280.971 423.668C280.971 422.993 281.515 422.45 282.19 422.45H354.902C355.578 422.45 356.122 422.993 356.122 423.668C356.122 424.342 355.578 424.885 354.902 424.885Z" fill="#AECB3C"/>
<path d="M373.872 436.066H167.357C166.682 436.066 166.138 435.523 166.138 434.849C166.138 434.174 166.682 433.631 167.357 433.631H373.872C374.547 433.631 375.091 434.174 375.091 434.849C375.091 435.523 374.547 436.066 373.872 436.066Z" fill="#AECB3C"/>
<path d="M280.215 106.07H289.992C290.062 106.07 290.123 106.1 290.153 106.161C292.27 109.864 296.695 117.472 297.703 119.173C298.7 120.854 299.759 119.958 300.132 119.294L306.26 108.586C306.33 108.465 306.24 108.304 306.099 108.304H301.422C301.351 108.304 301.291 108.345 301.261 108.405L297.723 114.816C297.652 114.936 297.481 114.946 297.41 114.826L296.211 113.065C296.171 113.004 296.171 112.934 296.201 112.863L300.071 106.161C300.101 106.1 300.162 106.07 300.232 106.07H309.848C309.989 106.07 310.08 106.211 310.009 106.342C308.034 110.136 303.811 117.965 301.613 120.975C299.376 124.054 297.32 122.655 296.261 121.226L288.843 108.405C288.813 108.345 288.752 108.314 288.682 108.314H284.186C284.045 108.314 283.954 108.465 284.025 108.596L294.981 127.546C295.052 127.667 295.223 127.667 295.304 127.546L297.229 124.356C297.279 124.275 297.38 124.245 297.471 124.275C297.773 124.386 298.469 124.587 299.204 124.426C299.386 124.386 299.577 124.597 299.487 124.758L295.354 131.934C295.284 132.055 295.102 132.055 295.032 131.934L280.034 106.352C279.983 106.231 280.064 106.07 280.215 106.07Z" fill="#1C2027"/>
<path opacity="0.32" d="M295.031 62.938L93.6973 158.582L120.861 158.683L295.031 76.5339L469.191 158.683L496.355 158.582L295.031 62.938Z" fill="#8D8F93"/>
</svg>
