<svg width="240" height="240" viewBox="0 0 240 240" fill="none" xmlns="http://www.w3.org/2000/svg">
<path d="M169.548 48.8619H59.9961V20.8199C59.9961 17.3739 62.7901 14.5798 66.2361 14.5798H163.3C166.746 14.5798 169.54 17.3739 169.54 20.8199V48.8619H169.548Z" fill="#6556A0"/>
<path d="M166.068 30.743H59.9961V20.8199C59.9961 17.3739 62.7901 14.5798 66.2361 14.5798H159.811C163.257 14.5798 166.051 17.3739 166.051 20.8199V30.743H166.068Z" fill="#9F8CC2"/>
<path d="M193.095 225.429H57.364C54.5022 225.429 52.1738 223.109 52.1738 220.238V58.4548C52.1738 55.593 54.4937 53.2646 57.364 53.2646H193.095C195.957 53.2646 198.285 55.5846 198.285 58.4548V220.238C198.285 223.109 195.966 225.429 193.095 225.429Z" fill="#C0D56B"/>
<path d="M182.647 216.115H46.9069C44.0452 216.115 41.7168 213.795 41.7168 210.925V49.1499C41.7168 46.2881 44.0367 43.9597 46.9069 43.9597H182.638C185.5 43.9597 187.828 46.2796 187.828 49.1499V210.934C187.828 213.795 185.509 216.115 182.647 216.115Z" fill="#D6E29A"/>
<path d="M168.135 62.3918H61.4198C59.7857 62.3918 58.4648 61.0709 58.4648 59.4368C58.4648 57.8028 59.7857 56.4819 61.4198 56.4819H168.135C169.769 56.4819 171.09 57.8028 171.09 59.4368C171.09 61.0709 169.769 62.3918 168.135 62.3918Z" fill="#AECA3B"/>
<path d="M168.135 79.2577H61.4198C59.7857 79.2577 58.4648 77.9369 58.4648 76.3028C58.4648 74.6687 59.7857 73.3479 61.4198 73.3479H168.135C169.769 73.3479 171.09 74.6687 171.09 76.3028C171.09 77.9369 169.769 79.2577 168.135 79.2577Z" fill="#AECA3B"/>
<path d="M107.564 99.1462H58.2616C57.508 99.1462 56.8984 97.8253 56.8984 96.1912C56.8984 94.5571 57.508 93.2363 58.2616 93.2363H107.564C108.317 93.2363 108.927 94.5571 108.927 96.1912C108.927 97.8253 108.317 99.1462 107.564 99.1462Z" fill="#AECA3B"/>
<path d="M107.564 119.026H58.2616C57.508 119.026 56.8984 117.705 56.8984 116.071C56.8984 114.437 57.508 113.116 58.2616 113.116H107.564C108.317 113.116 108.927 114.437 108.927 116.071C108.927 117.705 108.317 119.026 107.564 119.026Z" fill="#AECA3B"/>
<path d="M107.564 135.951H58.2616C57.508 135.951 56.8984 134.631 56.8984 132.996C56.8984 131.362 57.508 130.042 58.2616 130.042H107.564C108.317 130.042 108.927 131.362 108.927 132.996C108.927 134.631 108.317 135.951 107.564 135.951Z" fill="#AECA3B"/>
<path d="M107.564 155.586H58.2616C57.508 155.586 56.8984 154.265 56.8984 152.631C56.8984 150.997 57.508 149.676 58.2616 149.676H107.564C108.317 149.676 108.927 150.997 108.927 152.631C108.927 154.265 108.317 155.586 107.564 155.586Z" fill="#AECA3B"/>
<path d="M170.429 155.586H121.127C120.373 155.586 119.764 154.265 119.764 152.631C119.764 150.997 120.373 149.676 121.127 149.676H170.429C171.183 149.676 171.792 150.997 171.792 152.631C171.792 154.265 171.183 155.586 170.429 155.586Z" fill="#AECA3B"/>
<path d="M170.429 135.951H121.127C120.373 135.951 119.764 134.631 119.764 132.996C119.764 131.362 120.373 130.042 121.127 130.042H170.429C171.183 130.042 171.792 131.362 171.792 132.996C171.792 134.631 171.183 135.951 170.429 135.951Z" fill="#AECA3B"/>
<path d="M168.745 118.273H122.813C121.754 118.273 120.891 117.418 120.891 116.351V95.1415C120.891 94.0831 121.746 93.2195 122.813 93.2195H168.745C169.803 93.2195 170.667 94.0746 170.667 95.1415V116.351C170.659 117.409 169.803 118.273 168.745 118.273Z" fill="#AECA3B"/>
</svg>
