<svg width="294" height="294" viewBox="0 0 294 294" fill="none" xmlns="http://www.w3.org/2000/svg">
<path d="M254.11 147.186C241.612 147.186 231.438 137.011 231.438 124.513C231.438 112.015 241.612 101.841 254.11 101.841C266.608 101.841 276.783 112.015 276.783 124.513C276.783 137.011 266.608 147.186 254.11 147.186ZM254.11 104.776C243.23 104.776 234.373 113.633 234.373 124.513C234.373 135.393 243.23 144.251 254.11 144.251C264.99 144.251 273.848 135.393 273.848 124.513C273.848 113.633 264.99 104.776 254.11 104.776Z" fill="#C0D56B"/>
<path d="M254.111 147.146V183.478H217.778C217.778 163.409 234.041 147.146 254.111 147.146Z" fill="#D6E29A"/>
<path d="M290.433 183.467H254.111V147.135C274.17 147.145 290.433 163.408 290.433 183.467Z" fill="#C0D56B"/>
<path d="M199.295 155.587C180.471 155.587 165.151 140.268 165.151 121.443C165.151 102.618 180.471 87.2988 199.295 87.2988C218.12 87.2988 233.44 102.618 233.44 121.443C233.44 140.268 218.131 155.587 199.295 155.587ZM199.295 91.7172C182.908 91.7172 169.57 105.055 169.57 121.443C169.57 137.83 182.908 151.169 199.295 151.169C215.693 151.169 229.021 137.83 229.021 121.443C229.031 105.045 215.693 91.7172 199.295 91.7172Z" fill="#C0D56B"/>
<path d="M199.295 155.525V210.237H144.584C144.584 180.023 169.082 155.525 199.295 155.525Z" fill="#D6E29A"/>
<path d="M254.006 210.237H199.295V155.525C229.508 155.525 254.006 180.023 254.006 210.237Z" fill="#C0D56B"/>
<path d="M45.3359 153.979C30.9605 153.979 19.2715 142.29 19.2715 127.915C19.2715 113.54 30.9605 101.851 45.3359 101.851C59.7113 101.851 71.4003 113.54 71.4003 127.915C71.4003 142.29 59.7113 153.979 45.3359 153.979ZM45.3359 105.211C32.8171 105.211 22.6423 115.396 22.6423 127.905C22.6423 140.423 32.8275 150.598 45.3359 150.598C57.8547 150.598 68.0295 140.413 68.0295 127.905C68.0295 115.396 57.8547 105.211 45.3359 105.211Z" fill="#C0D56B"/>
<path d="M45.3357 153.928V195.695H3.56836C3.56836 172.628 22.2688 153.928 45.3357 153.928Z" fill="#D6E29A"/>
<path d="M87.1033 195.695H45.3359V153.928C68.4029 153.928 87.1033 172.628 87.1033 195.695Z" fill="#C0D56B"/>
<path d="M113.976 159.56C87.9014 159.56 66.6807 138.349 66.6807 112.264C66.6807 86.1791 87.8911 64.9688 113.976 64.9688C140.061 64.9688 161.272 86.1791 161.272 112.264C161.272 138.349 140.051 159.56 113.976 159.56ZM113.976 71.0985C91.2723 71.0985 72.8 89.5707 72.8 112.275C72.8 134.979 91.2723 153.451 113.976 153.451C136.68 153.451 155.152 134.979 155.152 112.275C155.152 89.5707 136.68 71.0985 113.976 71.0985Z" fill="#6556A0"/>
<path d="M113.976 159.467V235.233H38.21C38.21 193.403 72.1362 159.467 113.976 159.467Z" fill="#9F8CC2"/>
<path d="M189.131 235.222H113.364V159.456C155.204 159.446 189.131 193.382 189.131 235.222Z" fill="#6556A0"/>
</svg>
