<svg width="240" height="240" viewBox="0 0 240 240" fill="none" xmlns="http://www.w3.org/2000/svg">
<path d="M52.8398 135.681L67.6313 112.99H89.8144L79.1039 135.681H52.8398Z" fill="#D6E29A"/>
<path d="M57.4297 135.681L72.2212 112.99H94.4042L83.6937 135.681H57.4297Z" fill="#AECA3B"/>
<path d="M185.432 135.681L170.64 112.99H148.457L159.168 135.681H185.432Z" fill="#D6E29A"/>
<path d="M180.842 135.681L166.05 112.99H143.867L154.578 135.681H180.842Z" fill="#AECA3B"/>
<path d="M163.755 183.019H74.5146C69.4007 183.019 65.252 178.87 65.252 173.756V38.6172C65.252 33.5032 69.4007 29.3545 74.5146 29.3545H163.763C168.877 29.3545 173.026 33.5032 173.026 38.6172V173.756C173.017 178.878 168.869 183.019 163.755 183.019Z" fill="#9F8CC2"/>
<path d="M139.328 139.203L121.683 156.848C120.278 158.253 117.992 158.253 116.586 156.848L98.9416 139.203C96.6894 136.951 93.6329 135.681 90.4409 135.681H52.8398V200.062C52.8398 205.904 57.5813 210.646 63.4233 210.646H119.135H174.846C180.689 210.646 185.43 205.904 185.43 200.062V135.681H147.829C144.637 135.681 141.58 136.951 139.328 139.203Z" fill="#C0D56B"/>
<path d="M148.878 80.2994H93.5563C92.1762 80.2994 91.0586 79.1817 91.0586 77.8017C91.0586 76.4216 92.1762 75.304 93.5563 75.304H148.887C150.267 75.304 151.385 76.4216 151.385 77.8017C151.376 79.1817 150.258 80.2994 148.878 80.2994Z" fill="#4A4595"/>
<path d="M148.878 91.8565H93.5563C92.1762 91.8565 91.0586 90.7389 91.0586 89.3588C91.0586 87.9787 92.1762 86.8611 93.5563 86.8611H148.887C150.267 86.8611 151.385 87.9787 151.385 89.3588C151.385 90.7389 150.258 91.8565 148.878 91.8565Z" fill="#4A4595"/>
<path d="M148.878 103.422H93.5563C92.1762 103.422 91.0586 102.305 91.0586 100.924C91.0586 99.5444 92.1762 98.4268 93.5563 98.4268H148.887C150.267 98.4268 151.385 99.5444 151.385 100.924C151.385 102.305 150.258 103.422 148.878 103.422Z" fill="#4A4595"/>
<path d="M122.962 114.979H93.5563C92.1762 114.979 91.0586 113.862 91.0586 112.482C91.0586 111.102 92.1762 109.984 93.5563 109.984H122.962C124.342 109.984 125.459 111.102 125.459 112.482C125.459 113.862 124.342 114.979 122.962 114.979Z" fill="#4A4595"/>
<path d="M135.873 29.363V49.8442C135.873 50.801 137.448 51.1566 138.091 50.3522L142.604 44.6202C143.078 44.0275 144.171 44.0275 144.636 44.6202L149.149 50.3522C149.784 51.1651 151.367 50.801 151.367 49.8442V29.363" fill="#4A4595"/>
<path d="M206.581 99.6714C205.937 99.6714 205.302 99.4343 204.803 98.9517C203.787 97.9696 203.761 96.3524 204.743 95.3364L213.837 85.9128C214.819 84.8968 216.436 84.8714 217.452 85.8536C218.468 86.8357 218.494 88.4529 217.511 89.4689L208.418 98.8924C207.919 99.4089 207.25 99.6714 206.581 99.6714Z" fill="#6556A0"/>
<path d="M208.046 186.075C207.902 186.075 207.758 186.058 207.623 186.033C206.438 185.796 205.667 184.644 205.896 183.459L208.072 172.46C208.309 171.275 209.46 170.496 210.645 170.733C211.831 170.97 212.601 172.122 212.373 173.307L210.197 184.305C209.985 185.355 209.071 186.075 208.046 186.075Z" fill="#6556A0"/>
<path d="M226.596 171.148C225.546 171.148 224.589 170.454 224.293 169.395L220.991 157.601C220.635 156.331 221.381 155.01 222.651 154.655C223.929 154.299 225.241 155.044 225.597 156.314L228.899 168.108C229.255 169.378 228.51 170.699 227.24 171.055C227.028 171.123 226.808 171.148 226.596 171.148Z" fill="#6556A0"/>
<path d="M24.8832 160.692C24.3498 160.692 23.808 160.531 23.3423 160.2L12.1492 152.292C10.9384 151.437 10.6506 149.769 11.5057 148.559C12.3608 147.348 14.0288 147.06 15.2396 147.915L26.4327 155.823C27.6434 156.678 27.9313 158.346 27.0762 159.557C26.5512 160.302 25.7215 160.692 24.8832 160.692Z" fill="#6556A0"/>
<path d="M25.4841 139.736C24.5273 139.736 23.6637 139.067 23.452 138.094L21.2253 127.705C20.9882 126.587 21.6994 125.478 22.817 125.241C23.9346 125.004 25.0438 125.715 25.2809 126.833L27.5076 137.222C27.7447 138.339 27.0335 139.448 25.9159 139.685C25.7719 139.719 25.628 139.736 25.4841 139.736Z" fill="#6556A0"/>
<path d="M20.9216 75.3124C20.4221 75.3124 19.931 75.1261 19.55 74.7451C18.788 73.9831 18.788 72.7554 19.55 71.9934L26.5859 64.9575C27.3479 64.1955 28.5756 64.1955 29.3377 64.9575C30.0997 65.7195 30.0997 66.9472 29.3377 67.7092L22.3017 74.7451C21.9123 75.1177 21.4127 75.3124 20.9216 75.3124Z" fill="#6556A0"/>
<path d="M42.7149 44.5948C42.029 44.5948 41.3602 44.2815 40.9199 43.6888L34.0872 34.5024C33.3506 33.5118 33.5538 32.1063 34.5444 31.3696C35.535 30.633 36.9405 30.8362 37.6771 31.8269L44.5098 41.0133C45.2464 42.004 45.0432 43.4094 44.0526 44.1461C43.6462 44.4509 43.1805 44.5948 42.7149 44.5948Z" fill="#6556A0"/>
</svg>
