<svg width="240" height="240" viewBox="0 0 240 240" fill="none" xmlns="http://www.w3.org/2000/svg">
<path d="M52.8418 135.681L67.6333 112.99H89.8163L79.1058 135.681H52.8418Z" fill="#D6E29A"/>
<path d="M57.4307 135.681L72.2222 112.99H94.4052L83.6947 135.681H57.4307Z" fill="#AECA3B"/>
<path d="M185.432 135.681L170.64 112.99H148.457L159.168 135.681H185.432Z" fill="#D6E29A"/>
<path d="M180.843 135.681L166.051 112.99H143.868L154.579 135.681H180.843Z" fill="#AECA3B"/>
<path d="M163.757 183.018H74.5166C69.4026 183.018 65.2539 178.87 65.2539 173.756V38.6171C65.2539 33.5031 69.4026 29.3544 74.5166 29.3544H163.765C168.879 29.3544 173.028 33.5031 173.028 38.6171V173.756C173.019 178.878 168.871 183.018 163.757 183.018Z" fill="#9F8CC2"/>
<path d="M139.33 139.203L121.685 156.848C120.28 158.253 117.994 158.253 116.588 156.848L98.9435 139.203C96.6914 136.951 93.6348 135.681 90.4429 135.681H52.8418V200.062C52.8418 205.904 57.5832 210.646 63.4253 210.646H119.137H174.848C180.691 210.646 185.432 205.904 185.432 200.062V135.681H147.831C144.639 135.681 141.582 136.951 139.33 139.203Z" fill="#C0D56B"/>
<path d="M148.88 80.2991H93.5583C92.1782 80.2991 91.0605 79.1815 91.0605 77.8014C91.0605 76.4213 92.1782 75.3037 93.5583 75.3037H148.889C150.269 75.3037 151.387 76.4213 151.387 77.8014C151.378 79.1815 150.26 80.2991 148.88 80.2991Z" fill="#4A4595"/>
<path d="M148.88 91.8563H93.5583C92.1782 91.8563 91.0605 90.7386 91.0605 89.3586C91.0605 87.9785 92.1782 86.8608 93.5583 86.8608H148.889C150.269 86.8608 151.387 87.9785 151.387 89.3586C151.387 90.7386 150.26 91.8563 148.88 91.8563Z" fill="#4A4595"/>
<path d="M148.88 103.422H93.5583C92.1782 103.422 91.0605 102.304 91.0605 100.924C91.0605 99.5441 92.1782 98.4265 93.5583 98.4265H148.889C150.269 98.4265 151.387 99.5441 151.387 100.924C151.387 102.304 150.26 103.422 148.88 103.422Z" fill="#4A4595"/>
<path d="M122.963 114.979H93.5583C92.1782 114.979 91.0605 113.862 91.0605 112.481C91.0605 111.101 92.1782 109.984 93.5583 109.984H122.963C124.344 109.984 125.461 111.101 125.461 112.481C125.461 113.862 124.344 114.979 122.963 114.979Z" fill="#4A4595"/>
<path d="M135.876 29.3629V49.8441C135.876 50.8009 137.451 51.1565 138.094 50.3521L142.607 44.6201C143.081 44.0274 144.173 44.0274 144.639 44.6201L149.152 50.3521C149.787 51.1649 151.37 50.8009 151.37 49.8441V29.3629" fill="#4A4595"/>
<path d="M206.582 99.6711C205.938 99.6711 205.303 99.4341 204.804 98.9515C203.788 97.9693 203.762 96.3521 204.744 95.3361L213.838 85.9126C214.82 84.8966 216.437 84.8712 217.453 85.8533C218.469 86.8355 218.495 88.4526 217.512 89.4686L208.419 98.8922C207.919 99.4087 207.251 99.6711 206.582 99.6711Z" fill="#6556A0"/>
<path d="M208.046 186.075C207.902 186.075 207.758 186.058 207.623 186.033C206.438 185.796 205.667 184.644 205.896 183.459L208.072 172.46C208.309 171.275 209.46 170.496 210.645 170.733C211.831 170.97 212.601 172.122 212.373 173.307L210.197 184.305C209.985 185.355 209.071 186.075 208.046 186.075Z" fill="#6556A0"/>
<path d="M226.597 171.148C225.547 171.148 224.59 170.454 224.294 169.395L220.992 157.601C220.636 156.331 221.382 155.01 222.652 154.655C223.93 154.299 225.242 155.044 225.598 156.314L228.9 168.108C229.256 169.378 228.511 170.699 227.241 171.055C227.029 171.122 226.809 171.148 226.597 171.148Z" fill="#6556A0"/>
<path d="M24.8842 160.691C24.3508 160.691 23.8089 160.531 23.3433 160.2L12.1502 152.292C10.9394 151.437 10.6515 149.769 11.5067 148.558C12.3618 147.348 14.0298 147.06 15.2405 147.915L26.4337 155.823C27.6444 156.678 27.9323 158.346 27.0771 159.557C26.5522 160.302 25.7224 160.691 24.8842 160.691Z" fill="#6556A0"/>
<path d="M25.485 139.736C24.5283 139.736 23.6647 139.067 23.453 138.093L21.2262 127.705C20.9892 126.587 21.7004 125.478 22.818 125.241C23.9356 125.004 25.0448 125.715 25.2818 126.833L27.5086 137.221C27.7457 138.339 27.0345 139.448 25.9168 139.685C25.7729 139.719 25.629 139.736 25.485 139.736Z" fill="#6556A0"/>
<path d="M20.9216 75.3121C20.4221 75.3121 19.931 75.1259 19.55 74.7449C18.788 73.9829 18.788 72.7552 19.55 71.9932L26.5859 64.9573C27.3479 64.1952 28.5756 64.1952 29.3377 64.9573C30.0997 65.7193 30.0997 66.947 29.3377 67.709L22.3017 74.7449C21.9123 75.1174 21.4127 75.3121 20.9216 75.3121Z" fill="#6556A0"/>
<path d="M42.7149 44.5947C42.029 44.5947 41.3602 44.2814 40.9199 43.6887L34.0872 34.5022C33.3506 33.5116 33.5538 32.1061 34.5444 31.3695C35.535 30.6329 36.9405 30.8361 37.6771 31.8267L44.5098 41.0132C45.2464 42.0038 45.0432 43.4093 44.0526 44.1459C43.6462 44.4507 43.1805 44.5947 42.7149 44.5947Z" fill="#6556A0"/>
</svg>
