<svg width="733" height="389" viewBox="0 0 733 389" fill="none" xmlns="http://www.w3.org/2000/svg">
<path d="M36.9339 26.5851C66.1817 8.60251 109.743 0.895037 169.72 4.25501L169.82 1.68547C109.121 -1.6988 62.4775 7.97749 33.3083 25.9117C18.6803 34.9056 9.13608 46.2128 4.71251 59.3769C0.287618 72.5449 0.947113 87.6882 6.94448 104.421C18.9554 137.933 51.7646 176.101 101.417 214.058C151.04 251.994 215.147 287.931 285.632 317.311C356.116 346.69 429.784 368.181 497.31 379.069C564.855 389.96 623.141 389.741 664.835 378.516C706.538 367.289 729.475 345.669 731.475 316.636C732.473 302.15 724.516 285.087 716.151 271.507C714.08 268.145 711.993 265.01 710.026 262.197C712.038 265.134 714.212 268.486 716.366 272.129C724.008 285.05 731.527 301.829 730.498 316.774C728.436 346.69 702.581 366.72 661.18 377.865C619.686 389.036 561.9 389.214 495.167 378.453C428.415 367.69 355.628 346.453 286.003 317.432C216.379 288.411 153.014 252.897 103.923 215.369C54.8604 177.861 22.1457 139.94 10.1096 106.358C4.08337 89.5444 3.35849 74.1438 7.89581 60.6412C12.4345 47.1347 22.1991 35.6446 36.9339 26.5851Z" stroke="#E6D9FF" stroke-width="2"/>
</svg>
