<svg width="240" height="240" viewBox="0 0 240 240" fill="none" xmlns="http://www.w3.org/2000/svg">
<path d="M119.999 23.7295V226.188C64.093 226.188 18.7617 180.856 18.7617 124.95C18.7617 69.0608 64.093 23.7295 119.999 23.7295Z" fill="#6556A0"/>
<path d="M119.999 23.7295V226.188C175.905 226.188 221.237 180.856 221.237 124.95C221.237 69.0608 175.914 23.7295 119.999 23.7295Z" fill="#4A4595"/>
<path d="M119.999 192.591C157.352 192.591 187.632 162.311 187.632 124.959C187.632 87.6059 157.352 57.3257 119.999 57.3257C82.6465 57.3257 52.3662 87.6059 52.3662 124.959C52.3662 162.311 82.6465 192.591 119.999 192.591Z" fill="#FDFDFC"/>
<path d="M140.015 124.916C136.891 121.944 132.2 119.751 125.672 118.227V104.926C128.415 106.221 130.888 108.516 133.021 111.784L134.215 113.613L143.96 103.529L142.953 102.191C138.203 95.9089 132.395 92.0565 125.672 90.7187V80.2114H116.392V90.4393C113.006 90.8881 109.941 91.8702 107.265 93.3688C104.116 95.1384 101.592 97.526 99.7721 100.481C97.9433 103.47 97.0119 106.882 97.0119 110.607C97.0119 116.145 98.7561 120.649 102.194 123.985C105.25 126.965 109.881 129.217 115.952 130.682V145.685C111.88 144.568 108.442 142.044 105.47 138.04L104.234 136.363L94.7852 146.396L95.7758 147.717C98.4259 151.223 101.643 154.033 105.352 156.049C108.595 157.801 112.151 158.953 115.952 159.461V169.697H125.147V159.461C128.754 158.961 131.997 157.903 134.791 156.303C138.067 154.431 140.65 151.942 142.453 148.903C144.274 145.829 145.197 142.299 145.197 138.395C145.213 132.739 143.461 128.201 140.015 124.916ZM130.811 138.946C130.811 140.901 130.21 142.451 128.983 143.687C128.034 144.627 126.756 145.321 125.156 145.744V132.934C127.535 133.755 128.745 134.56 129.364 135.144C130.354 136.092 130.811 137.303 130.811 138.946ZM111.245 110.252C111.245 108.575 111.837 107.195 113.048 106.044C113.954 105.188 115.055 104.57 116.401 104.181V116.17C114.758 115.586 113.531 114.891 112.726 114.113C111.719 113.147 111.245 111.886 111.245 110.252Z" fill="#AECA3B"/>
</svg>
