<svg width="240" height="240" viewBox="0 0 240 240" fill="none" xmlns="http://www.w3.org/2000/svg">
<path d="M169.548 48.8619H59.9961V20.8199C59.9961 17.3739 62.7901 14.5798 66.2361 14.5798H163.3C166.746 14.5798 169.54 17.3739 169.54 20.8199V48.8619H169.548Z" fill="#6556A0"/>
<path d="M166.068 30.743H59.9961V20.8199C59.9961 17.3739 62.7901 14.5798 66.2361 14.5798H159.811C163.257 14.5798 166.051 17.3739 166.051 20.8199V30.743H166.068Z" fill="#9F8CC2"/>
<path d="M193.093 225.429H57.362C54.5002 225.429 52.1719 223.109 52.1719 220.238V58.4548C52.1719 55.593 54.4918 53.2646 57.362 53.2646H193.093C195.955 53.2646 198.284 55.5846 198.284 58.4548V220.238C198.284 223.109 195.964 225.429 193.093 225.429Z" fill="#C0D56B"/>
<path d="M182.646 216.115H46.906C44.0442 216.115 41.7158 213.795 41.7158 210.925V49.1499C41.7158 46.2881 44.0357 43.9597 46.906 43.9597H182.637C185.499 43.9597 187.827 46.2796 187.827 49.1499V210.934C187.827 213.795 185.508 216.115 182.646 216.115Z" fill="#D6E29A"/>
<path d="M168.133 62.3918H61.4178C59.7837 62.3918 58.4629 61.0709 58.4629 59.4368C58.4629 57.8028 59.7837 56.4819 61.4178 56.4819H168.133C169.767 56.4819 171.088 57.8028 171.088 59.4368C171.088 61.0709 169.767 62.3918 168.133 62.3918Z" fill="#AECA3B"/>
<path d="M168.133 79.2577H61.4178C59.7837 79.2577 58.4629 77.9369 58.4629 76.3028C58.4629 74.6687 59.7837 73.3479 61.4178 73.3479H168.133C169.767 73.3479 171.088 74.6687 171.088 76.3028C171.088 77.9369 169.767 79.2577 168.133 79.2577Z" fill="#AECA3B"/>
<path d="M107.562 99.1462H58.2596C57.5061 99.1462 56.8965 97.8253 56.8965 96.1912C56.8965 94.5571 57.5061 93.2363 58.2596 93.2363H107.562C108.315 93.2363 108.925 94.5571 108.925 96.1912C108.925 97.8253 108.315 99.1462 107.562 99.1462Z" fill="#AECA3B"/>
<path d="M107.562 119.026H58.2596C57.5061 119.026 56.8965 117.705 56.8965 116.071C56.8965 114.437 57.5061 113.116 58.2596 113.116H107.562C108.315 113.116 108.925 114.437 108.925 116.071C108.925 117.705 108.315 119.026 107.562 119.026Z" fill="#AECA3B"/>
<path d="M107.562 135.951H58.2596C57.5061 135.951 56.8965 134.631 56.8965 132.996C56.8965 131.362 57.5061 130.042 58.2596 130.042H107.562C108.315 130.042 108.925 131.362 108.925 132.996C108.925 134.631 108.315 135.951 107.562 135.951Z" fill="#AECA3B"/>
<path d="M107.562 155.586H58.2596C57.5061 155.586 56.8965 154.265 56.8965 152.631C56.8965 150.997 57.5061 149.676 58.2596 149.676H107.562C108.315 149.676 108.925 150.997 108.925 152.631C108.925 154.265 108.315 155.586 107.562 155.586Z" fill="#AECA3B"/>
<path d="M170.428 155.586H121.126C120.372 155.586 119.763 154.265 119.763 152.631C119.763 150.997 120.372 149.676 121.126 149.676H170.428C171.182 149.676 171.791 150.997 171.791 152.631C171.791 154.265 171.182 155.586 170.428 155.586Z" fill="#AECA3B"/>
<path d="M170.428 135.951H121.126C120.372 135.951 119.763 134.631 119.763 132.996C119.763 131.362 120.372 130.042 121.126 130.042H170.428C171.182 130.042 171.791 131.362 171.791 132.996C171.791 134.631 171.182 135.951 170.428 135.951Z" fill="#AECA3B"/>
<path d="M168.743 118.273H122.811C121.752 118.273 120.889 117.418 120.889 116.351V95.1415C120.889 94.0831 121.744 93.2195 122.811 93.2195H168.743C169.801 93.2195 170.665 94.0746 170.665 95.1415V116.351C170.657 117.409 169.801 118.273 168.743 118.273Z" fill="#AECA3B"/>
</svg>
