<svg width="240" height="240" viewBox="0 0 240 240" fill="none" xmlns="http://www.w3.org/2000/svg">
<path d="M124.808 118.874H115.182V140.278H124.808V118.874Z" fill="#AECA3B"/>
<path d="M197.758 133.369C197.758 176.313 162.943 211.128 119.999 211.128C77.0557 211.128 42.2402 176.313 42.2402 133.369H197.758Z" fill="#6556A0"/>
<path d="M197.759 133.369C197.759 176.313 162.944 211.128 120 211.128V133.369H197.759Z" fill="#4A4595"/>
<path d="M107.739 210.163C70.6203 204.279 42.248 172.139 42.248 133.369H61.637C62.0519 167.617 80.8736 197.014 107.739 210.163Z" fill="#9F8CC2"/>
<path d="M120 120.957L22.2676 41.7668C22.2676 41.7668 38.2021 123.09 120 120.957Z" fill="#D6E29A"/>
<path d="M22.2676 41.7668C22.2676 41.7668 102.88 47.9476 120 120.948L22.2676 41.7668Z" fill="#C0D56B"/>
<path d="M120 120.957L217.732 41.7754C217.732 41.7669 201.806 123.091 120 120.957Z" fill="#AECA3B"/>
<path d="M217.732 41.7668C217.732 41.7668 137.12 47.9476 120 120.948L217.732 41.7668Z" fill="#D6E29A"/>
<path d="M120.001 120.999L118.342 28.8804C118.342 28.8804 158.11 74.7366 120.001 120.999Z" fill="#AECA3B"/>
<path d="M118.341 28.8804C118.341 28.8804 85.5747 78.208 120.001 120.999L118.341 28.8804Z" fill="#D6E29A"/>
</svg>
