<svg width="240" height="240" viewBox="0 0 240 240" fill="none" xmlns="http://www.w3.org/2000/svg">
<path d="M124.809 118.874H115.183V140.278H124.809V118.874Z" fill="#AECA3B"/>
<path d="M197.759 133.369C197.759 176.313 162.944 211.128 120 211.128C77.0567 211.128 42.2412 176.313 42.2412 133.369H197.759Z" fill="#6556A0"/>
<path d="M197.759 133.369C197.759 176.313 162.944 211.128 120 211.128V133.369H197.759Z" fill="#4A4595"/>
<path d="M107.741 210.163C70.6223 204.278 42.25 172.139 42.25 133.369H61.639C62.0539 167.617 80.8756 197.014 107.741 210.163Z" fill="#9F8CC2"/>
<path d="M120 120.957L22.2676 41.7667C22.2676 41.7667 38.2021 123.09 120 120.957Z" fill="#D6E29A"/>
<path d="M22.2676 41.7667C22.2676 41.7667 102.88 47.9475 120 120.948L22.2676 41.7667Z" fill="#C0D56B"/>
<path d="M120 120.957L217.732 41.7754C217.732 41.7669 201.806 123.091 120 120.957Z" fill="#AECA3B"/>
<path d="M217.732 41.7667C217.732 41.7667 137.12 47.9475 120 120.948L217.732 41.7667Z" fill="#D6E29A"/>
<path d="M119.999 120.999L118.34 28.8802C118.34 28.8802 158.108 74.7365 119.999 120.999Z" fill="#AECA3B"/>
<path d="M118.34 28.8802C118.34 28.8802 85.5737 78.2078 120 120.999L118.34 28.8802Z" fill="#D6E29A"/>
</svg>
