<svg width="50" height="197" viewBox="0 0 50 197" fill="none" xmlns="http://www.w3.org/2000/svg">
<path d="M47.3685 0.878174H3.10316C1.88036 0.878174 0.879883 1.87831 0.879883 3.10071V27.3041C0.879883 28.5265 1.88036 29.5267 3.10316 29.5267H7.8832V194.505C7.8832 195.728 8.88367 196.728 10.1065 196.728H40.3875C41.6103 196.728 42.6107 195.728 42.6107 194.505V29.5267H47.3908C48.6136 29.5267 49.614 28.5265 49.614 27.3041V3.10071C49.5918 1.87831 48.5913 0.878174 47.3685 0.878174ZM38.1419 192.305H12.3297V29.5489H38.1642V192.305H38.1419ZM45.1453 25.0816H40.3652H10.1065H5.32643V5.32325H45.1675V25.0816H45.1453Z" fill="#1B2027"/>
</svg>
