<svg width="12" height="10" viewBox="0 0 12 10" fill="none" xmlns="http://www.w3.org/2000/svg">
<path d="M6.94978 9.66836C5.02833 9.66836 3.04441 9.10533 1.84156 7.6978C0.810537 6.49357 0.107557 4.46043 0.951119 2.83394C1.52912 1.70791 2.74761 0.925946 3.96608 0.879028C4.51284 0.83211 4.7784 1.3326 5.10645 1.94254C5.45012 2.61503 5.98126 3.61591 7.21536 4.74194C8.68379 6.08692 9.99599 6.55614 10.7771 6.83765C11.3863 7.0566 11.9018 7.24424 11.7612 7.77597C11.5581 8.49538 10.5427 9.13662 9.05869 9.46505C8.38697 9.59016 7.66837 9.66836 6.94978 9.66836ZM3.9817 1.5359C2.99754 1.58282 1.99776 2.23967 1.51349 3.14675C0.701176 4.71068 1.68534 6.54047 2.32582 7.29116C3.79424 9.01148 6.74671 9.29301 8.88686 8.82383C10.1834 8.54232 10.902 8.05748 11.0739 7.68214C10.9645 7.61958 10.7302 7.54141 10.5271 7.46321C9.69918 7.16607 8.30887 6.66557 6.74671 5.22676C5.43451 4.02253 4.87212 2.95906 4.51282 2.2553C4.26288 1.77048 4.13791 1.5359 3.9817 1.5359Z" fill="#1C2027"/>
</svg>
