<svg width="198" height="309" viewBox="0 0 198 309" fill="none" xmlns="http://www.w3.org/2000/svg">
<path d="M0.0639648 70.6572L35.8841 296.442H34.1501C32.7286 296.442 31.5726 297.599 31.5726 299.023V302.979C31.5726 304.402 32.588 305.622 33.9783 305.873C40.6643 307.046 59.6757 309.829 70.314 305.919C71.0638 305.638 71.5324 304.903 71.5324 304.105V299.069C71.5324 298.366 70.9701 297.803 70.2671 297.803H67.7208C67.7208 297.803 69.0486 274.344 76.7812 254.2C84.5139 234.057 81.8739 194.442 76.7812 179.601C71.6886 164.775 67.3771 148.729 75.6721 105.564L160.903 296.145L159.544 297.287C158.716 297.99 158.435 299.148 158.857 300.149L161.528 306.529C161.903 307.421 162.731 308.015 163.684 308.078C168.933 308.406 186.194 308.766 197.083 300.493C197.582 300.117 197.754 299.429 197.536 298.85L194.302 290.515L191.443 290.687C191.443 290.687 186.788 259.971 187.116 245.364C187.444 230.757 182.805 203.2 163.231 175.972C163.231 175.972 153.28 166.01 154.28 139.455C154.28 139.455 157.263 95.6332 146.984 67.0758C136.705 38.5185 113.929 0.780762 113.929 0.780762L1.3918 7.64642L0.0639648 70.6572Z" fill="#1C2027"/>
</svg>
