<svg width="64" height="64" viewBox="0 0 64 64" fill="none" xmlns="http://www.w3.org/2000/svg">
<circle cx="32" cy="32" r="32" fill="white"/>
<path fill-rule="evenodd" clip-rule="evenodd" d="M20.8665 17.811C21.0836 17.6224 21.3518 17.5024 21.637 17.4662C21.9223 17.4299 22.2119 17.4791 22.4693 17.6074L48.6485 30.6978C48.8906 30.8184 49.0942 31.0042 49.2365 31.2341C49.3788 31.4641 49.4542 31.7291 49.4542 31.9996C49.4542 32.27 49.3788 32.5351 49.2365 32.765C49.0942 32.995 48.8906 33.1807 48.6485 33.3014L22.4693 46.3918C22.212 46.5205 21.9222 46.5701 21.6367 46.5341C21.3512 46.4981 21.0828 46.3783 20.8654 46.1897C20.6481 46.0011 20.4915 45.7523 20.4156 45.4748C20.3397 45.1972 20.3478 44.9033 20.4389 44.6304L24.1651 33.4541H32C32.3857 33.4541 32.7557 33.3008 33.0284 33.0281C33.3012 32.7553 33.4544 32.3853 33.4544 31.9996C33.4544 31.6138 33.3012 31.2439 33.0284 30.9711C32.7557 30.6983 32.3857 30.5451 32 30.5451H24.1651L20.4375 19.3688C20.3468 19.096 20.3391 18.8024 20.4152 18.5251C20.4913 18.2478 20.6493 17.9994 20.8665 17.811Z" fill="#5E1EE5"/>
</svg>
