<svg width="271" height="182" viewBox="0 0 271 182" fill="none" xmlns="http://www.w3.org/2000/svg">
<path d="M192.226 181.385C188.523 181.385 184.837 180.775 181.306 179.492C170.918 175.755 165.247 167.388 162.873 162.962C153.75 174.957 139.8 180.228 128.552 175.817C122.397 173.409 118.555 168.576 116.321 164.651C107.901 171.125 97.0437 172.861 87.7489 169.171C79.0946 165.73 74.6425 158.723 72.8304 155.064C68.2845 158.583 45.4146 174.863 22.4197 165.855C15.64 163.196 3.7989 156.878 0.721456 144.398C-2.91836 129.603 7.78239 113.62 20.0609 107.974C26.1064 105.19 30.5586 105.816 34.8857 106.426C39.1191 107.02 43.1182 107.583 48.5858 104.987C55.5686 101.687 58.5836 96.1506 61.5048 90.8176C64.3479 85.6253 67.2848 80.2454 73.8146 77.4147C81.1567 74.2399 90.5452 75.4285 101.699 80.9335C104.48 63.871 113.618 51.125 123.194 51.1094C123.194 51.1094 123.194 51.1094 123.21 51.1094C126.131 51.1094 129.084 52.3292 132.005 54.7533C139.175 22.9273 162.639 -0.531644 186.899 0.0157316C201.911 0.359797 218.126 10.1969 226.359 23.9752C232.842 34.8132 233.138 45.8546 233.404 55.5978C233.67 65.0596 233.873 72.5352 239.715 76.5233C242.496 78.4156 245.651 77.3834 249.322 76.1948C253.306 74.8968 257.82 73.4267 262.241 76.1792C265.225 78.0246 268.959 82.169 269.896 91.3806C271.505 107.036 257.664 118.593 253.587 121.643C266.6 130.479 273.145 146.165 268.521 157.816C265.944 164.291 259.586 169.749 251.509 172.408C241.277 175.77 229.889 174.347 220.188 168.498C212.487 176.818 202.302 181.385 192.226 181.385ZM163.123 159.975L163.701 161.148C165.544 164.932 171.012 174.128 181.837 178.022C194.381 182.527 209.503 178.085 219.47 166.95L219.907 166.465L220.469 166.809C229.905 172.705 241.043 174.191 251.041 170.907C258.68 168.389 264.694 163.275 267.084 157.222C271.005 147.354 266.365 131.605 251.806 122.315L250.806 121.674L251.775 121.001C252.525 120.485 270.068 108.193 268.349 91.5057C267.475 82.9354 264.1 79.1507 261.413 77.4772C257.617 75.1157 253.649 76.4138 249.807 77.6493C246.089 78.8535 242.246 80.1047 238.84 77.79C232.326 73.3641 232.107 65.1378 231.842 55.6135C231.576 46.0579 231.279 35.2355 225.015 24.7415C217.048 11.4168 201.364 1.87681 186.868 1.54838C186.586 1.56402 186.321 1.56402 186.055 1.56402C162.451 1.56402 139.831 24.9604 133.254 56.3955L132.973 57.7404L131.958 56.8021C129.005 54.0808 126.069 52.6889 123.21 52.6889C123.21 52.6889 123.21 52.6889 123.194 52.6889C115.524 52.7046 105.87 63.0578 103.074 82.2316L102.917 83.3107L101.949 82.8103C90.7951 77.1019 81.5316 75.7726 74.4238 78.8535C68.3783 81.4653 65.6914 86.376 62.8639 91.5683C59.8333 97.1202 56.6777 102.876 49.2419 106.41C43.3526 109.194 38.9317 108.584 34.667 107.974C30.3867 107.38 26.3407 106.817 20.717 109.397C9.00084 114.793 -1.21561 129.994 2.23675 144.023C5.14235 155.83 16.4836 161.851 22.9821 164.401C47.2892 173.925 71.5807 154.094 72.6117 153.234L73.4084 152.577L73.8302 153.516C75.2205 156.612 79.4227 164.182 88.3269 167.716C97.3562 171.313 107.994 169.436 116.071 162.852L116.805 162.258L117.258 163.102C119.273 166.903 122.975 171.954 129.13 174.363C139.847 178.57 153.828 172.955 162.373 161.022L163.123 159.975Z" fill="#4A4596"/>
</svg>
