<svg width="467" height="56" viewBox="0 0 467 56" fill="none" xmlns="http://www.w3.org/2000/svg">
<path d="M464.247 26.0198H444.949V2.72766C444.949 1.50527 443.949 0.505127 442.726 0.505127H24.1059C22.8831 0.505127 21.8826 1.50527 21.8826 2.72766V26.0198H2.5846C1.3618 26.0198 0.361328 27.02 0.361328 28.2424V53.7571C0.361328 54.9795 1.3618 55.9796 2.5846 55.9796H464.247C465.47 55.9796 466.471 54.9795 466.471 53.7571V28.2424C466.471 27.02 465.492 26.0198 464.247 26.0198ZM26.3292 4.9502H440.525V26.0198H26.3292V4.9502ZM462.024 51.5346H4.78564V30.4649H24.0837H442.726H462.024V51.5346Z" fill="#1B2027"/>
</svg>
