<svg width="20" height="21" viewBox="0 0 20 21" fill="none" xmlns="http://www.w3.org/2000/svg">
<path d="M0.246044 0.146599L6.6196 2.36738C6.66647 2.38302 6.69774 2.41429 6.69774 2.46121C7.22887 5.37012 8.38486 11.36 8.65043 12.6893C8.916 14.0187 9.80642 13.6746 10.2126 13.3305L16.6486 7.71602C16.7267 7.65346 16.6955 7.52835 16.6018 7.49707L13.5556 6.43359C13.5087 6.41795 13.4619 6.43359 13.4306 6.46487L9.66582 9.84297C9.58771 9.90553 9.47835 9.87424 9.46273 9.7804L9.08783 8.35724C9.07221 8.31032 9.08783 8.2634 9.13469 8.23212L13.1807 4.72891C13.2119 4.69763 13.2587 4.69762 13.3056 4.69762L19.5699 6.88714C19.6636 6.91842 19.6792 7.02789 19.6167 7.10609C17.461 9.1392 12.9151 13.2992 10.8062 14.7693C8.63477 16.2707 7.61939 14.8945 7.26009 13.7059L5.33863 3.63416C5.32301 3.58724 5.29178 3.55597 5.26054 3.54033L2.32369 2.52376C2.22996 2.49248 2.13625 2.57069 2.15187 2.66453L4.97936 17.5531C4.99499 17.647 5.10434 17.6939 5.18245 17.6313L7.16637 15.9892C7.21323 15.9423 7.29132 15.9423 7.33818 15.9892C7.51002 16.13 7.9162 16.4271 8.43171 16.4897C8.55668 16.5053 8.6348 16.693 8.54107 16.7712L4.21388 20.5246C4.13577 20.5872 4.02646 20.5559 4.01084 20.4464L0.0585938 0.302978C0.0585938 0.193503 0.152315 0.115321 0.246044 0.146599Z" fill="#A08DC2"/>
</svg>
