<svg width="25" height="23" viewBox="0 0 25 23" fill="none" xmlns="http://www.w3.org/2000/svg">
<path d="M0.310925 0.822998H8.29247C8.33693 0.822998 8.40363 0.845221 8.42586 0.889671C10.16 3.91232 13.7617 10.1354 14.5843 11.5134C15.4069 12.8914 16.2518 12.1579 16.563 11.6245L21.5654 2.86773C21.6321 2.7566 21.5432 2.64548 21.432 2.64548H17.608C17.5635 2.64548 17.4968 2.6677 17.4746 2.73438L14.5843 7.95734C14.5399 8.04624 14.3843 8.06847 14.3176 7.97957L13.3393 6.53491C13.3171 6.49046 13.2948 6.42379 13.3393 6.37934L16.4964 0.911902C16.5186 0.867451 16.563 0.845228 16.6297 0.845228H24.4779C24.5891 0.845228 24.6558 0.956352 24.6113 1.06748C22.9883 4.17903 19.5423 10.5577 17.7636 13.0247C15.9406 15.5362 14.2508 14.4027 13.406 13.2248L7.3587 2.75661C7.33647 2.71216 7.29201 2.68994 7.22531 2.68994H3.5569C3.44574 2.68994 3.35681 2.82329 3.42351 2.91219L12.3611 18.381C12.4278 18.4699 12.5612 18.4922 12.6279 18.381L14.2064 15.7807C14.2509 15.714 14.3398 15.6918 14.4065 15.714C14.651 15.8029 15.2291 15.9807 15.8294 15.8473C15.985 15.8251 16.1406 15.9807 16.0517 16.114L12.6723 21.9815C12.6056 22.0927 12.4722 22.0927 12.4055 21.9815L0.177534 1.08971C0.110836 0.956356 0.177529 0.822998 0.310925 0.822998Z" fill="white"/>
</svg>
