<svg width="30" height="118" viewBox="0 0 30 118" fill="none" xmlns="http://www.w3.org/2000/svg">
<path d="M24.015 117.167H19.5685V114.944H24.015V117.167ZM15.122 117.167H10.6754V114.944H15.122V117.167ZM6.22886 117.167H1.78231V114.944H6.22886V117.167ZM2.87171 111.633H0.648438V107.188H2.87171V111.633ZM2.87171 102.743H0.648438V98.2976H2.87171V102.743ZM2.87171 93.8525H0.648438V89.4075H2.87171V93.8525ZM2.87171 84.9624H0.648438V80.5173H2.87171V84.9624ZM2.87171 76.0723H0.648438V71.6272H2.87171V76.0723ZM2.87171 67.1821H0.648438V62.737H2.87171V67.1821ZM2.87171 58.292H0.648438V53.8469H2.87171V58.292ZM2.87171 49.4018H0.648438V44.9567H2.87171V49.4018ZM2.87171 40.5117H0.648438V36.0666H2.87171V40.5117ZM2.87171 31.6215H0.648438V27.1765H2.87171V31.6215ZM2.87171 22.7314H0.648438V18.2863H2.87171V22.7314ZM2.87171 13.8412H0.648438V9.39617H2.87171V13.8412ZM2.87171 4.95112H0.648438V1.77289C0.648438 1.15058 1.13756 0.661621 1.76007 0.661621H3.02734V2.88416H2.87171V4.95112ZM29.6844 2.88416H25.2378V0.661621H29.6844V2.88416ZM20.7913 2.88416H16.3447V0.661621H20.7913V2.88416ZM11.8982 2.88416H7.45165V0.661621H11.8982V2.88416Z" fill="#1B2027"/>
</svg>
