<svg width="49" height="197" viewBox="0 0 49 197" fill="none" xmlns="http://www.w3.org/2000/svg">
<path d="M46.5128 0.878174H2.22523C1.00243 0.878174 0.00195312 1.87832 0.00195312 3.10071V27.3263C0.00195312 28.5487 1.00243 29.5489 2.22523 29.5489H7.00525V194.528C7.00525 195.75 8.00572 196.75 9.22852 196.75H39.5095C40.7323 196.75 41.7328 195.75 41.7328 194.528V29.5489H46.5128C47.7356 29.5489 48.7361 28.5487 48.7361 27.3263V3.10071C48.7361 1.87832 47.7356 0.878174 46.5128 0.878174ZM37.2863 192.305H11.4518V29.5489H37.2863V192.305ZM44.2896 25.1038H4.4485V5.32325H44.2896V25.1038Z" fill="#1B2027"/>
</svg>
