<svg width="50" height="197" viewBox="0 0 50 197" fill="none" xmlns="http://www.w3.org/2000/svg">
<path d="M47.466 0.878174H3.17835C1.95555 0.878174 0.955078 1.87831 0.955078 3.10071V27.3041C0.955078 28.5265 1.95555 29.5267 3.17835 29.5267H7.95838V194.505C7.95838 195.728 8.95886 196.728 10.1817 196.728H40.4627C41.6855 196.728 42.6859 195.728 42.6859 194.505V29.5267H47.466C48.6888 29.5267 49.6892 28.5265 49.6892 27.3041V3.10071C49.6892 1.87831 48.6888 0.878174 47.466 0.878174ZM38.2394 192.305H12.4049V29.5489H38.2394V192.305ZM45.2427 25.0816H40.4627H10.1817H5.40162V5.32325H45.2427V25.0816Z" fill="#1B2027"/>
</svg>
