<svg width="49" height="197" viewBox="0 0 49 197" fill="none" xmlns="http://www.w3.org/2000/svg">
<path d="M46.5636 0.878174H2.27601C1.05321 0.878174 0.0527344 1.87832 0.0527344 3.10071V27.3263C0.0527344 28.5487 1.05321 29.5489 2.27601 29.5489H7.05603V194.528C7.05603 195.75 8.05651 196.75 9.27931 196.75H39.5603C40.7831 196.75 41.7836 195.75 41.7836 194.528V29.5489H46.5636C47.7864 29.5489 48.7869 28.5487 48.7869 27.3263V3.10071C48.7869 1.87832 47.7864 0.878174 46.5636 0.878174ZM37.337 192.305H11.5026V29.5489H37.337V192.305ZM44.3403 25.1038H4.49928V5.32325H44.3403V25.1038Z" fill="#1B2027"/>
</svg>
