<svg width="49" height="197" viewBox="0 0 49 197" fill="none" xmlns="http://www.w3.org/2000/svg">
<path d="M46.588 0.878174H2.30042C1.07762 0.878174 0.0771484 1.87831 0.0771484 3.10071V27.3041C0.0771484 28.5265 1.07762 29.5267 2.30042 29.5267H7.08045V194.505C7.08045 195.728 8.08092 196.728 9.30372 196.728H39.5847C40.8075 196.728 41.808 195.728 41.808 194.505V29.5267H46.588C47.8108 29.5267 48.8113 28.5265 48.8113 27.3041V3.10071C48.8113 1.87831 47.8331 0.878174 46.588 0.878174ZM37.3837 192.305H11.5492V29.5489H37.3837V192.305ZM44.3648 25.0816H39.5847H9.30372H4.5237V5.32325H44.3648V25.0816Z" fill="#1B2027"/>
</svg>
