<svg width="94" height="75" viewBox="0 0 94 75" fill="none" xmlns="http://www.w3.org/2000/svg">
<path d="M64.5872 26.196V34.9973H53.9155V29.9299H40.3757V40.0425H28.2811V44.5542H16.1865V60.9121H28.2811H29.704H40.3757H41.7986H52.4704H53.8932H64.565H65.9878H78.0825V26.196H64.5872ZM27.9921 59.2007H17.9207V46.2878H27.9921V59.2007ZM40.0867 59.2007H30.0153V41.776H40.0867V59.2007ZM52.1813 59.2007H42.1099V31.6635H52.1813V59.2007ZM64.2982 59.2007H54.2268V36.7309H64.2982V59.2007ZM76.3928 59.2007H66.3214V27.9296H76.3928V59.2007Z" fill="#1B2027"/>
<path d="M20.9447 40.3758L19.3662 38.7978L30.7716 27.5518L44.7782 22.4177L57.2508 23.8624L73.2139 13.5276L74.4144 15.3945L57.8066 26.1738L45.045 24.6847L31.7721 29.5521L20.9447 40.3758Z" fill="#1B2027"/>
<path d="M79.9726 74.6474H14.3193C6.60458 74.6474 0.334961 68.3798 0.334961 60.6676V14.7056C0.334961 6.99337 6.60458 0.72583 14.3193 0.72583H79.9726C87.6874 0.72583 93.957 6.99337 93.957 14.7056V60.6676C93.957 68.3798 87.6874 74.6474 79.9726 74.6474ZM14.3193 2.94837C7.82738 2.94837 2.55823 8.21576 2.55823 14.7056V60.6676C2.55823 67.1574 7.82738 72.4248 14.3193 72.4248H79.9726C86.4646 72.4248 91.7337 67.1574 91.7337 60.6676V14.7056C91.7337 8.21576 86.4646 2.94837 79.9726 2.94837H14.3193Z" fill="#1B2027"/>
</svg>
