<svg width="191" height="180" viewBox="0 0 191 180" fill="none" xmlns="http://www.w3.org/2000/svg">
<path d="M95.5688 95.8108C95.5688 95.8108 143.714 154.802 169.552 133.486C169.552 133.486 175.395 136.051 177.91 144.027C178.941 147.295 179.16 151.659 178.597 156.835C178.597 156.835 177.707 171.536 149.729 179.512L95.5688 95.8108Z" fill="#AFE638"/>
<path d="M139.434 114.031C139.434 114.031 132.045 108.573 140.012 104.256C147.979 99.9396 156.727 110.809 156.727 110.809C156.727 110.809 149.635 104.694 141.887 107.619C136.107 109.824 139.434 114.031 139.434 114.031Z" fill="#AFE638"/>
<path d="M133.591 57.3693C133.591 57.3693 136.356 60.982 141.918 61.6075C143.667 61.8109 145.261 61.5919 147.557 61.2947C147.557 61.2947 152.165 60.1687 154.165 59.1991L158.664 57.0878L163.585 55.0547C163.585 55.0547 169.146 52.959 174.004 51.6766C176.644 50.9884 179.487 50.3629 181.94 50.1283C183.502 49.9875 185.033 49.8155 186.267 49.7999C188.392 49.7842 189.673 49.8937 190.094 49.9406C190.094 49.9406 186.189 47.9857 169.037 58.5892C165.131 61.0132 155.493 66.2211 150.962 67.2377C146.073 68.3481 139.949 70.694 135.763 63.8596C134.06 61.0914 133.591 57.3693 133.591 57.3693Z" fill="#AFE638"/>
<path d="M83.2904 51.3481C83.2904 51.3481 80.2754 57.9323 71.1368 57.0721C71.1368 57.0721 70.0902 57.4006 67.3252 61.7326C67.3252 61.7326 69.8246 59.2929 73.7768 58.7455C74.4017 58.6517 75.9483 58.0887 76.5419 57.8541C78.3227 57.1191 82.3219 53.7253 83.2904 51.3481Z" fill="#AFE638"/>
<path d="M60.139 1.74023C60.139 1.74023 51.9689 2.17814 48.3135 9.15327C48.3135 9.15327 54.2028 4.50839 58.3425 4.08613C58.3425 4.08613 54.359 8.10543 59.3423 11.0769C59.3423 11.0769 58.1238 7.07324 60.139 4.33636C60.139 4.33636 61.5762 7.40167 68.5434 6.74482C68.5434 6.74482 63.4507 6.41639 61.498 3.08522C61.498 3.08522 65.6221 3.97666 70.0118 3.27289C70.0118 3.28853 64.9348 1.95918 60.139 1.74023Z" fill="#AFE638"/>
<path d="M54.4995 33.2379C54.4995 33.2379 56.3741 29.3593 54.7182 26.4973C54.7182 26.4973 55.1556 30.3602 54.4995 33.2379Z" fill="#AFE638"/>
<path d="M1.12098 22.3529C1.12098 22.3529 -5.20573 -4.42158 25.3187 1.58392C24.2252 2.14693 -0.269339 0.00433654 1.12098 22.3529Z" fill="#AFE638"/>
</svg>
