<svg width="143" height="115" viewBox="0 0 143 115" fill="none" xmlns="http://www.w3.org/2000/svg">
<path d="M127.475 4.7566L128.075 6.89021L136.991 4.35652L69.3364 64.5206C69.3364 64.4984 69.3364 64.4761 69.3364 64.4539C69.3364 60.6534 66.246 57.564 62.4442 57.564C60.5544 57.564 58.8425 58.3197 57.6197 59.5643L0.592773 112.927L2.10458 114.55L55.5743 64.5206C55.5965 68.2767 58.6869 71.3438 62.4442 71.3438C64.0894 71.3438 65.6013 70.7215 66.7796 69.7436L66.9352 69.6102C67.0909 69.4768 67.2465 69.3657 67.3799 69.2101L138.369 6.06789L135.056 14.8025L137.146 15.5803L142.927 0.33374L127.475 4.7566ZM62.4887 69.1212C59.9097 69.1212 57.8198 67.0321 57.8198 64.4539C57.8198 61.8758 59.9097 59.7866 62.4887 59.7866C65.0677 59.7866 67.1576 61.8758 67.1576 64.4539C67.1576 65.6763 66.6684 66.7876 65.8903 67.6321L65.379 68.0989C64.5786 68.7212 63.5781 69.1212 62.4887 69.1212Z" fill="#1B2027"/>
</svg>
