<svg width="49" height="197" viewBox="0 0 49 197" fill="none" xmlns="http://www.w3.org/2000/svg">
<path d="M46.6847 0.878174H2.3971C1.1743 0.878174 0.173828 1.87831 0.173828 3.10071V27.3041C0.173828 28.5265 1.1743 29.5267 2.3971 29.5267H7.17713V194.505C7.17713 195.728 8.1776 196.728 9.4004 196.728H39.6814C40.9042 196.728 41.9047 195.728 41.9047 194.505V29.5267H46.6847C47.9075 29.5267 48.908 28.5265 48.908 27.3041V3.10071C48.908 1.87831 47.9075 0.878174 46.6847 0.878174ZM37.4581 192.305H11.6237V29.5489H37.4581V192.305ZM44.4614 25.0816H39.6814H9.4004H4.62038V5.32325H44.4614V25.0816Z" fill="#1B2027"/>
</svg>
