<svg width="56" height="59" viewBox="0 0 56 59" fill="none" xmlns="http://www.w3.org/2000/svg">
<path d="M34.5468 31.4161C40.3051 28.9268 44.3515 23.1705 44.3515 16.5028C44.3515 7.54602 37.0591 0.256104 28.0994 0.256104C19.1396 0.256104 11.8472 7.54602 11.8472 16.5028C11.8472 23.1705 15.8936 28.9046 21.6519 31.4161C9.73511 34.3276 0.864258 45.0402 0.864258 57.842V58.9533H55.3122V57.842C55.3344 45.0624 46.4636 34.3276 34.5468 31.4161ZM14.0927 16.5251C14.0927 8.79064 20.3846 2.50087 28.1216 2.50087C35.8586 2.50087 42.1504 8.79064 42.1504 16.5251C42.1504 24.2595 35.8586 30.5493 28.1216 30.5493C20.3846 30.5493 14.0927 24.2373 14.0927 16.5251ZM3.132 56.7307C3.71005 43.4622 14.693 32.8385 28.0994 32.8385C41.5279 32.8385 52.5109 43.4622 53.0889 56.7307H3.132Z" fill="#1B2027"/>
</svg>
