<svg width="3" height="4" viewBox="0 0 3 4" fill="none" xmlns="http://www.w3.org/2000/svg">
<path d="M1.24496 3.17044C1.19809 3.17044 1.16685 3.17044 1.11998 3.17044C0.807552 3.13916 0.526365 2.98277 0.338906 2.73254C-0.0672532 2.23208 0.0108554 1.49706 0.510744 1.09043C1.01063 0.683811 1.74483 0.761984 2.15098 1.26244C2.55714 1.7629 2.47904 2.49798 1.97915 2.9046C1.76045 3.09227 1.51052 3.17044 1.24496 3.17044ZM1.24496 1.49707C1.13561 1.49707 1.01062 1.52831 0.916895 1.60651C0.698194 1.79418 0.666946 2.10697 0.838783 2.34156C0.932512 2.45103 1.04186 2.51363 1.18246 2.52927C1.30743 2.54491 1.44803 2.49798 1.55738 2.41978C1.77608 2.23211 1.82295 1.91932 1.6355 1.68473C1.54177 1.55962 1.38555 1.49707 1.24496 1.49707Z" fill="#1C2027"/>
</svg>
