<svg width="236" height="193" viewBox="0 0 236 193" fill="none" xmlns="http://www.w3.org/2000/svg">
<path d="M47.3302 25.4708C47.3302 25.4708 50.5951 39.1552 43.7373 41.7982C43.7373 41.7982 55.9533 41.7982 57.4998 44.238C57.4998 44.238 58.7652 41.5324 58.3278 39.0926C58.3278 39.0926 61.1709 43.9095 61.1709 47.2251C61.1709 47.2251 69.8721 51.1818 70.5438 56.812C70.5438 56.812 73.2463 50.478 79.6512 49.1487C79.6512 49.1487 88.4148 48.8672 87.7275 58.2821C87.7275 58.2821 86.2747 69.1827 74.1211 68.0723C74.1211 68.0723 71.8872 68.9324 65.4043 81.2719C64.7951 82.4292 64.4358 83.258 64.1858 84.5405C63.5766 87.6058 63.0298 92.7511 65.9511 93.5956L144.887 192.045C144.887 192.045 187.877 187.228 181.238 156.262C180.348 152.102 177.817 148.474 174.443 145.909C169.147 141.874 159.868 135.321 148.714 129.629C131.14 120.667 149.37 113.52 158.493 120.824C167.616 128.127 193.157 148.38 214.215 137.433C234.117 127.079 244.099 120.73 224.556 84.5874C219.932 76.0483 213.043 68.7917 204.342 64.4909C202.186 63.4274 199.843 62.4734 197.297 61.7227C182.035 57.2342 157.165 70.1836 157.165 70.1836C157.165 70.1836 143.403 76.8303 136.607 68.3538C129.812 59.8929 110.91 28.02 91.8359 20.3724C72.7621 12.7404 63.1548 12.7404 63.1548 12.7404C63.1548 12.7404 38.9414 -1.86675 21.6953 0.447865C4.44913 2.77812 -6.50155 17.3852 4.2773 34.479C4.2773 34.479 -0.0342424 12.3963 28.3188 12.5683C28.3188 12.5683 -6.48592 34.8074 17.9774 48.1009C17.9774 48.1165 19.3052 30.7725 47.3302 25.4708Z" fill="#1C2027"/>
</svg>
