<svg width="101" height="58" viewBox="0 0 101 58" fill="none" xmlns="http://www.w3.org/2000/svg">
<path d="M89.211 57.0883H11.7299C5.77154 57.0883 0.924805 52.2432 0.924805 46.2868V11.104C0.924805 5.14762 5.77154 0.30249 11.7299 0.30249H89.211C95.1693 0.30249 100.016 5.14762 100.016 11.104V46.2868C100.016 52.2432 95.1693 57.0883 89.211 57.0883ZM11.7077 2.52503C6.97209 2.52503 3.12582 6.37001 3.12582 11.104V46.2868C3.12582 51.0208 6.97209 54.8658 11.7077 54.8658H89.1888C93.9243 54.8658 97.7706 51.0208 97.7706 46.2868V11.104C97.7706 6.37001 93.9243 2.52503 89.1888 2.52503H11.7077Z" fill="#1B2027"/>
<path d="M88.4997 13.5045H11.3966C10.3517 13.5045 9.50684 12.6599 9.50684 11.6153V8.88158C9.50684 7.83699 10.3517 6.99243 11.3966 6.99243H88.4997C89.5447 6.99243 90.3895 7.83699 90.3895 8.88158V11.6153C90.3895 12.6599 89.5447 13.5045 88.4997 13.5045Z" fill="#1B2027"/>
<path d="M88.4997 23.2613H11.3966C10.3517 23.2613 9.50684 22.4167 9.50684 21.3721V18.6384C9.50684 17.5938 10.3517 16.7493 11.3966 16.7493H88.4997C89.5447 16.7493 90.3895 17.5938 90.3895 18.6384V21.3721C90.3895 22.3945 89.5447 23.2613 88.4997 23.2613Z" fill="#1B2027"/>
<path d="M33.14 36.3077H11.3742C10.3292 36.3077 9.48438 35.4631 9.48438 34.4185V31.6848C9.48438 30.6402 10.3292 29.7957 11.3742 29.7957H33.14C34.1849 29.7957 35.0298 30.6402 35.0298 31.6848V34.4185C35.0298 35.4631 34.1849 36.3077 33.14 36.3077Z" fill="#1B2027"/>
<path d="M33.14 49.3538H11.3742C10.3292 49.3538 9.48438 48.5093 9.48438 47.4647V44.731C9.48438 43.6864 10.3292 42.8418 11.3742 42.8418H33.14C34.1849 42.8418 35.0298 43.6864 35.0298 44.731V47.4647C35.0298 48.5093 34.1849 49.3538 33.14 49.3538Z" fill="#1B2027"/>
<path d="M55.3501 39.9749C54.5052 39.2192 53.238 38.6636 51.4593 38.2635V34.863C52.193 35.1964 52.86 35.7743 53.4381 36.6188L53.7715 37.0856L56.4172 34.5074L56.1505 34.174C54.861 32.5738 53.2824 31.5959 51.4816 31.2403V28.551H48.9693V31.1514C48.0577 31.2625 47.2129 31.507 46.5015 31.9071C45.6566 32.3516 44.9674 32.9739 44.4783 33.7295C43.9891 34.4852 43.7224 35.352 43.7224 36.3077C43.7224 37.7301 44.1892 38.8636 45.123 39.7304C45.9456 40.486 47.2129 41.0639 48.8581 41.4417V45.2645C47.7465 44.9756 46.8349 44.331 46.0123 43.3087L45.6788 42.8864L43.1221 45.4423L43.3889 45.7757C44.1003 46.6647 44.9674 47.3759 45.9901 47.9093C46.8572 48.3538 47.8354 48.6427 48.8581 48.7761V51.3987H51.3482V48.7761C52.3264 48.6427 53.1935 48.376 53.9494 47.976C54.8387 47.5093 55.5279 46.8647 56.0171 46.0868C56.5062 45.3089 56.7507 44.3977 56.7507 43.3976C56.7507 41.9529 56.2838 40.7972 55.3501 39.9749ZM52.86 43.5531C52.86 44.0421 52.7044 44.4422 52.3709 44.7533C52.1041 44.9978 51.7706 45.1756 51.326 45.2867V42.0196C51.9707 42.2196 52.3042 42.4419 52.4598 42.5752C52.7488 42.8197 52.86 43.1309 52.86 43.5531ZM47.5686 36.2188C47.5686 35.7965 47.7242 35.4409 48.0577 35.152C48.3023 34.9297 48.5913 34.7741 48.9693 34.6852V37.7523C48.5246 37.5967 48.1911 37.4189 47.9688 37.2189C47.702 36.9522 47.5686 36.641 47.5686 36.2188Z" fill="#1B2027"/>
</svg>
