<svg width="42" height="42" viewBox="0 0 42 42" fill="none" xmlns="http://www.w3.org/2000/svg">
<path d="M21.0648 0.278564C9.70391 0.278564 0.455078 9.52431 0.455078 20.8815C0.455078 32.2386 9.70391 41.4622 21.0648 41.4622C32.4258 41.4622 41.6746 32.2164 41.6746 20.8592C41.6746 9.50208 32.4258 0.278564 21.0648 0.278564ZM21.0648 39.2396C10.9267 39.2396 2.67835 30.994 2.67835 20.8592C2.67835 10.7245 10.9267 2.47887 21.0648 2.47887C31.203 2.47887 39.4513 10.7245 39.4513 20.8592C39.4513 30.994 31.203 39.2396 21.0648 39.2396Z" fill="#1B2027"/>
<path d="M29.7574 19.7481H23.7545C23.4655 19.0146 22.8875 18.459 22.1538 18.1479V6.83514C22.1538 6.21283 21.6647 5.72388 21.0421 5.72388C20.4196 5.72388 19.9305 6.21283 19.9305 6.83514V18.1479C18.8633 18.5924 18.1074 19.637 18.1074 20.8593C18.1074 22.4818 19.4192 23.7931 21.0421 23.7931C22.2649 23.7931 23.3099 23.0374 23.7545 21.9706H29.7574C30.3799 21.9706 30.869 21.4817 30.869 20.8593C30.869 20.237 30.3799 19.7481 29.7574 19.7481Z" fill="#1B2027"/>
</svg>
