<svg width="78" height="31" viewBox="0 0 78 31" fill="none" xmlns="http://www.w3.org/2000/svg">
<path d="M42.5572 1.30298C42.5572 1.30298 57.1008 11.187 72.4568 2.21004C72.4568 2.21004 75.1281 1.38118 72.8942 7.85585L76.7058 30.267H1.17578C1.17578 30.267 2.25366 25.2937 16.8442 21.462C16.8598 21.462 21.7493 20.3829 42.5572 1.30298Z" fill="#FDFDFD"/>
<path d="M77.19 30.6579H0.707031L0.816393 30.1888C0.863258 29.9698 2.11297 24.934 16.766 21.0867C16.8284 21.071 21.9835 19.6479 42.3071 1.00581L42.5415 0.80249L42.7914 0.974548C42.932 1.06838 57.3194 10.6083 72.2848 1.88161C72.6597 1.75649 73.2534 1.72522 73.6908 2.17876C74.4719 2.992 74.3469 4.85307 73.3158 7.8871L77.19 30.6579ZM1.78492 29.876H76.2683L72.5192 7.82453L72.5504 7.7307C73.8314 4.00854 73.394 2.99201 73.144 2.72614C72.9253 2.49155 72.6129 2.58539 72.5973 2.58539C58.4129 10.8742 44.6816 3.05456 42.6196 1.78777C22.1554 20.5393 17.1565 21.8061 16.9534 21.853C5.48723 24.8401 2.50351 28.5779 1.78492 29.876Z" fill="#1C2027"/>
</svg>
