<svg width="196" height="197" viewBox="0 0 196 197" fill="none" xmlns="http://www.w3.org/2000/svg">
<path d="M136.753 176.179C136.753 176.179 162.638 183.389 156.592 196.714C156.592 196.714 161.904 195.806 165.028 194.899C166.434 194.493 167.402 193.023 167.59 192.084C167.59 192.084 168.043 189.77 167.949 186.407C167.887 183.921 167.371 180.855 166.934 177.712C166.59 175.272 165.7 173.505 165.231 172.003C164.294 168.969 163.778 167.765 163.778 167.765L163.403 166.639C163.403 166.639 155.608 170.299 152.218 171.049L136.753 176.179Z" fill="#462156"/>
<path d="M185.445 82.8123C185.445 82.8123 209.221 122.661 150.5 171.628C150.5 171.628 172.948 164.668 184.633 150.296C184.633 150.296 196.646 138.254 195.646 117.829C195.662 117.829 193.647 98.5923 185.445 82.8123Z" fill="#462156"/>
<path d="M119.694 14.9534C119.694 14.9534 133.832 6.39866 144.283 8.02515L138.206 0.831055L113.618 13.7648L119.694 14.9534Z" fill="#462156"/>
<path d="M96.4182 63.3728C96.4182 63.3728 81.8745 80.232 84.2021 106.881C84.2021 106.881 77.9535 86.6441 80.3436 81.4362C81.3434 79.2467 83.7491 74.8521 86.8734 71.4896C91.2318 66.8447 96.4182 63.3728 96.4182 63.3728Z" fill="#462156"/>
<path d="M4.39178 59.588C4.39178 59.588 5.43842 48.3433 6.78187 38.3967C7.98473 29.5605 11.3434 21.5063 12.1713 18.394L6.20386 27.5274L0.736328 37.9119L4.39178 59.588Z" fill="#462156"/>
<path d="M25.8404 81.7019C25.8404 81.7019 27.5431 110.744 1.89259 112.949C1.87697 112.949 22.4974 103.159 25.8404 81.7019Z" fill="#462156"/>
</svg>
