<svg width="3" height="4" viewBox="0 0 3 4" fill="none" xmlns="http://www.w3.org/2000/svg">
<path d="M1.35552 3.12725C1.30866 3.12725 1.27741 3.12725 1.23055 3.12725C0.918117 3.09597 0.636929 2.93959 0.449471 2.705C0.246391 2.45477 0.168278 2.15765 0.199521 1.84486C0.230764 1.53207 0.386986 1.25057 0.621309 1.06289C0.871253 0.859583 1.16807 0.765741 1.4805 0.812659C1.79293 0.843938 2.07411 1.00031 2.26157 1.2349C2.46465 1.48513 2.54274 1.78231 2.5115 2.09509C2.48026 2.40788 2.32406 2.68939 2.08974 2.87706C1.87103 3.03345 1.62109 3.12725 1.35552 3.12725ZM1.35552 1.43822C1.23055 1.43822 1.12119 1.48515 1.02746 1.54771C0.918109 1.64154 0.85563 1.75102 0.840009 1.89178C0.824387 2.03253 0.87124 2.15763 0.949347 2.2671C1.04308 2.37658 1.15243 2.43913 1.29302 2.45477C1.44924 2.48605 1.57422 2.42348 1.66795 2.34528C1.7773 2.25145 1.83978 2.14197 1.8554 2.00121C1.87102 1.86046 1.82417 1.73536 1.74606 1.62589C1.65233 1.51641 1.54298 1.45386 1.40238 1.43822C1.38676 1.43822 1.37114 1.43822 1.35552 1.43822Z" fill="#1C2027"/>
</svg>
