<svg width="26" height="45" viewBox="0 0 26 45" fill="none" xmlns="http://www.w3.org/2000/svg">
<path d="M22.6016 22.6082C21.086 21.1628 18.8084 20.0916 15.6334 19.3434V12.8563C16.9627 13.4854 18.165 14.6077 19.1979 16.1976L19.7821 17.0903L24.5151 12.1761L24.024 11.5215C21.7125 8.46071 18.8931 6.57325 15.6334 5.92709V0.808838H11.129V5.79956C9.48649 6.02061 7.99632 6.49673 6.7009 7.22791C5.16841 8.08662 3.9492 9.2599 3.06018 10.6968C2.17117 12.1506 1.72243 13.817 1.72243 15.6365C1.72243 18.3401 2.56911 20.5337 4.23707 22.1661C5.71876 23.6199 7.97093 24.7167 10.9174 25.4309V32.7427C8.93614 32.1985 7.26818 30.9657 5.82882 29.0187L5.22768 28.2025L0.638672 33.0997L1.12128 33.7459C2.40823 35.4548 3.96613 36.8237 5.76956 37.8099C7.34438 38.6686 9.07161 39.2212 10.9174 39.4763V44.467H15.3794V39.4763C17.132 39.2297 18.7068 38.7196 20.0615 37.9374C21.6533 37.0277 22.9064 35.8119 23.7869 34.3326C24.6675 32.8362 25.1162 31.1103 25.1162 29.2058C25.1331 26.4256 24.278 24.2151 22.6016 22.6082ZM18.1396 29.4524C18.1396 30.4046 17.8517 31.1613 17.2505 31.7649C16.7933 32.224 16.1668 32.5641 15.3878 32.7682V26.5191C16.5393 26.9187 17.132 27.3098 17.4284 27.5989C17.911 28.058 18.1396 28.6532 18.1396 29.4524ZM8.63134 15.4579C8.63134 14.6417 8.91921 13.9701 9.50342 13.4089C9.9437 12.9923 10.4771 12.6862 11.129 12.4992V18.3486C10.3332 18.0596 9.73202 17.728 9.34255 17.3454C8.86841 16.8693 8.63134 16.2571 8.63134 15.4579Z" fill="#AECA3B"/>
</svg>
