<svg width="42" height="43" viewBox="0 0 42 43" fill="none" xmlns="http://www.w3.org/2000/svg">
<path d="M21.1498 0.821533C9.78886 0.821533 0.540039 10.0673 0.540039 21.4244C0.540039 32.7816 9.78886 42.0274 21.1498 42.0274C32.5107 42.0274 41.7595 32.7816 41.7595 21.4244C41.7595 10.0673 32.5107 0.821533 21.1498 0.821533ZM21.1498 39.7826C11.0117 39.7826 2.76331 31.537 2.76331 21.4022C2.76331 11.2675 11.0117 3.02186 21.1498 3.02186C31.2879 3.02186 39.5363 11.2675 39.5363 21.4022C39.5363 31.537 31.2879 39.7826 21.1498 39.7826Z" fill="#1B2027"/>
<path d="M19.3934 28.0476C19.1044 28.0476 18.8154 27.9365 18.6153 27.7142L11.0561 20.1576C10.6115 19.7131 10.6115 19.0241 11.0561 18.5796C11.5008 18.1351 12.19 18.1351 12.6347 18.5796L19.4157 25.3583L29.6872 15.068C30.1318 14.6235 30.821 14.6235 31.2657 15.068C31.7104 15.5125 31.7104 16.2015 31.2657 16.646L20.1938 27.7142C19.9715 27.9365 19.7047 28.0476 19.3934 28.0476Z" fill="#1B2027"/>
</svg>
