<svg width="164" height="193" viewBox="0 0 164 193" fill="none" xmlns="http://www.w3.org/2000/svg">
<path d="M81.6769 0.435303H0.18457V110.657C0.18457 155.822 36.6734 192.435 81.6846 192.435C126.696 192.435 163.185 155.822 163.185 110.657V0.435303H81.6769Z" fill="#AECA3B"/>
<path d="M81.6789 23.5442H19.8057V107.233C19.8057 141.523 47.5131 169.325 81.6866 169.325C115.86 169.325 143.567 141.523 143.567 107.233V23.5442H81.6789Z" fill="white"/>
<g opacity="0.15">
<path d="M163.179 0.435303H81.6787V192.428C126.69 192.428 163.179 155.814 163.179 110.65V0.435303Z" fill="#6556A0"/>
</g>
<path d="M106.909 64.1553L73.8779 101.181L49.712 74.09L43.3525 81.2277L67.5185 108.319L71.3189 112.576L73.8779 115.449L113.268 71.2854L106.909 64.1553Z" fill="#5E1EE5"/>
</svg>
