<svg width="78" height="31" viewBox="0 0 78 31" fill="none" xmlns="http://www.w3.org/2000/svg">
<path d="M42.8541 1.30298C42.8541 1.30298 57.3977 11.187 72.7536 2.21004C72.7536 2.21004 75.4249 1.38118 73.1911 7.85585L77.0027 30.267H1.47266C1.47266 30.267 2.55054 25.2937 17.141 21.462C17.1567 21.462 22.0462 20.3829 42.8541 1.30298Z" fill="white"/>
<path d="M77.4712 30.6579H0.988281L1.0976 30.1888C1.14446 29.9698 2.39422 24.934 17.0472 21.0867C17.1097 21.071 22.2648 19.6479 42.5884 1.00581L42.8227 0.80249L43.0726 0.974548C43.2132 1.06838 57.6006 10.6083 72.5661 1.88161C72.9254 1.75649 73.5346 1.72522 73.9876 2.17876C74.7687 2.992 74.6437 4.85307 73.6127 7.8871L77.4712 30.6579ZM2.08176 29.876H76.5652L72.816 7.82453L72.8473 7.7307C74.1282 4.00854 73.6908 2.99201 73.4409 2.72614C73.2222 2.49155 72.9098 2.58539 72.8941 2.58539C58.7098 10.8742 44.9785 3.05456 42.9164 1.78777C22.4522 20.5393 17.4533 21.8061 17.2502 21.853C5.78405 24.8401 2.80035 28.5779 2.08176 29.876Z" fill="#1C2027"/>
</svg>
