<svg width="3" height="4" viewBox="0 0 3 4" fill="none" xmlns="http://www.w3.org/2000/svg">
<path d="M1.80965 3.02149C1.76278 3.02149 1.73151 3.02149 1.68465 3.02149C1.37222 2.99021 1.09103 2.83379 0.903573 2.5992C0.700493 2.34897 0.622379 2.05184 0.653622 1.73905C0.684865 1.42627 0.841111 1.14476 1.07543 0.957087C1.30976 0.753776 1.60655 0.675574 1.9346 0.706853C2.24703 0.738131 2.52822 0.894507 2.71568 1.1291C2.91875 1.37933 2.99687 1.6765 2.96563 1.98929C2.93438 2.30207 2.77818 2.58358 2.54386 2.77125C2.32516 2.94329 2.07521 3.02149 1.80965 3.02149ZM1.80965 1.33242C1.7003 1.33242 1.57529 1.37935 1.48156 1.4419C1.26286 1.61393 1.23164 1.94236 1.40347 2.17695C1.4972 2.28643 1.60655 2.34898 1.74715 2.36462C1.87212 2.38026 2.0127 2.33333 2.12205 2.25513C2.34075 2.0831 2.37202 1.75467 2.20019 1.52008C2.10646 1.4106 1.9971 1.34806 1.85651 1.33242C1.84089 1.34806 1.82527 1.33242 1.80965 1.33242Z" fill="#1C2027"/>
</svg>
