<svg width="8" height="11" viewBox="0 0 8 11" fill="none" xmlns="http://www.w3.org/2000/svg">
<path d="M6.71448 10.7759C5.46476 10.7759 2.54356 8.85232 1.27822 6.49078C0.528385 5.08325 0.528369 3.75392 1.26258 2.64353C1.77809 1.8772 2.99655 0.0630285 5.15232 0.532208C6.40205 0.798076 7.04255 1.34545 7.41746 2.48712C7.69865 3.34728 7.57365 4.17614 6.12085 7.05378C5.05859 9.16508 6.33957 9.82197 6.82384 10.0722C6.94881 10.1348 7.18314 10.2599 7.12065 10.5101C7.08941 10.6039 7.01129 10.7759 6.71448 10.7759ZM4.46497 1.11086C3.27774 1.11086 2.48107 2.01794 1.80934 3.01885C1.2001 3.92593 1.21572 4.98941 1.85621 6.19363C2.6529 7.69501 4.16816 8.96181 5.33978 9.6343C4.79302 8.72722 5.08987 7.63244 5.52727 6.77228C6.87072 4.1136 7.01131 3.3629 6.79261 2.70605C6.4958 1.78333 6.04276 1.39238 5.01174 1.17343C4.82428 1.12651 4.63681 1.11086 4.46497 1.11086Z" fill="#1C2027"/>
</svg>
