<svg width="3" height="4" viewBox="0 0 3 4" fill="none" xmlns="http://www.w3.org/2000/svg">
<path d="M1.54182 3.17044C1.19814 3.17044 0.854492 3.01405 0.635791 2.73254C0.229631 2.23208 0.307716 1.49706 0.807605 1.09043C1.30749 0.683811 2.05736 0.761984 2.44789 1.26244C2.85405 1.7629 2.77592 2.49798 2.27603 2.9046C2.04171 3.09227 1.79176 3.17044 1.54182 3.17044ZM1.52623 1.49707C1.41688 1.49707 1.29187 1.52831 1.19814 1.60651C0.979441 1.79418 0.948217 2.10697 1.12005 2.34156C1.21378 2.45103 1.32314 2.51363 1.46373 2.52927C1.60432 2.54491 1.7293 2.51362 1.85427 2.41978C2.07297 2.23211 2.10419 1.90369 1.93236 1.68473C1.83863 1.55962 1.68244 1.49707 1.52623 1.49707Z" fill="#1C2027"/>
</svg>
