<svg width="751" height="619" viewBox="0 0 751 619" fill="none" xmlns="http://www.w3.org/2000/svg">
<path d="M320.923 618.239C279.088 618.239 233.396 599.816 191.733 536.289C107.314 407.578 52.0921 410.252 51.5454 410.283C51.3423 410.299 31.5498 411.691 16.8343 395.504C1.08785 378.16 -3.12996 348.039 4.3215 305.985C17.2561 232.996 86.1627 178.853 126.107 153.079C144.415 141.272 164.426 131.919 185.578 125.288C217.805 115.201 272.246 90.4908 274.746 38.3493C275.214 28.5434 279.229 20.5205 286.696 14.515C310.894 -5.00288 367.772 -0.358009 411.231 6.97683C449.504 13.4359 486.714 28.9813 518.848 51.9399C526.752 57.5856 533.032 64.8579 539.093 71.8956C554.761 90.0685 568.29 105.755 603.329 86.2994C611.702 81.6545 626.261 88.1761 643.273 104.222C665.034 124.756 694.324 164.95 711.242 216.215C724.036 254.985 733.659 312.929 706.931 368.964C707.212 369.871 709.571 375.095 728.363 384.948C750.515 396.583 743.704 427.049 743.641 427.346L743.532 427.596C743.391 427.815 729.207 449.35 733.815 465.115C735.518 470.948 739.627 475.327 746.031 478.142C748.765 479.347 750.218 481.833 750.234 485.336C750.296 503.118 713.789 546.361 658.598 571.009C594.424 599.675 524.44 572.447 521.003 571.071C518.582 570.946 481.309 569.492 432.179 587.524C426.915 589.463 421.041 591.871 414.808 594.421C389.658 604.743 356.712 618.239 320.923 618.239ZM52.2327 408.704C55.5445 408.704 68.7603 409.642 90.193 422.983C112.626 436.933 148.664 467.758 193.045 535.429C269.637 652.208 360.133 615.143 414.215 592.982C420.448 590.433 426.337 588.009 431.633 586.069C482.543 567.38 520.832 569.507 521.222 569.523L521.472 569.585C522.175 569.883 593.112 598.565 657.957 569.585C712.57 545.188 748.718 502.727 748.656 485.336C748.64 482.459 747.547 480.52 745.391 479.566C738.549 476.563 734.143 471.84 732.3 465.537C727.629 449.522 740.845 428.816 742.142 426.83C742.595 424.672 747.984 396.99 727.629 386.308C705.962 374.939 705.337 369.418 705.337 368.824L705.415 368.48C751.218 272.829 694.777 154.909 642.211 105.332C625.964 90.0216 611.733 83.4062 604.094 87.6288C567.946 107.71 553.356 90.8036 537.906 72.8809C531.892 65.9214 525.69 58.7117 517.926 53.1754C485.98 30.3576 449.004 14.906 410.965 8.4782C367.834 1.19028 311.425 -3.47023 287.665 15.6879C280.573 21.4119 276.745 29.0439 276.292 38.3806C273.762 91.476 218.649 116.53 186.031 126.743C165.004 133.327 145.118 142.617 126.935 154.346C87.2249 179.979 18.6777 233.809 5.85241 306.204C-1.50533 347.742 2.57189 377.41 17.9591 394.378C32.1434 410.018 51.2173 408.688 51.4048 408.673C51.4985 408.72 51.7641 408.704 52.2327 408.704Z" fill="#AECB3C"/>
</svg>
