<svg width="245" height="197" viewBox="0 0 245 197" fill="none" xmlns="http://www.w3.org/2000/svg">
<path d="M71.1392 15.7406C94.7901 11.1426 119.769 24.1389 130.501 45.5804C134.641 52.3679 134.344 61.8453 140.999 66.9281C145.404 70.6659 150.7 73.1056 155.948 75.6079C149.403 73.3402 141.858 71.354 137.124 65.8959C132.579 60.1875 132.407 52.6337 128.767 46.4875C117.051 23.8887 95.4775 15.7406 71.1392 15.7406Z" fill="#1C2027"/>
<path d="M175.491 68.6951C186.488 63.5029 199.189 58.0604 211.608 61.9702C223.636 66.0052 232.9 76.0926 238.977 86.8993C249.1 104.947 246.881 132.144 227.651 143.201C222.871 145.781 217.357 146.016 212.139 145.703C204.734 145.453 197.861 142.247 191.284 139.182C183.911 135.491 176.569 131.581 169.992 126.576C184.489 135.506 210.014 149.488 226.745 141.465C237.368 135.506 242.835 122.948 242.992 111.062C243.476 94.7659 234.259 79.2048 221.574 69.4615C208.281 58.1543 190.206 63.2057 175.491 68.6951Z" fill="#1C2027"/>
<path d="M71.139 15.7404C63.9375 12.2841 56.0642 10.6576 48.6128 7.90508C41.0519 5.54355 33.3505 3.24456 25.6023 2.16545C21.9156 1.71191 17.979 2.49388 15.0421 4.83977C5.82543 12.9409 8.87163 27.1258 12.2615 37.479C11.0743 35.8369 10.2307 33.9915 9.434 32.1304C3.95085 20.6042 7.20011 0.78919 22.6498 0.116699C31.804 0.288732 40.5833 3.55735 49.2064 6.044C56.7203 8.43682 64.4999 11.4708 71.139 15.7404Z" fill="#1C2027"/>
<path d="M28.1798 68.6013C26.2271 75.4983 21.9156 81.5038 16.7136 86.3676C12.0428 91.3409 5.26304 94.719 3.15414 101.538C-0.11076 111.39 4.84126 122.995 15.995 124.074C19.3693 124.731 22.8997 124.746 26.4146 124.684C21.2439 125.575 15.5576 126.451 10.4494 124.574C-0.313842 120.321 -2.57895 104.791 3.79463 95.9545C7.10639 91.6693 11.6835 88.7917 15.3702 84.96C20.3066 80.0337 24.4775 74.5443 28.1798 68.6013Z" fill="#1C2027"/>
<path d="M151.98 194.044C167.993 194.904 179.349 192.355 186.535 176.7C187.644 174.98 188.629 173.197 189.535 171.336C189.3 173.416 188.722 175.433 188.113 177.435C183.005 191.683 165.821 200.206 151.98 194.044Z" fill="#1C2027"/>
</svg>
