<svg width="244" height="243" viewBox="0 0 244 243" fill="none" xmlns="http://www.w3.org/2000/svg">
<path d="M158.587 242.598C158.087 242.598 157.587 242.458 157.15 242.176C156.556 241.785 156.134 241.191 155.978 240.487L153.526 229.289C145.605 225.098 146.465 209.412 146.511 208.739C146.746 182.887 138.06 158.991 132.858 147.042C129.484 139.285 127.297 131.231 126.36 123.098C124.485 106.849 122.501 75.1325 130.281 45.3083C139.326 10.6203 138.091 2.95708 137.139 1.28367C137.014 1.06472 137.029 0.814493 137.17 0.611181C137.31 0.40787 137.56 0.282755 137.826 0.329673L150.76 2.26895C154.228 2.78504 159.259 5.00582 161.961 7.21096C184.987 25.8999 224.822 91.5538 239.475 134.953C247.926 159.991 239.678 176.725 231.274 186.344C223.104 195.696 213.184 200.325 211.185 201.201C215.137 210.741 216.652 219.296 215.684 226.677C215.402 228.851 213.778 230.619 211.653 231.088L159.165 242.567C158.977 242.583 158.79 242.598 158.587 242.598ZM137.935 1.14291C139.091 3.69212 139.544 12.888 131.03 45.5273C123.282 75.2263 125.266 106.833 127.125 123.036C128.062 131.09 130.218 139.082 133.561 146.761C138.779 158.756 147.511 182.778 147.277 208.802C147.261 208.989 146.386 224.879 154.025 228.711L154.197 228.789L156.728 240.346C156.837 240.847 157.134 241.269 157.556 241.535C157.978 241.801 158.493 241.895 158.977 241.785L211.466 230.306C213.262 229.915 214.637 228.413 214.887 226.568C215.855 219.249 214.293 210.694 210.278 201.138L210.122 200.779L210.497 200.638C210.607 200.591 221.713 196.103 230.68 185.828C238.944 176.366 247.036 159.898 238.71 135.219C224.385 92.758 183.941 26.0876 161.446 7.83654C158.821 5.70959 153.963 3.56701 150.62 3.06655L137.935 1.14291Z" fill="#1C2027"/>
<path d="M58.6874 238.97C58.4062 238.97 58.1406 238.923 57.875 238.845L15.6813 225.473C14.4941 225.098 13.5099 224.347 12.9163 223.362C11.2136 220.563 9.37022 213.666 16.2281 198.98C25.1636 179.853 30.428 154.956 31.0529 151.906C28.3035 150.686 7.87057 140.567 2.91855 110.227C-1.59607 82.5456 0.590936 51.5484 1.37201 42.6966C1.4345 41.9928 1.76254 41.3673 2.30929 40.9606C2.85604 40.5384 3.55903 40.382 4.27762 40.5227C9.38585 41.4767 22.7579 43.3065 36.3642 39.7251C37.0672 39.5375 37.8014 39.6782 38.395 40.0848C38.9574 40.4915 39.3167 41.117 39.3792 41.8208L40.4883 56.0682C41.6287 56.4748 45.5497 58.7582 47.9085 71.3165C51.3609 63.794 72.3093 22.3029 121.767 1.89363L121.97 1.81543L122.142 1.94055C122.204 1.98746 122.501 2.25333 122.579 2.94146C122.751 4.52103 121.705 8.75929 112.66 19.3158C112.004 20.0822 111.457 20.9267 111.035 21.8025C107.723 28.7932 96.9132 54.082 97.1944 85.908C97.1944 86.0801 97.7255 104.613 86.5562 136.845C86.5093 137.127 80.62 170.532 81.6041 192.474C82.2759 207.347 79.8077 217.2 74.2933 221.782C71.044 224.472 66.7324 225.317 61.4836 224.285C61.8429 225.598 62.0147 228.758 61.3118 236.53C61.2337 237.343 60.8119 238.063 60.1402 238.501C59.7184 238.814 59.2029 238.97 58.6874 238.97ZM3.77772 41.2578C3.4028 41.2578 3.05913 41.3673 2.77794 41.5862C2.41864 41.8677 2.18433 42.29 2.15309 42.7748C1.37201 51.5954 -0.799371 82.5143 3.69963 110.102C8.90159 142.022 31.4278 151.218 31.6465 151.312L31.9433 151.437L31.8808 151.765C31.834 152.031 26.4602 178.946 16.931 199.34C10.2294 213.697 11.9478 220.312 13.5724 222.987C14.0723 223.8 14.9002 224.425 15.9156 224.754L58.1094 238.125C58.6561 238.297 59.2654 238.219 59.7496 237.891C60.2183 237.578 60.5307 237.062 60.5776 236.499C61.4055 227.303 60.9681 224.378 60.5932 224.113L60.765 223.362C60.7963 223.362 60.8431 223.378 60.8744 223.393C66.2638 224.629 70.6222 223.909 73.8402 221.235C79.1516 216.825 81.5104 207.175 80.8699 192.568C79.8858 170.532 85.7907 137.033 85.8532 136.705C96.9913 104.55 96.4602 86.1739 96.4602 85.9862C96.179 53.9882 107.036 28.5587 110.379 21.521C110.832 20.5826 111.41 19.6755 112.113 18.8623C122.173 7.10152 122.048 3.58267 121.783 2.8007C68.0759 25.1024 48.3303 72.3644 48.1272 72.8492L47.6117 74.116L47.3774 72.771C44.8311 57.7729 40.129 56.8345 40.0821 56.8189L39.7853 56.772L39.7541 56.4592L38.6137 41.9303C38.5825 41.4611 38.3481 41.0545 37.9576 40.773C37.5671 40.4915 37.0672 40.3976 36.5829 40.5227C22.8203 44.1354 9.30774 42.29 4.15264 41.3203C4.01205 41.2734 3.88707 41.2578 3.77772 41.2578Z" fill="#1C2027"/>
</svg>
