<svg width="26" height="45" viewBox="0 0 26 45" fill="none" xmlns="http://www.w3.org/2000/svg">
<path d="M22.6016 22.3607C21.086 20.9214 18.8084 19.8546 15.6334 19.1095V12.6493C16.9627 13.2759 18.165 14.3935 19.1979 15.9768L19.7821 16.8658L24.5151 11.972L24.024 11.32C21.7125 8.27198 18.8931 6.39235 15.6334 5.74887V0.651855H11.129V5.62187C9.48649 5.84201 7.99632 6.31615 6.7009 7.04429C5.16841 7.89944 3.9492 9.06786 3.06018 10.4987C2.17117 11.9466 1.72243 13.6061 1.72243 15.418C1.72243 18.1104 2.56911 20.2948 4.23707 21.9205C5.71876 23.3683 7.97093 24.4605 10.9174 25.1717V32.4532C8.93614 31.9113 7.26818 30.6836 5.82882 28.7447L5.22768 27.9319L0.638672 32.8088L1.12128 33.4523C2.40823 35.1541 3.96613 36.5172 5.76956 37.4994C7.34438 38.3545 9.07161 38.9049 10.9174 39.1589V44.1289H15.3794V39.1589C17.132 38.9133 18.7068 38.4053 20.0615 37.6264C21.6533 36.7204 22.9064 35.5097 23.7869 34.0365C24.6675 32.5463 25.1162 30.8275 25.1162 28.931C25.1331 26.1623 24.278 23.961 22.6016 22.3607ZM18.1396 29.1765C18.1396 30.1248 17.8517 30.8783 17.2505 31.4795C16.7933 31.9367 16.1668 32.2754 15.3878 32.4786V26.2555C16.5393 26.6534 17.132 27.0429 17.4284 27.3308C17.911 27.788 18.1396 28.3806 18.1396 29.1765ZM8.63134 15.2402C8.63134 14.4273 8.91921 13.7585 9.50342 13.1997C9.9437 12.7848 10.4771 12.48 11.129 12.2937V18.1189C10.3332 17.831 9.73202 17.5008 9.34255 17.1198C8.86841 16.6456 8.63134 16.036 8.63134 15.2402Z" fill="#AECA3B"/>
</svg>
