<svg width="64" height="94" viewBox="0 0 64 94" fill="none" xmlns="http://www.w3.org/2000/svg">
<path d="M37.4839 22.1598C37.4839 22.1598 39.9208 21.0494 38.7336 17.5306C37.5464 14.0118 37.7494 16.8738 37.7494 16.8738L37.4839 22.1598Z" fill="#DB805A"/>
<path d="M29.5484 75.7402C29.5484 75.7402 29.1266 88.2048 23.0029 93.2563L18.5977 92.7089C18.5977 92.7089 29.3765 80.2131 29.5484 75.7402Z" fill="#DB805A"/>
<path d="M0.460938 19.2666C0.460938 19.2666 2.88228 16.2951 7.22506 13.2142C12.7238 9.30435 21.0032 5.00355 27.9548 4.08083L26.9238 0.0615234L20.8939 2.54817C20.8939 2.56381 2.91352 12.2289 0.460938 19.2666Z" fill="#DB805A"/>
<path d="M45.4511 60.4292C45.4511 60.4292 39.4524 65.3712 31.9385 67.5764C31.9385 67.592 45.4511 66.7944 45.4511 60.4292Z" fill="#DB805A"/>
<path d="M6.27234 43.5076C6.20985 43.5076 6.13174 43.4919 6.06925 43.445L2.53879 40.7863C2.24199 40.583 2.02328 40.2546 1.97642 39.8792C1.92955 39.5039 2.0389 39.1285 2.28884 38.847L5.47565 35.1562C5.60062 35.0154 5.80369 34.9998 5.92866 35.1249C6.06926 35.25 6.08488 35.4533 5.95991 35.5784L2.77311 39.2693C2.64814 39.4101 2.58566 39.5977 2.61691 39.801C2.64815 39.9887 2.74188 40.1607 2.91372 40.2702L6.45979 42.9289C6.60038 43.0384 6.63164 43.2417 6.52229 43.3824C6.4598 43.4606 6.36607 43.5076 6.27234 43.5076Z" fill="#DB805A"/>
<path d="M8.52169 51.1082C6.88143 51.1082 5.36615 50.0603 4.69442 48.4495C4.63194 48.2774 4.71004 48.0898 4.86626 48.0272C5.0381 47.9647 5.22554 48.0429 5.28802 48.1992C5.88164 49.6381 7.25633 50.5295 8.72475 50.4513C10.5368 50.3262 11.4585 48.6841 11.5054 48.6059C11.5991 48.4495 11.7866 48.3869 11.9428 48.4808C12.099 48.5746 12.1615 48.7623 12.0678 48.9187C11.9584 49.122 10.8805 50.9518 8.77164 51.0925C8.69353 51.1082 8.5998 51.1082 8.52169 51.1082Z" fill="#DB805A"/>
<path d="M55.98 37.8461H55.9643C55.855 37.8305 55.7769 37.7367 55.7925 37.6272C55.8081 37.4552 56.2768 33.4828 58.7606 32.1847C60.0259 31.5279 61.5881 31.6843 63.3689 32.6695C63.4626 32.7165 63.4939 32.8416 63.4471 32.9354C63.4002 33.0292 63.2752 33.0605 63.1815 33.0136C61.51 32.1065 60.0884 31.9345 58.9324 32.5288C56.636 33.733 56.1674 37.6272 56.1674 37.6741C56.1518 37.7836 56.0737 37.8461 55.98 37.8461Z" fill="#DB805A"/>
<path d="M58.6355 41.2554C58.5886 41.2554 58.5418 41.2397 58.5106 41.2085C58.4324 41.1459 58.4168 41.0208 58.4793 40.927C59.1979 40.0512 59.4635 39.2223 59.2604 38.4403C58.823 36.7669 56.4017 35.8442 56.3704 35.8285C56.2767 35.7973 56.2142 35.6721 56.2611 35.5783C56.2923 35.4845 56.4017 35.4219 56.511 35.4688C56.6204 35.5158 59.151 36.4854 59.6353 38.3465C59.8696 39.2535 59.5884 40.2076 58.7761 41.1772C58.7449 41.2397 58.6824 41.2554 58.6355 41.2554Z" fill="#DB805A"/>
</svg>
