<svg width="263" height="179" viewBox="0 0 263 179" fill="none" xmlns="http://www.w3.org/2000/svg">
<path d="M54.1077 76.0969C55.4356 67.464 67.4485 39.7199 84.6166 29.6169C93.1772 24.581 107.924 22.3758 135.027 35.591C146.181 5.5792 180.97 -6.8384 205.996 6.37682C230.74 19.4356 240.316 54.5459 222.586 80.7574C237.333 74.0638 253.548 82.2275 257.078 94.7077C260.078 105.311 253.704 118.37 241.16 123.265C256.078 129.052 264.373 143.706 261.718 156.467C258.343 172.732 238.489 179.754 223.914 177.049C207.574 174.03 199.747 159.173 198.701 157.124C188.359 168.228 173.425 172.107 161.553 167.086C152.117 163.083 147.696 154.763 146.29 151.807C145.322 153.136 135.105 166.742 117.765 166.414C104.862 166.164 96.4733 158.344 94.5519 156.452C84.0542 170.543 66.6518 177.737 49.4525 175.047C28.2697 171.747 46.172 160.518 29.8006 151.447C14.1635 142.783 3.13469 127.409 1.27573 109.612C0.229091 99.5872 2.54107 93.7067 5.66538 90.0315C15.9443 78.0205 50.5616 99.243 54.1077 76.0969Z" fill="white"/>
<path d="M230.287 178.394C228.069 178.394 225.882 178.206 223.773 177.815C208.901 175.063 200.887 162.723 198.528 158.454C188.078 169.12 173.237 172.873 161.255 167.806C153.023 164.318 148.415 157.625 146.165 153.277C143.306 156.796 133.574 167.212 118.406 167.212C118.203 167.212 117.984 167.212 117.765 167.212C106.221 166.993 98.1289 160.862 94.6609 157.64C83.8977 171.575 66.6204 178.534 49.343 175.829C37.3925 173.968 37.205 169.385 37.0175 164.553C36.8457 160.424 36.6895 156.155 29.4411 152.151C13.1635 143.127 2.35342 127.269 0.525699 109.721C-0.380349 100.963 1.15055 94.1917 5.10279 89.5624C9.74238 84.1043 19.0059 85.0896 27.9414 86.0436C40.0169 87.326 51.4206 88.5302 53.3421 76.0188C54.7949 66.5257 67.0734 39.0787 84.2258 28.9757C95.817 22.157 112.751 24.0337 134.605 34.5589C140.104 20.4679 151.336 9.3171 165.536 3.89025C179.314 -1.38019 194.186 -0.707731 206.37 5.72003C218.399 12.0696 227.335 23.8147 230.865 37.9527C234.38 52.0124 232.084 66.8854 224.57 79.1466C231.24 76.8164 238.551 77.1292 244.94 80.1163C251.392 83.119 256.094 88.3582 257.828 94.5201C260.905 105.452 254.391 117.963 243.159 123.281C256.969 129.474 265.201 143.518 262.483 156.655C259.609 170.527 244.44 178.394 230.287 178.394ZM198.903 155.764L199.403 156.765C200.794 159.517 208.526 173.405 224.054 176.267C238.973 179.035 257.812 171.497 260.952 156.295C263.639 143.362 255 129.458 240.878 123.985L239.004 123.265L240.878 122.53C252.423 118.026 259.359 105.64 256.328 94.9111C254.719 89.2027 250.329 84.3076 244.284 81.5082C237.551 78.3803 229.756 78.3646 222.898 81.4769L220.367 82.6186L221.93 80.3196C230.24 68.0584 232.943 52.7318 229.334 38.3124C225.913 24.6124 217.274 13.2269 205.636 7.08069C193.858 0.871879 179.439 0.230628 166.083 5.32904C152.039 10.6933 140.979 21.8285 135.761 35.8883L135.464 36.7016L134.683 36.3262C112.969 25.7227 96.2544 23.7053 85.0069 30.3207C68.5262 40.0171 56.2476 67.2607 54.8729 76.2533C52.7172 90.2349 40.0325 88.8899 27.7696 87.6075C18.8341 86.6535 10.3985 85.7621 6.27441 90.5946C2.61897 94.8798 1.21303 101.276 2.07221 109.581C3.83745 126.628 14.3507 142.032 30.191 150.806C38.2048 155.248 38.4078 160.377 38.5641 164.522C38.7515 169.245 38.8921 172.654 49.5773 174.328C66.5579 176.971 83.5541 169.964 93.9424 156.045L94.4735 155.326L95.114 155.951C98.0196 158.798 106.033 165.46 117.796 165.695C117.999 165.695 118.203 165.695 118.406 165.695C134.84 165.695 144.603 152.886 145.681 151.4L146.462 150.337L147.024 151.525C148.915 155.545 153.367 162.817 161.88 166.414C173.534 171.356 188.109 167.431 198.154 156.639L198.903 155.764Z" fill="#4A4596"/>
</svg>
