<svg width="44" height="38" viewBox="0 0 44 38" fill="none" xmlns="http://www.w3.org/2000/svg">
<path d="M43.2542 37.3222L11.1988 35.899C11.1988 35.899 -4.18837 26.3746 1.24792 21.8236C1.24792 21.8236 -0.314229 11.8614 4.45033 12.9874C4.45033 12.9874 3.95045 10.0003 4.45033 6.99753L25.8518 15.6304C26.7579 16.6001 27.742 17.4759 28.7574 18.1796C28.7574 18.1796 28.7262 17.6635 28.6324 16.7565C28.3981 13.8632 27.6639 7.21648 26.2736 2.3683C25.8049 0.757447 27.8357 -0.384221 28.9293 0.866924C31.1319 3.36921 33.975 7.88897 37.0681 16.084C37.6617 17.6948 38.2397 19.1806 38.7239 20.5568C44.0821 35.3672 43.2542 37.3222 43.2542 37.3222Z" fill="#F4A17B"/>
</svg>
