<svg width="443" height="110" viewBox="0 0 443 110" fill="none" xmlns="http://www.w3.org/2000/svg">
<path d="M440.864 105.295L222.339 1.03628C221.739 0.747348 221.027 0.747348 220.427 1.03628L1.92351 105.295C0.989739 105.74 0.478384 106.785 0.722944 107.785C0.945271 108.807 1.85681 109.518 2.90175 109.518H48.3899C48.4789 109.54 48.5678 109.563 48.6567 109.563H394.176C394.265 109.563 394.354 109.54 394.442 109.518H439.931C440.976 109.518 441.865 108.807 442.109 107.785C442.31 106.785 441.798 105.74 440.864 105.295ZM58.4614 105.095L221.405 27.3511L384.349 105.095H58.4614ZM392.486 105.095L222.139 23.795C221.672 23.5728 221.094 23.5728 220.627 23.795L50.2797 105.095H12.6842L221.383 5.5258L430.082 105.095H392.486Z" fill="#1B2027"/>
</svg>
