<svg width="215" height="236" viewBox="0 0 215 236" fill="none" xmlns="http://www.w3.org/2000/svg">
<path d="M31.5058 147.313L31.4902 146.015C36.0517 145.952 51.7826 144.779 62.6239 132.299C70.0754 123.713 71.825 114.017 72.1999 108.996L73.4965 109.09C73.106 114.267 71.3095 124.276 63.6081 133.159C52.4074 146.046 36.1923 147.25 31.5058 147.313Z" fill="#1C2027"/>
<path d="M51.0171 90.3385C49.6893 86.0377 48.9082 80.7829 48.1428 75.7158C46.6744 66.0194 45.159 56.0102 39.9727 52.0848L39.7852 52.1317C34.6614 53.3203 28.8502 54.6653 21.055 54.6965C20.9925 54.6965 20.9457 54.6965 20.8832 54.6965C13.6661 54.6965 5.52725 53.5549 0.731445 52.5696L0.997008 51.2872C5.77719 52.2725 13.8535 53.4298 21.055 53.3828C28.7096 53.3672 34.4427 52.0379 39.5041 50.8493L40.2695 50.6772L40.5038 50.8493C46.3307 54.9624 47.9085 65.4095 49.4394 75.5281C50.2048 80.5483 50.9859 85.7406 52.2825 89.9632L51.0171 90.3385Z" fill="#1C2027"/>
<path d="M7.79889 37.3223L7.39893 53.082L8.69513 53.115L9.09509 37.3553L7.79889 37.3223Z" fill="#1C2027"/>
<path d="M15.2401 37.3217L14.9185 53.8335L16.2148 53.8588L16.5365 37.347L15.2401 37.3217Z" fill="#1C2027"/>
<path d="M24.0075 37.3525H22.7109V53.9928H24.0075V37.3525Z" fill="#1C2027"/>
<path d="M32.0622 37.3528L30.7661 37.3914L31.234 53.1495L32.53 53.1109L32.0622 37.3528Z" fill="#1C2027"/>
<path d="M61.0617 219.472C44.8154 216.673 14.1659 200.862 13.8691 200.705L14.4628 199.548C14.7752 199.704 45.2371 215.422 61.2804 218.19L61.0617 219.472Z" fill="#1C2027"/>
<path d="M44.0327 213.289L43.2773 229.396L44.5725 229.457L45.3279 213.35L44.0327 213.289Z" fill="#1C2027"/>
<path d="M36.8963 210.885L35.8701 226.803L37.164 226.887L38.1901 210.968L36.8963 210.885Z" fill="#1C2027"/>
<path d="M29.1784 224.211L27.8975 224.07L29.772 207.978L31.0686 208.118L29.1784 224.211Z" fill="#1C2027"/>
<path d="M20.5277 203.695L19.0488 221.259L20.3409 221.368L21.8197 203.804L20.5277 203.695Z" fill="#1C2027"/>
<path d="M54.5788 232.234L53.2822 232.14C53.5009 229.153 53.5634 217.079 53.5634 216.97H54.86C54.86 217.47 54.7975 229.2 54.5788 232.234Z" fill="#1C2027"/>
<path d="M153.947 224.68L153.791 223.382C171.256 221.177 213.262 204.865 213.684 204.693L214.153 205.897C213.731 206.069 171.568 222.444 153.947 224.68Z" fill="#1C2027"/>
<path d="M207.435 226.979L206.248 226.447C207.81 222.929 205.967 210.198 204.967 209.244C204.999 209.276 205.124 209.338 205.264 209.307L205.077 208.024C205.28 207.993 205.67 208.009 206.03 208.478C207.482 210.433 209.06 223.288 207.435 226.979Z" fill="#1C2027"/>
<path d="M198.828 228.762L197.562 228.449C198.453 224.868 196.859 211.793 196.844 211.668L198.14 211.512C198.218 212.044 199.781 224.946 198.828 228.762Z" fill="#1C2027"/>
<path d="M191.47 230.248L190.174 230.185C190.33 226.713 189.814 214.296 189.814 214.171L191.111 214.124C191.142 214.624 191.642 226.713 191.47 230.248Z" fill="#1C2027"/>
<path d="M182.535 232.218L181.238 232.125C181.613 226.964 181.238 217.22 181.238 217.127L182.535 217.08C182.535 217.173 182.91 226.979 182.535 232.218Z" fill="#1C2027"/>
<path d="M173.959 219.832H172.662V234.048H173.959V219.832Z" fill="#1C2027"/>
<path d="M164.796 222.313L163.504 222.423L164.649 235.856L165.941 235.745L164.796 222.313Z" fill="#1C2027"/>
<path d="M183.222 206.883C182.129 206.883 181.066 206.335 180.395 205.413L162.133 179.576C161.961 179.279 161.336 178.044 162.086 177.293C162.883 176.48 164.617 176.886 167.866 178.622L167.257 179.764C163.711 177.856 163.024 178.184 162.992 178.216C162.992 178.278 163.102 178.638 163.242 178.888L181.473 204.662C181.972 205.366 182.816 205.725 183.644 205.553C196.969 202.863 210.232 195.482 210.372 195.419L211.013 196.561C210.872 196.639 197.438 204.114 183.909 206.836C183.66 206.867 183.441 206.883 183.222 206.883Z" fill="#1C2027"/>
<path d="M172.381 192.072L171.084 191.994C173.99 143.043 197.641 76.5602 197.891 75.8877L199.109 76.3256C198.859 76.9981 175.271 143.309 172.381 192.072Z" fill="#1C2027"/>
<path d="M126.891 114.063L125.688 113.563C128.016 108.011 131.327 103.053 135.826 98.4085C139.232 94.8896 143.122 91.9025 147.386 89.494C150.198 87.8988 152.916 85.8814 155.447 83.4729C158.681 80.4076 161.617 76.9982 164.164 73.3543C169.366 65.91 172.943 57.5742 174.818 48.5503C174.896 48.1593 174.818 47.7527 174.583 47.4243C174.349 47.0802 173.99 46.8613 173.584 46.7831L145.574 42.06L145.793 40.7776L173.802 45.5007C174.568 45.6258 175.224 46.048 175.661 46.6892C176.099 47.3148 176.239 48.0811 176.083 48.8162C174.177 58.0121 170.522 66.5199 165.226 74.105C162.633 77.8271 159.634 81.2834 156.337 84.4113C153.729 86.8823 150.917 88.9779 148.011 90.6201C143.856 92.966 140.06 95.8905 136.748 99.2999C132.374 103.835 129.14 108.652 126.891 114.063Z" fill="#1C2027"/>
<path d="M94.679 97.1729C91.8047 88.2116 87.7118 80.0947 82.135 72.3377C81.1821 71.0083 80.2604 69.8041 79.3699 68.6468C76.5268 64.9559 74.0743 61.7655 72.106 56.5889C70.2782 51.7876 69.419 46.5797 69.5128 41.106C69.544 39.3387 71.0124 37.9155 72.7933 37.9155C72.8089 37.9155 72.8246 37.9155 72.8246 37.9155L102.115 38.2283L102.099 39.5264L72.8089 39.2136H72.7933C71.7154 39.2136 70.825 40.0737 70.8094 41.1372C70.7156 46.439 71.5592 51.4748 73.3244 56.1353C75.2146 61.1243 77.6203 64.2521 80.401 67.8648C81.307 69.0378 82.2443 70.2576 83.1972 71.587C88.8522 79.4535 93.0076 87.6955 95.9132 96.7819L94.679 97.1729Z" fill="#1C2027"/>
<path d="M185.638 29.8879L159.315 43.2075L159.9 44.366L186.223 31.0464L185.638 29.8879Z" fill="#1C2027"/>
<path d="M76.3792 27.4702L75.7461 28.603L94.9821 39.3784L95.6153 38.2456L76.3792 27.4702Z" fill="#1C2027"/>
<path d="M154.916 42.7794L154.635 42.2007L180.223 29.6893C180.442 29.5798 180.613 29.3765 180.691 29.1419C180.754 28.9073 180.723 28.6571 180.598 28.4538C178.067 24.4032 169.069 10.4529 159.368 1.00678L159.821 0.537598C169.585 10.0307 178.614 24.0278 181.144 28.0941C181.379 28.4538 181.441 28.9073 181.316 29.3139C181.191 29.7206 180.91 30.0803 180.52 30.2679L154.916 42.7794Z" fill="#1C2027"/>
<path d="M99.147 39.1197L81.526 28.2034C81.1979 28.0001 80.9636 27.6561 80.9167 27.2651C80.8542 26.8741 80.9792 26.4831 81.2448 26.2016C83.6974 23.496 92.3048 14.175 100.209 8.12256L100.6 8.63865C92.7422 14.6441 84.166 23.9339 81.729 26.6395C81.6041 26.7803 81.5416 26.9836 81.5572 27.1712C81.5885 27.3746 81.6978 27.5466 81.8696 27.6404L99.4907 38.5567L99.147 39.1197Z" fill="#1C2027"/>
<path d="M73.8243 43.843C72.8871 43.843 72.1216 43.0766 72.1216 42.1383C72.1216 41.1999 72.8871 40.4336 73.8243 40.4336C74.7616 40.4336 75.5271 41.1999 75.5271 42.1383C75.5271 43.0766 74.7773 43.843 73.8243 43.843ZM73.8243 41.0748C73.2463 41.0748 72.7621 41.544 72.7621 42.1383C72.7621 42.7169 73.2307 43.2018 73.8243 43.2018C74.4023 43.2018 74.8866 42.7326 74.8866 42.1383C74.8866 41.5596 74.418 41.0748 73.8243 41.0748Z" fill="#1C2027"/>
<path d="M171.725 50.9899C170.787 50.9899 170.022 50.2236 170.022 49.2852C170.022 48.3469 170.787 47.5806 171.725 47.5806C172.662 47.5806 173.427 48.3469 173.427 49.2852C173.427 50.2236 172.662 50.9899 171.725 50.9899ZM171.725 48.2218C171.147 48.2218 170.662 48.691 170.662 49.2852C170.662 49.8639 171.131 50.3487 171.725 50.3487C172.303 50.3487 172.787 49.8795 172.787 49.2852C172.787 48.691 172.303 48.2218 171.725 48.2218Z" fill="#1C2027"/>
<path d="M31.0372 189.977C27.7723 189.977 25.1479 189.523 24.9136 189.476L25.1479 188.194C25.2573 188.209 36.8172 190.242 41.488 185.707C46.2526 181.093 47.5804 172.711 47.596 172.633L48.877 172.836C48.8145 173.196 47.4554 181.735 42.3784 186.645C39.5978 189.335 34.8801 189.977 31.0372 189.977Z" fill="#1C2027"/>
</svg>
