<svg width="687" height="566" viewBox="0 0 687 566" fill="none" xmlns="http://www.w3.org/2000/svg">
<path d="M293.528 565.489C255.24 565.489 213.406 548.63 175.273 490.483C97.9469 372.578 47.5675 375.19 47.0676 375.221C46.8801 375.237 28.7279 376.519 15.2622 361.677C0.843488 345.788 -3.01503 318.216 3.79595 279.712C15.6371 212.9 78.7012 163.355 115.256 139.771C132.002 128.964 150.326 120.394 169.697 114.341C199.174 105.114 248.96 82.5311 251.225 34.8468C251.647 25.8542 255.334 18.5037 262.176 12.9831C284.343 -4.89268 336.409 -0.638797 376.182 6.07047C411.205 11.9821 445.26 26.2139 474.676 47.2175C481.924 52.3941 487.657 59.0565 493.218 65.4999C507.543 82.1088 519.9 96.4501 551.908 78.6525C559.594 74.383 572.935 80.3729 588.525 95.0738C636.889 140.694 688.8 249.199 646.793 337.342C647.075 338.218 649.309 342.957 666.352 351.903C686.675 362.569 680.427 390.485 680.364 390.766L680.255 391.017C680.13 391.22 667.164 410.894 671.366 425.298C672.928 430.615 676.662 434.619 682.504 437.168C685.035 438.279 686.378 440.578 686.394 443.815C686.456 460.111 653.026 499.71 602.522 522.277C543.848 548.489 479.862 523.654 476.581 522.34C474.269 522.23 440.214 520.917 395.349 537.385C390.538 539.152 385.149 541.357 379.462 543.688C356.452 553.134 326.287 565.489 293.528 565.489ZM47.6924 373.626C50.7386 373.626 62.8297 374.486 82.4659 386.7C102.993 399.462 135.985 427.675 176.601 489.607C246.648 596.408 329.427 562.502 378.884 542.249C384.586 539.918 389.976 537.698 394.834 535.93C441.417 518.821 476.472 520.776 476.831 520.792L477.081 520.854C477.722 521.12 542.598 547.363 601.913 520.854C651.855 498.537 684.926 459.72 684.863 443.831C684.847 441.219 683.863 439.467 681.911 438.607C675.631 435.854 671.585 431.522 669.898 425.736C665.617 411.082 677.677 392.158 678.911 390.282C679.349 388.217 684.207 363.022 665.664 353.279C645.794 342.847 645.231 337.765 645.231 337.233L645.309 336.889C687.206 249.403 635.577 141.538 587.494 96.1842C572.654 82.187 559.657 76.1346 552.705 79.9975C519.587 98.405 506.215 82.9064 492.062 66.5008C486.563 60.1356 480.893 53.5358 473.801 48.4843C444.588 27.6058 410.752 13.4679 375.947 7.60313C336.487 0.940779 284.905 -3.32875 263.191 14.1873C256.708 19.4108 253.225 26.3859 252.819 34.9094C250.491 83.532 200.049 106.475 170.196 115.827C150.966 121.848 132.767 130.34 116.146 141.085C79.8103 164.544 17.1211 213.761 5.38935 279.993C-1.34353 317.981 2.37439 345.1 16.4494 360.614C29.3996 374.892 46.8176 373.688 47.0051 373.673C47.0207 373.657 47.2707 373.626 47.6924 373.626Z" fill="#AECB3C"/>
</svg>
