<svg width="13" height="9" viewBox="0 0 13 9" fill="none" xmlns="http://www.w3.org/2000/svg">
<path d="M5.46579 8.9506C4.01299 8.9506 2.84138 8.48144 2.06031 7.55872C1.45107 6.83932 0.3732 5.35359 0.0763914 3.50815C-0.00171619 3.03897 0.154482 2.55413 0.498155 2.11622C1.02929 1.47501 1.96657 1.00585 2.77888 0.958931C2.85699 0.958931 2.95074 0.943276 3.04447 0.943276C3.90365 0.86508 5.32522 0.755627 7.49661 2.72618C8.96504 4.07116 10.2772 4.54034 11.0583 4.82184C11.6676 5.04079 12.1831 5.22848 12.0425 5.76021C11.7301 6.8706 9.52739 8.23121 7.23103 8.73167C6.59054 8.87243 6.01254 8.9506 5.46579 8.9506ZM3.6381 1.56884C3.43502 1.56884 3.24755 1.58451 3.09133 1.60015C2.98198 1.61579 2.88825 1.61576 2.79452 1.61576C2.16966 1.64703 1.40421 2.0224 0.998055 2.52286C0.84184 2.72617 0.654378 3.03894 0.701243 3.38301C0.966809 5.07205 1.96657 6.44833 2.54457 7.12083C3.77867 8.55964 5.91881 8.35632 7.0748 8.09045C9.18371 7.62128 11.0739 6.41705 11.3707 5.65073C11.2614 5.58817 11.027 5.50995 10.824 5.43175C9.99602 5.13461 8.60573 4.63416 7.04358 3.19534C5.49705 1.80344 4.41917 1.56884 3.6381 1.56884Z" fill="#1C2027"/>
</svg>
