<svg width="163" height="210" viewBox="0 0 163 210" fill="none" xmlns="http://www.w3.org/2000/svg">
<path d="M81.2175 133.918C55.1203 133.918 33.8936 112.634 33.8936 86.4667C33.8936 60.2991 55.1203 39.0151 81.2175 39.0151C107.315 39.0151 128.542 60.2991 128.542 86.4667C128.542 112.634 107.315 133.918 81.2175 133.918ZM81.2175 45.1541C58.4965 45.1541 40.016 63.6844 40.016 86.4667C40.016 109.249 58.4965 127.779 81.2175 127.779C103.939 127.779 122.419 109.249 122.419 86.4667C122.419 63.6925 103.939 45.1541 81.2175 45.1541Z" fill="#6556A0"/>
<path d="M81.2166 133.828V209.852H5.39648C5.39648 167.868 39.3447 133.828 81.2166 133.828Z" fill="#9F8CC2"/>
<path d="M157.045 209.852H81.2246V133.828C123.088 133.828 157.045 167.868 157.045 209.852Z" fill="#6556A0"/>
<path d="M81.2177 26.2272C79.9496 26.2272 78.9238 25.1986 78.9238 23.9271V3.15336C78.9238 1.88183 79.9496 0.853271 81.2177 0.853271C82.4858 0.853271 83.5117 1.88183 83.5117 3.15336V23.919C83.5117 25.1986 82.4858 26.2272 81.2177 26.2272Z" fill="#AECA3B"/>
<path d="M108.148 31.7015C107.736 31.7015 107.308 31.5881 106.936 31.3533C105.862 30.681 105.531 29.2556 106.209 28.1785L117.194 10.5714C117.865 9.49427 119.286 9.16222 120.36 9.84252C121.435 10.5147 121.766 11.9401 121.087 13.0173L110.102 30.6243C109.658 31.3209 108.907 31.7015 108.148 31.7015Z" fill="#AECA3B"/>
<path d="M129.091 48.3862C128.195 48.3862 127.338 47.8517 126.975 46.9689C126.49 45.7945 127.04 44.4501 128.211 43.9561L147.329 35.9624C148.501 35.4684 149.841 36.0272 150.334 37.2016C150.819 38.3759 150.269 39.7203 149.098 40.2144L129.98 48.208C129.689 48.3295 129.39 48.3862 129.091 48.3862Z" fill="#AECA3B"/>
<path d="M139.228 71.0869C138 71.0869 136.99 70.115 136.934 68.884C136.877 67.6125 137.863 66.5434 139.131 66.4867L159.825 65.6201C161.101 65.5796 162.159 66.5515 162.215 67.823C162.272 69.0946 161.287 70.1636 160.018 70.2203L139.325 71.0869C139.292 71.0869 139.26 71.0869 139.228 71.0869Z" fill="#AECA3B"/>
<path d="M23.2076 71.0869C23.1753 71.0869 23.143 71.0869 23.1107 71.0869L2.41707 70.2203C1.14896 70.1636 0.16355 69.0946 0.22009 67.823C0.27663 66.5515 1.33473 65.5796 2.61092 65.6201L23.3046 66.4867C24.5727 66.5434 25.5581 67.6125 25.5015 68.884C25.4531 70.115 24.4354 71.0869 23.2076 71.0869Z" fill="#AECA3B"/>
<path d="M33.3435 48.3862C33.0527 48.3862 32.7458 48.3295 32.4631 48.208L13.3445 40.2144C12.1733 39.7284 11.6241 38.3759 12.1087 37.2016C12.5933 36.0272 13.9422 35.4684 15.1134 35.9624L34.232 43.9561C35.4032 44.442 35.9524 45.7945 35.4678 46.9689C35.0963 47.8597 34.2401 48.3862 33.3435 48.3862Z" fill="#AECA3B"/>
<path d="M54.2964 31.7016C53.529 31.7016 52.7859 31.321 52.3498 30.6164L41.3648 13.0093C40.6944 11.9322 41.0175 10.5148 42.0918 9.83454C43.1661 9.16233 44.5876 9.48629 45.258 10.5634L56.2429 28.1705C56.9133 29.2476 56.5903 30.665 55.516 31.3453C55.1283 31.5882 54.7083 31.7016 54.2964 31.7016Z" fill="#AECA3B"/>
</svg>
