<svg width="72" height="99" viewBox="0 0 72 99" fill="none" xmlns="http://www.w3.org/2000/svg">
<path d="M69.8999 33.479C67.3692 30.8985 62.917 30.3824 59.0585 32.3686L39.1098 18.2619L39.7659 4.65575L32.4707 0.667725L21.8637 4.8747L1.74313 19.7008L1.96183 30.1009C-1.72485 40.4854 1.41509 57.9389 7.05446 63.96C13.0375 70.3721 20.5671 71.7797 22.7541 72.155C27.4405 72.9683 31.0804 72.9683 35.5169 71.6233C36.4073 71.3574 37.2196 72.2489 36.8916 73.109C35.3763 77.0658 32.0958 79.6932 32.0958 79.6932L20.9888 96.0519L38.0476 98.2727C38.0476 98.2727 64.9947 91.1881 56.5903 84.5414C48.1859 77.8947 49.6231 65.3988 49.6231 65.3988C49.6231 65.3988 49.5138 65.1799 49.3263 64.8671C54.2939 61.2857 54.294 55.7181 58.1837 50.0723C62.6046 50.8074 66.963 49.1965 69.4624 45.8653C71.8369 42.7062 73.321 36.9509 69.8999 33.479Z" fill="#F5A27D"/>
</svg>
