<svg width="3" height="4" viewBox="0 0 3 4" fill="none" xmlns="http://www.w3.org/2000/svg">
<path d="M1.6368 3.12725C1.58993 3.12725 1.55866 3.12725 1.5118 3.12725C1.19937 3.09597 0.918179 2.93959 0.730721 2.705C0.527641 2.47041 0.449528 2.15765 0.480771 1.84486C0.512014 1.53207 0.66826 1.25057 0.902582 1.06289C1.13691 0.859583 1.4337 0.765741 1.76175 0.812659C2.07418 0.843938 2.35537 1.00031 2.54282 1.2349C2.7459 1.48513 2.82402 1.78231 2.79277 2.09509C2.76153 2.40788 2.60533 2.68939 2.37101 2.87706C2.16793 3.03345 1.90236 3.12725 1.6368 3.12725ZM1.6368 1.43822C1.52745 1.43822 1.40249 1.48515 1.30876 1.54771C1.19941 1.64154 1.13688 1.76666 1.12126 1.89178C1.10564 2.01689 1.15251 2.15763 1.23062 2.2671C1.32435 2.37658 1.44932 2.43913 1.5743 2.45477C1.69927 2.47041 1.83985 2.42348 1.9492 2.34528C2.1679 2.17325 2.19917 1.84482 2.02733 1.61023C1.9336 1.50076 1.82425 1.43821 1.68366 1.42257C1.68366 1.43821 1.66804 1.43822 1.6368 1.43822Z" fill="#1C2027"/>
</svg>
