<svg width="43" height="35" viewBox="0 0 43 35" fill="none" xmlns="http://www.w3.org/2000/svg">
<path d="M41.5938 34.1849H39.7929V31.9624H40.4822V30.4288H42.7054V33.0736C42.7054 33.6737 42.1941 34.1849 41.5938 34.1849ZM35.3464 34.1849H30.8998V31.9624H35.3464V34.1849ZM26.4533 34.1849H22.0068V31.9624H26.4533V34.1849ZM17.5602 34.1849H13.1137V31.9624H17.5602V34.1849ZM8.66711 34.1849H4.22057V31.9624H8.66711V34.1849ZM2.53089 31.429H0.307617V26.9839H2.53089V31.429ZM42.7054 25.9615H40.4822V21.5165H42.7054V25.9615ZM2.53089 22.5388H0.307617V18.0938H2.53089V22.5388ZM42.7054 17.0714H40.4822V12.6263H42.7054V17.0714ZM2.53089 13.6487H0.307617V9.20362H2.53089V13.6487ZM42.7054 8.18124H40.4822V3.73617H42.7054V8.18124ZM2.53089 4.75855H0.307617V0.313477H2.53089V4.75855Z" fill="#1B2027"/>
</svg>
