<svg width="40" height="40" viewBox="0 0 40 40" fill="none" xmlns="http://www.w3.org/2000/svg">
<circle cx="20" cy="20" r="20" fill="#D4C4F6"/>
<path d="M28.2763 20C28.2763 20.2634 28.1717 20.516 27.9855 20.7022C27.7992 20.8885 27.5466 20.9931 27.2832 20.9931H20.9936V27.2827C20.9936 27.5461 20.8889 27.7987 20.7027 27.985C20.5165 28.1712 20.2639 28.2758 20.0005 28.2758C19.7371 28.2758 19.4845 28.1712 19.2982 27.985C19.112 27.7987 19.0074 27.5461 19.0074 27.2827V20.9931H12.7177C12.4543 20.9931 12.2017 20.8885 12.0155 20.7022C11.8292 20.516 11.7246 20.2634 11.7246 20C11.7246 19.7366 11.8292 19.484 12.0155 19.2978C12.2017 19.1115 12.4543 19.0069 12.7177 19.0069H19.0074V12.7172C19.0074 12.4538 19.112 12.2012 19.2982 12.015C19.4845 11.8288 19.7371 11.7241 20.0005 11.7241C20.2639 11.7241 20.5165 11.8288 20.7027 12.015C20.8889 12.2012 20.9936 12.4538 20.9936 12.7172V19.0069H27.2832C27.5466 19.0069 27.7992 19.1115 27.9855 19.2978C28.1717 19.484 28.2763 19.7366 28.2763 20Z" fill="#5E1EE5"/>
</svg>
