<svg width="376" height="219" viewBox="0 0 376 219" fill="none" xmlns="http://www.w3.org/2000/svg">
<path d="M138.954 32.6562C160.839 22.0371 166.401 -10.7585 217.217 5.42821C231.808 10.0731 244.742 19.6756 257.677 64.5291C259.13 64.7481 273.58 67.1565 280.235 80.4656C284.859 89.7241 282.875 98.5759 282.219 101.047C295.262 88.9578 315.242 90.4279 325.334 102.376C333.91 112.526 334.035 128.697 324.678 140.223C352.343 140.724 372.245 152.141 374.432 165.465C377.057 181.48 353.421 196.431 349.891 198.668C304.573 227.35 238.369 193.694 225.184 186.719C223.778 188.408 193.004 224.144 148.248 216.606C115.99 211.163 98.5719 186.969 95.182 182.074C92.87 183.497 58.1746 204.188 27.5252 187.392C23.8542 185.374 3.15565 174.036 0.999882 152.203C-0.156111 140.552 3.59305 122.285 18.246 115.685C29.3529 110.681 40.6161 115.138 43.4592 116.342C35.1798 103.659 37.4761 87.5189 47.4427 79.1519C54.9722 72.818 66.1104 71.5981 75.9676 75.8364C77.7797 60.7444 82.6379 41.5237 97.1972 33.3443C109.648 26.291 120.973 41.3829 138.954 32.6562Z" fill="white"/>
<path d="M160.761 218.436C156.684 218.436 152.466 218.107 148.108 217.372C118.599 212.399 101.368 192.224 94.9477 183.106C89.8082 186.109 56.5656 204.204 27.1347 188.064C19.6988 183.982 2.20273 172.331 0.203172 152.266C-1.14028 138.738 3.82736 121.3 17.9024 114.95C27.0878 110.822 36.4607 112.948 41.5846 114.763C34.7892 102.439 36.9294 86.9246 46.9115 78.542C54.3474 72.3019 65.3918 70.8318 75.2802 74.7103C78.0296 53.2688 85.2624 39.1309 96.7754 32.6406C102.883 29.1999 108.695 30.8107 114.865 32.5154C121.942 34.4703 129.268 36.4878 138.594 31.9524C144.827 28.934 149.67 24.1015 154.809 19.0031C167.635 6.24139 180.913 -6.94254 217.436 4.69311C233.542 9.82281 246.008 21.5366 258.271 63.8566C261.348 64.404 274.595 67.4849 280.906 80.1372C284.577 87.5033 284.202 94.7286 283.453 98.9512C289.686 93.9467 297.403 91.4913 305.416 91.9605C313.524 92.4609 320.991 96.0736 325.896 101.891C334.551 112.151 334.597 128.056 326.193 139.504C352.344 140.38 372.823 151.124 375.151 165.356C377.588 180.276 358.545 194.101 350.25 199.34C307.15 226.615 244.446 197.76 225.325 187.704C221.779 191.818 197.191 218.436 160.761 218.436ZM95.4007 181.011L95.8225 181.621C101.774 190.238 118.786 210.835 148.373 215.824C193.098 223.346 223.325 187.736 224.591 186.219L224.997 185.734L225.559 186.031C243.805 195.696 306.666 225.114 349.469 198.011C357.499 192.928 375.948 179.588 373.651 165.59C371.433 152.047 350.375 141.475 324.662 141.005L323.053 140.974L324.069 139.723C332.957 128.775 333.238 112.933 324.74 102.877C320.101 97.3873 313.04 93.9623 305.354 93.4931C296.965 92.9927 288.951 95.8703 282.75 101.61L280.781 103.424L281.453 100.828C282.281 97.6376 283.765 89.2861 279.516 80.794C273.096 67.9541 259.114 65.5144 257.552 65.2798L257.052 65.2016L256.912 64.7168C243.477 18.1272 229.808 10.2451 216.967 6.14756C181.335 -5.20659 168.416 7.64894 155.919 20.0822C150.685 25.2901 145.749 30.2008 139.282 33.3443C129.424 38.1299 121.473 35.9404 114.443 34.0012C108.335 32.3278 103.071 30.8733 97.5253 33.9855C86.2778 40.3194 79.2793 54.4105 76.6861 75.8989L76.5612 76.9311L75.6083 76.5245C66.001 72.3957 55.1284 73.6468 47.8957 79.7305C37.9604 88.0663 36.2889 103.956 44.0684 115.889L45.4743 118.047L43.0999 117.03C39.0851 115.31 28.65 111.807 18.5272 116.358C3.1244 123.286 0.812412 142.757 1.73408 152.094C3.65553 171.424 20.6517 182.715 27.8689 186.688C58.409 203.438 93.2762 182.309 94.7446 181.402L95.4007 181.011Z" fill="#4A4596"/>
</svg>
