<svg width="10" height="13" viewBox="0 0 10 13" fill="none" xmlns="http://www.w3.org/2000/svg">
<path d="M4.41747 12.7759C3.66764 12.7759 2.79283 11.9782 2.07424 10.6176C0.933874 8.4594 0.40276 5.33157 1.82432 3.22026C2.71475 1.90656 4.47997 0.655392 6.26083 1.04637C7.49493 1.31224 8.57281 2.26627 8.94773 3.42358C9.22892 4.28374 9.10395 5.1126 7.63553 7.99023C5.88592 11.4778 5.22979 12.7759 4.41747 12.7759ZM5.58909 1.62502C4.10504 1.62502 2.87095 2.86053 2.37106 3.57994C1.10571 5.45665 1.63686 8.38125 2.65226 10.3205C3.30836 11.5717 4.02694 12.1346 4.41747 12.1346C4.82363 12.1346 5.87029 10.0859 7.07315 7.70874C8.4166 5.05005 8.55719 4.29936 8.33849 3.64251C8.04168 2.71979 7.13563 1.9222 6.13585 1.70325C5.94839 1.64069 5.76092 1.62502 5.58909 1.62502Z" fill="#1C2027"/>
</svg>
