<svg width="161" height="290" viewBox="0 0 161 290" fill="none" xmlns="http://www.w3.org/2000/svg">
<path d="M0.369629 1.27399C0.369629 1.27399 48.4996 -3.91827 72.8691 9.03108L69.5573 26.4689C69.5573 26.4689 53.4203 6.34113 0.369629 1.27399Z" fill="#55595E"/>
<path d="M78.1807 62.8303C78.1807 62.8303 94.3802 63.0336 121.687 82.9268C121.687 82.9268 120.031 67.3657 115.61 56.95L78.1807 62.8303Z" fill="#55595E"/>
<path d="M45.0004 95.7353L29.4258 54.9324L40.767 122.87L45.0004 95.7353Z" fill="#55595E"/>
<path d="M130.341 287.536C130.341 287.536 146.353 285.331 159.959 275.697L160.865 282.062C160.865 282.062 144.822 287.583 130.341 287.536Z" fill="#55595E"/>
<path d="M4.88428 287.974C4.88428 287.974 25.0517 288.99 37.0334 285.581L36.7366 289.303C36.721 289.303 22.0367 289.96 4.88428 287.974Z" fill="#55595E"/>
<path d="M126.748 156.963C126.748 156.963 129.903 166.66 135.714 178.78C137.651 182.815 139.588 187.491 141.744 191.808C148.883 206.086 156.163 282.938 156.163 282.938L160.443 281.624C160.443 281.624 155.476 247.937 156.132 240.133C156.413 236.677 156.257 230.875 155.476 224.697C154.507 216.909 152.648 208.495 150.57 202.896C149.399 199.768 148.258 196.156 146.743 192.668C143.4 185.005 139.323 177.482 136.855 173.76C135.73 172.071 134.761 170.476 133.699 168.974C131.356 165.69 128.997 162.453 126.748 156.963Z" fill="#55595E"/>
</svg>
