<svg width="3" height="4" viewBox="0 0 3 4" fill="none" xmlns="http://www.w3.org/2000/svg">
<path d="M1.51254 3.02134C1.46567 3.02134 1.43443 3.02134 1.38756 3.02134C1.07513 2.99006 0.793943 2.83364 0.606484 2.59905C0.200325 2.09859 0.278433 1.36356 0.778322 0.956937C1.02827 0.753626 1.32508 0.659784 1.63751 0.706702C1.94994 0.737981 2.23113 0.894357 2.41859 1.12895C2.82475 1.6294 2.74664 2.36448 2.24675 2.7711C2.02805 2.94314 1.7781 3.02134 1.51254 3.02134ZM1.51254 1.33227C1.38756 1.33227 1.27823 1.37919 1.1845 1.44175C0.965796 1.61378 0.934548 1.94221 1.10638 2.1768C1.20011 2.28628 1.30947 2.34883 1.45006 2.36447C1.57503 2.38011 1.71561 2.33318 1.82496 2.25498C2.04366 2.08295 2.07491 1.75452 1.90307 1.51993C1.80934 1.41045 1.69999 1.3479 1.5594 1.33227C1.54378 1.3479 1.52816 1.33227 1.51254 1.33227Z" fill="#1C2027"/>
</svg>
