<svg width="243" height="243" viewBox="0 0 243 243" fill="none" xmlns="http://www.w3.org/2000/svg">
<path d="M136.951 0.595703C136.951 0.595703 142.262 0.924133 130.655 45.418C123.048 74.6009 124.703 105.363 126.75 123.067C127.703 131.293 129.921 139.301 133.217 146.901C138.591 159.225 147.136 182.981 146.902 208.771C146.902 208.771 145.902 225.036 153.869 229.024L156.368 240.409C156.634 241.644 157.852 242.426 159.086 242.161L211.575 230.681C213.527 230.259 215.027 228.664 215.293 226.678C215.902 222.158 216.027 213.697 210.669 200.982C210.669 200.982 255.362 183.216 239.1 135.078C224.869 92.9302 184.846 26.2911 161.711 7.50828C159.04 5.33441 154.088 3.16055 150.682 2.66009L136.951 0.595703Z" fill="#5E1EE5"/>
<path d="M121.907 2.26904C121.907 2.26904 124.86 4.47419 112.378 19.0813C111.707 19.8633 111.144 20.7234 110.691 21.6618C107.723 27.9332 96.5224 53.6911 96.8192 85.9394C96.8192 85.9394 97.4753 104.206 86.2122 136.736C86.2122 136.736 80.2448 170.267 81.2446 192.521C82.2443 214.76 76.2769 227.381 60.6866 223.737C61.9207 223.988 61.3583 232.104 60.9678 236.53C60.8428 237.985 59.39 238.939 57.9997 238.485L15.806 225.114C14.7594 224.785 13.822 224.113 13.2441 223.174C11.5882 220.469 9.77608 213.713 16.5714 199.168C26.1943 178.587 31.49 151.687 31.49 151.687C31.49 151.687 8.60447 142.726 3.29315 110.18C-1.23709 82.4518 0.9968 51.3296 1.74663 42.7436C1.85598 41.4924 2.94949 40.6792 4.18359 40.9138C9.35431 41.8834 22.7732 43.7132 36.442 40.1162C37.6449 39.8034 38.8634 40.6166 38.9571 41.8678L40.0975 56.3967C40.0975 56.3967 45.0651 57.0536 47.7208 72.6616C47.7364 72.646 67.1852 24.8366 121.907 2.26904Z" fill="#5E1EE5"/>
</svg>
