<svg width="10" height="69" viewBox="0 0 10 69" fill="none" xmlns="http://www.w3.org/2000/svg">
<path d="M9.44691 0.202393H7.22363V2.42493H9.44691V0.202393Z" fill="#1B2027"/>
<path d="M9.44691 21.8723H7.22363V17.0049H9.44691V21.8723ZM9.44691 12.1376H7.22363V7.27026H9.44691V12.1376Z" fill="#1B2027"/>
<path d="M8.33558 30.0733H6.1123V27.8508H7.22394V26.7395H9.44721V28.962C9.44721 29.5621 8.95809 30.0733 8.33558 30.0733Z" fill="#1B2027"/>
<path d="M2.24378 31.1846H0.0205078V28.9621C0.0205078 28.3398 0.509628 27.8508 1.13214 27.8508H3.35542V30.0734H2.24378V31.1846Z" fill="#1B2027"/>
<path d="M2.24378 61.2555H0.0205078V56.2548H2.24378V61.2555ZM2.24378 51.2319H0.0205078V46.2312H2.24378V51.2319ZM2.24378 41.186H0.0205078V36.1853H2.24378V41.186Z" fill="#1B2027"/>
<path d="M2.24378 66.2561H0.0205078V68.4786H2.24378V66.2561Z" fill="#1B2027"/>
</svg>
