<svg width="1823" height="302" viewBox="0 0 1823 302" fill="none" xmlns="http://www.w3.org/2000/svg">
<path d="M0.190218 61.6601L11.7426 65.7273L15.8098 54.1749L4.25737 50.1077L0.190218 61.6601ZM328.391 90.7754L329.056 89.4312L328.391 90.7754ZM1477.5 68.7477L1478.64 69.7168L1477.5 68.7477ZM1822.48 63.6612L1821.74 51.436L1809.52 52.1736L1810.26 64.3988L1822.48 63.6612ZM8.64824 59.2702C62.3641 33.5283 174.541 16.2572 327.725 92.1196L329.056 89.4312C175.167 13.2197 62.0149 30.3689 7.35176 56.5648L8.64824 59.2702ZM327.725 92.1196C423.81 139.704 465.892 143.865 505.898 136.339C545.752 128.843 582.684 110.051 669.696 111.8L669.756 108.8C582.345 107.043 544.57 126.012 505.343 133.391C466.267 140.742 424.892 136.893 329.056 89.4312L327.725 92.1196ZM669.696 111.8C712.966 112.669 754.063 127.952 795.296 149.585C836.578 171.244 877.748 199.123 921.407 225.19C1008.59 277.248 1105.1 321.674 1228.74 291.927L1228.04 289.011C1105.58 318.473 1009.96 274.567 922.945 222.615C879.504 196.677 838.054 168.631 796.689 146.928C755.275 125.2 713.696 109.684 669.756 108.8L669.696 111.8ZM1228.74 291.927C1351.97 262.281 1399.46 224.711 1423.66 185.195C1435.71 165.514 1441.92 145.412 1448.88 125.953C1455.85 106.451 1463.58 87.5058 1478.64 69.7168L1476.35 67.7787C1460.93 85.9982 1453.05 105.371 1446.05 124.943C1439.04 144.557 1432.94 164.281 1421.1 183.628C1397.51 222.165 1350.92 259.448 1228.04 289.011L1228.74 291.927ZM1478.64 69.7168C1507.65 35.4412 1566.08 10.0069 1630.26 4.57762C1694.39 -0.847613 1763.88 13.7373 1815.01 59.04L1816.99 56.7948C1765.09 10.7988 1694.7 -3.88458 1630 1.5883C1565.36 7.05714 1506.05 32.6873 1476.35 67.7787L1478.64 69.7168Z" fill="#5E1EE5"/>
</svg>
