<svg width="240" height="240" viewBox="0 0 240 240" fill="none" xmlns="http://www.w3.org/2000/svg">
<path d="M195.618 218.223H120.01V38.7271L209.817 105.513V204.016C209.817 211.865 203.459 218.223 195.618 218.223Z" fill="#C0D56B"/>
<path d="M44.3922 218.223H120.001V38.7271L30.1934 105.522V204.024C30.1934 211.865 36.5519 218.223 44.3922 218.223Z" fill="#AECA3B"/>
<path d="M153.292 159.455H135.147C133.717 159.455 132.557 158.295 132.557 156.864V138.72C132.557 137.289 133.717 136.129 135.147 136.129H153.292C154.723 136.129 155.883 137.289 155.883 138.72V156.864C155.883 158.287 154.723 159.455 153.292 159.455Z" fill="white"/>
<path d="M100.518 218.223H63.4336V150.125C63.4336 148.829 64.4835 147.78 65.7789 147.78H98.1898C99.4852 147.78 100.535 148.829 100.535 150.125V218.223H100.518Z" fill="white"/>
<path d="M185.643 159.455H167.499C166.068 159.455 164.908 158.295 164.908 156.864V138.72C164.908 137.289 166.068 136.129 167.499 136.129H185.643C187.074 136.129 188.234 137.289 188.234 138.72V156.864C188.243 158.287 187.083 159.455 185.643 159.455Z" fill="white"/>
<path d="M120 21.7766V41.1063L21.7516 114.166C20.3715 115.199 18.7374 115.707 17.1372 115.707C14.758 115.707 12.4127 114.624 10.9056 112.575C8.34865 109.137 9.05986 104.269 12.4974 101.72L120 21.7766Z" fill="#9F8CC2"/>
<path d="M120 21.7766V41.1063L218.249 114.158C219.629 115.191 221.263 115.699 222.863 115.699C225.242 115.699 227.588 114.615 229.095 112.566C231.652 109.129 230.941 104.26 227.503 101.712L120 21.7766Z" fill="#4A4595"/>
</svg>
