<svg width="218" height="218" viewBox="0 0 218 218" fill="none" xmlns="http://www.w3.org/2000/svg">
<path d="M107.177 39.9912V198.35H75.8915V157.551C75.8915 152.567 73.6382 147.868 69.7851 144.708C56.5802 133.879 48.1436 117.444 48.1436 99.0326C48.1359 66.4318 74.5687 39.9912 107.177 39.9912Z" fill="#D6E29A"/>
<path d="M107.177 39.9912V198.35H138.462V157.551C138.462 152.567 140.716 147.868 144.569 144.708C157.774 133.879 166.21 117.444 166.21 99.0326C166.218 66.4318 139.785 39.9912 107.177 39.9912Z" fill="#C0D56B"/>
<path d="M120.758 103.14C119.72 102.102 118.028 102.102 116.99 103.14L106.9 113.23L97.3557 103.686C96.3175 102.648 94.6255 102.648 93.5873 103.686C92.549 104.724 92.549 106.416 93.5873 107.454L104.231 118.106V163.735C104.231 165.204 105.423 166.396 106.892 166.396C108.361 166.396 109.553 165.204 109.553 163.735V118.106L120.743 106.916C121.804 105.87 121.804 104.178 120.758 103.14Z" fill="#4A4595"/>
<path d="M138.471 164.611H75.8916V198.35H138.471V164.611Z" fill="#4A4595"/>
<path d="M138.471 190.736H75.8916V198.358H138.471V190.736Z" fill="#6556A0"/>
<path d="M138.471 164.611H75.8916V172.233H138.471V164.611Z" fill="#6556A0"/>
<path d="M138.471 175.363H75.8916V179.716H138.471V175.363Z" fill="#6556A0"/>
<path d="M138.471 183.046H75.8916V187.399H138.471V183.046Z" fill="#6556A0"/>
<path d="M127.058 198.351C123.297 205.48 115.806 210.333 107.185 210.333C98.5637 210.333 91.073 205.488 87.2969 198.351H127.058Z" fill="#4A4595"/>
<path d="M96.7949 47.8057C74.3612 55.0195 57.634 74.9691 55.1345 99.164C54.9192 97.3875 54.8115 95.5725 54.8115 93.7421C54.8192 69.6626 73.2692 49.8898 96.7949 47.8057Z" fill="white"/>
<path d="M107.177 29.8706C105.708 29.8706 104.516 28.6785 104.516 27.2096V10.3363C104.516 8.86735 105.708 7.67529 107.177 7.67529C108.646 7.67529 109.838 8.86735 109.838 10.3363V27.2096C109.838 28.6785 108.646 29.8706 107.177 29.8706Z" fill="#AECA3B"/>
<path d="M132.172 33.7237C130.957 32.8931 130.657 31.2319 131.488 30.0168L141.055 16.1197C141.885 14.9046 143.546 14.6047 144.762 15.4353C145.977 16.2659 146.277 17.927 145.446 19.1422L135.879 33.0392C135.041 34.2467 133.387 34.5543 132.172 33.7237Z" fill="#AECA3B"/>
<path d="M157.866 49.728C156.897 48.6206 157.005 46.9363 158.112 45.9673L170.794 34.8466C171.902 33.8776 173.586 33.9852 174.555 35.0927C175.524 36.2001 175.416 37.8844 174.309 38.8534L161.627 49.9741C160.52 50.9509 158.843 50.8355 157.866 49.728Z" fill="#AECA3B"/>
<path d="M60.1331 49.7279C61.1022 48.6205 60.9945 46.9362 59.887 45.9672L47.1974 34.8541C46.0899 33.8851 44.4057 33.9928 43.4367 35.1002C42.4676 36.2077 42.5753 37.892 43.6828 38.861L56.3724 49.9817C57.4799 50.9507 59.1641 50.8354 60.1331 49.7279Z" fill="#AECA3B"/>
<path d="M82.1054 33.7237C83.3205 32.8931 83.6204 31.2319 82.7898 30.0168L73.2226 16.1197C72.392 14.9046 70.7309 14.6047 69.5157 15.4353C68.3006 16.2659 68.0007 17.927 68.8313 19.1422L78.3985 33.0392C79.2291 34.2467 80.8902 34.5543 82.1054 33.7237Z" fill="#AECA3B"/>
</svg>
