<svg width="187" height="48" viewBox="0 0 187 48" fill="none" xmlns="http://www.w3.org/2000/svg">
<path d="M1.42033 11.1152H10.8468C11.1148 11.1152 11.3637 11.2537 11.5059 11.4819C13.9035 15.3286 18.5818 22.7425 19.667 24.422C20.7672 26.1247 21.9363 25.2208 22.3488 24.5481L28.5508 14.5804C28.8744 14.0603 28.5022 13.3856 27.8918 13.3856H24.0943C23.8218 13.3856 23.5693 13.5289 23.4287 13.7632L20.1287 19.2614C19.843 19.7373 19.168 19.7697 18.8386 19.3231L18.2648 18.5453C18.0737 18.2862 18.0607 17.9358 18.2322 17.6633L22.1201 11.4791C22.2625 11.2526 22.5105 11.1152 22.7772 11.1152H32.0868C32.6822 11.1152 33.056 11.76 32.7594 12.2787C30.4254 16.3615 26.2427 23.416 23.9992 26.2509C21.5237 29.3788 19.2544 27.9537 18.0853 26.5031L10.0623 13.7492C9.91982 13.5228 9.67184 13.3856 9.40527 13.3856H5.81102C5.19893 13.3856 4.82704 14.0634 5.15387 14.5835L16.2054 32.1663C16.5066 32.6456 17.1997 32.6529 17.5108 32.18L18.9504 29.9922C19.1262 29.725 19.106 29.4839 19.4074 29.5881C20.03 29.8036 21.1447 30.9057 20.7944 31.4659L17.5684 36.6233C17.2651 37.1081 16.563 37.111 16.2557 36.6288L0.765749 12.3172C0.434584 11.7974 0.806091 11.1152 1.42033 11.1152Z" fill="#5E1EE5"/>
<path d="M35.5743 37.0284V11.3137H53.892V13.8118H38.3897V22.8119H48.5173V25.2731H38.3897V34.5304H54.0382V37.0284H35.5743ZM59.5669 37.0284V11.3137H70.5354C72.2173 11.3137 73.6798 11.6199 74.9228 12.2321C76.166 12.8444 77.1287 13.7015 77.8112 14.8036C78.5181 15.9057 78.8715 17.2036 78.8715 18.6975C78.8715 20.3874 78.372 21.8445 77.3725 23.0691C76.3975 24.2691 75.0813 25.114 73.4238 25.6037L79.164 37.0284H76.0563L70.572 25.9711H62.3821V37.0284H59.5669ZM62.3821 23.5833H70.3527C72.0832 23.5833 73.4604 23.1424 74.4841 22.2609C75.5323 21.3792 76.0563 20.1914 76.0563 18.6975C76.0563 17.2281 75.5323 16.0526 74.4841 15.171C73.4604 14.2893 72.0832 13.8485 70.3527 13.8485H62.3821V23.5833ZM84.5947 37.0284V11.3137H87.4099V37.0284H84.5947ZM97.3346 34.457H103.111C104.598 34.457 105.975 34.1998 107.243 33.6856C108.51 33.1713 109.619 32.4488 110.57 31.5182C111.521 30.5875 112.252 29.4976 112.764 28.2487C113.3 26.9997 113.568 25.6405 113.568 24.1711C113.568 22.7017 113.3 21.3424 112.764 20.0935C112.252 18.8445 111.521 17.7546 110.57 16.824C109.619 15.8935 108.51 15.171 107.243 14.6567C105.975 14.1424 104.598 13.8851 103.111 13.8851H97.3346V34.457ZM94.5193 37.0284V11.3137H102.965C104.915 11.3137 106.707 11.6321 108.34 12.2689C109.973 12.9056 111.387 13.7994 112.581 14.9505C113.8 16.1015 114.738 17.4607 115.396 19.0281C116.079 20.5955 116.42 22.3098 116.42 24.1711C116.42 26.0323 116.091 27.7466 115.433 29.314C114.775 30.8814 113.836 32.2406 112.618 33.3917C111.423 34.5427 109.997 35.4366 108.34 36.0734C106.707 36.7101 104.915 37.0284 102.965 37.0284H94.5193ZM122.296 37.0284V11.3137H125.112V37.0284H122.296ZM144.214 37.4324C142.362 37.4324 140.631 37.1019 139.022 36.4406C137.437 35.7549 136.036 34.812 134.817 33.612C133.623 32.3875 132.684 30.9793 132.002 29.3875C131.344 27.7711 131.015 26.0323 131.015 24.1711C131.015 22.3098 131.344 20.5833 132.002 18.9914C132.684 17.375 133.623 15.9668 134.817 14.7668C136.036 13.5424 137.437 12.5995 139.022 11.9383C140.631 11.2525 142.362 10.9097 144.214 10.9097C146.042 10.9097 147.748 11.2525 149.332 11.9383C150.94 12.5995 152.342 13.5424 153.537 14.7668C154.755 15.9668 155.695 17.375 156.352 18.9914C157.035 20.5833 157.376 22.3098 157.376 24.1711C157.376 26.0323 157.035 27.7711 156.352 29.3875C155.695 30.9793 154.755 32.3875 153.537 33.612C152.342 34.812 150.94 35.7549 149.332 36.4406C147.748 37.1019 146.042 37.4324 144.214 37.4324ZM144.214 34.8243C145.676 34.8243 147.028 34.5549 148.272 34.0161C149.515 33.4774 150.599 32.7304 151.526 31.7753C152.476 30.7957 153.208 29.6568 153.719 28.3589C154.256 27.0609 154.523 25.665 154.523 24.1711C154.523 22.6527 154.256 21.2567 153.719 19.9832C153.208 18.6853 152.476 17.5588 151.526 16.6036C150.599 15.624 149.515 14.8648 148.272 14.3261C147.028 13.7872 145.676 13.5179 144.214 13.5179C142.751 13.5179 141.386 13.7872 140.119 14.3261C138.875 14.8648 137.778 15.624 136.828 16.6036C135.902 17.5588 135.17 18.6853 134.634 19.9832C134.122 21.2567 133.866 22.6405 133.866 24.1344C133.866 25.6527 134.122 27.0609 134.634 28.3589C135.17 29.6568 135.902 30.7957 136.828 31.7753C137.778 32.7304 138.875 33.4774 140.119 34.0161C141.386 34.5549 142.751 34.8243 144.214 34.8243ZM163.247 37.0284V11.3137H166.063L181.456 32.1793V11.3137H184.124V37.0284H181.638L165.917 15.6118V37.0284H163.247Z" fill="#5E1EE5"/>
</svg>
