<svg width="240" height="240" viewBox="0 0 240 240" fill="none" xmlns="http://www.w3.org/2000/svg">
<path d="M38.3105 15.1133C38.3105 15.1133 87.4603 18.7455 120.007 61.8416V104.768C119.998 104.768 53.1952 105.293 38.3105 15.1133Z" fill="#AECA3B"/>
<path d="M38.3113 15.1133C38.015 20.4389 36.7619 52.0116 61.1548 77.6491C83.6849 101.322 114.013 104.497 119.999 104.768V99.1124C107.638 84.5495 102.938 78.6566 90.5769 64.0937C88.0707 61.1388 75.8531 48.4386 72.9575 45.8647L38.3113 15.1133Z" fill="#C0D56B"/>
<path d="M201.696 15.1133C201.696 15.1133 152.546 18.7455 120 61.8416V104.768C120 104.768 186.812 105.293 201.696 15.1133Z" fill="#C0D56B"/>
<path d="M201.696 15.1133C201.992 20.4389 203.245 52.0116 178.852 77.6491C156.322 101.322 125.994 104.497 120.008 104.768V99.1124C132.369 84.5495 137.068 78.6566 149.43 64.0937C151.936 61.1388 164.154 48.4386 167.049 45.8647L201.696 15.1133Z" fill="#AECA3B"/>
<path d="M84.3624 224.887H120.008V111.694H51.1133L69.2576 212.271C70.5785 219.578 76.937 224.887 84.3624 224.887Z" fill="#9F8CC2"/>
<path d="M155.645 224.887H120V111.694H188.886L170.742 212.271C169.421 219.578 163.062 224.887 155.645 224.887Z" fill="#4A4595"/>
<path d="M48.7001 99.1208H120.007V111.694H48.7001C46.5326 111.694 44.7715 109.933 44.7715 107.765V103.041C44.7715 100.873 46.5326 99.1208 48.7001 99.1208Z" fill="#D6E29A"/>
<path d="M191.307 99.1208H120V111.694H191.307C193.475 111.694 195.236 109.933 195.236 107.765V103.041C195.236 100.873 193.475 99.1208 191.307 99.1208Z" fill="#C0D56B"/>
</svg>
