<svg width="240" height="240" viewBox="0 0 240 240" fill="none" xmlns="http://www.w3.org/2000/svg">
<path d="M172.554 122.185H67.4555C63.2814 122.185 59.2596 120.423 56.4232 117.358C53.5869 114.293 52.156 110.145 52.4862 105.979C56.4656 56.1096 85.4898 18.5085 120.009 18.5085C154.52 18.5085 183.535 56.1181 187.506 105.979C187.837 110.145 186.406 114.293 183.569 117.358C180.741 120.423 176.728 122.185 172.554 122.185ZM120.017 27.6442C90.3074 27.6442 65.1949 61.63 61.5965 106.707C61.461 108.358 62.0113 109.942 63.1374 111.161C64.2635 112.38 65.796 113.049 67.4555 113.049H172.554C174.213 113.049 175.746 112.38 176.872 111.161C177.998 109.942 178.548 108.358 178.413 106.707C174.815 61.63 149.71 27.6442 120.017 27.6442Z" fill="#6556A0"/>
<path d="M204.219 221.5H35.7892C29.1004 221.5 23.6816 216.081 23.6816 209.393V88.2919C23.6816 81.6031 29.1004 76.1843 35.7892 76.1843H204.219C210.908 76.1843 216.327 81.6031 216.327 88.2919V209.393C216.318 216.081 210.9 221.5 204.219 221.5Z" fill="#9F8CC2"/>
<path d="M204.219 144.173H35.7892C29.1004 144.173 23.6816 138.754 23.6816 132.065V88.2835C23.6816 81.5948 29.1004 76.176 35.7892 76.176H204.219C210.908 76.176 216.327 81.5948 216.327 88.2835V132.065C216.318 138.754 210.9 144.173 204.219 144.173Z" fill="#4A4595"/>
<g opacity="0.5">
<path d="M216.141 113.049L216.327 202.831C216.327 213.143 207.97 221.5 197.675 221.5H81.8828L216.141 113.049Z" fill="#9F8CC2" style="mix-blend-mode:multiply"/>
</g>
<path d="M137.788 156.882H102.219C100.153 156.882 98.5357 155.12 98.6966 153.063C99.9581 137.196 109.026 124.885 120.008 124.885C130.997 124.885 140.048 137.196 141.31 153.063C141.471 155.112 139.854 156.882 137.788 156.882Z" fill="white"/>
<path d="M132.506 152.123H107.504C106.047 152.123 104.913 150.887 105.023 149.439C105.912 138.28 112.279 129.627 120.001 129.627C127.723 129.627 134.09 138.28 134.979 149.439C135.097 150.887 133.954 152.123 132.506 152.123Z" fill="#D6E29A"/>
<path d="M134.986 149.448C135.105 150.887 133.953 152.123 132.505 152.123H120V129.635H120.017C127.73 129.635 134.097 138.288 134.986 149.448Z" fill="#AECA3B"/>
</svg>
