<svg width="240" height="240" viewBox="0 0 240 240" fill="none" xmlns="http://www.w3.org/2000/svg">
<path d="M119.999 20.7544V223.213C64.093 223.213 18.7617 177.881 18.7617 121.975C18.7617 66.0857 64.093 20.7544 119.999 20.7544Z" fill="#6556A0"/>
<path d="M120 20.7544V223.213C175.906 223.213 221.238 177.881 221.238 121.975C221.238 66.0857 175.915 20.7544 120 20.7544Z" fill="#4A4595"/>
<path d="M120 189.616C157.353 189.616 187.633 159.336 187.633 121.983C187.633 84.6308 157.353 54.3506 120 54.3506C82.6474 54.3506 52.3672 84.6308 52.3672 121.983C52.3672 159.336 82.6474 189.616 120 189.616Z" fill="#FDFDFC"/>
<path d="M140.015 121.941C136.891 118.969 132.2 116.776 125.672 115.252V101.951C128.415 103.246 130.888 105.541 133.021 108.809L134.215 110.638L143.96 100.554L142.953 99.2161C138.203 92.9338 132.395 89.0814 125.672 87.7436V77.2363H116.392V87.4642C113.006 87.913 109.941 88.8951 107.265 90.3937C104.116 92.1633 101.592 94.5509 99.7721 97.5059C97.9433 100.495 97.0119 103.907 97.0119 107.632C97.0119 113.169 98.7561 117.674 102.194 121.01C105.25 123.99 109.881 126.242 115.952 127.707V142.71C111.88 141.593 108.442 139.069 105.47 135.065L104.234 133.388L94.7852 143.421L95.7758 144.742C98.4259 148.247 101.643 151.058 105.352 153.073C108.595 154.826 112.151 155.978 115.952 156.486V166.722H125.147V156.486C128.754 155.986 131.997 154.928 134.791 153.327C138.067 151.456 140.65 148.967 142.453 145.928C144.274 142.854 145.197 139.323 145.197 135.42C145.213 129.764 143.461 125.226 140.015 121.941ZM130.811 135.971C130.811 137.926 130.21 139.476 128.983 140.712C128.034 141.652 126.756 142.346 125.156 142.769V129.959C127.535 130.78 128.745 131.585 129.364 132.169C130.354 133.117 130.811 134.328 130.811 135.971ZM111.245 107.277C111.245 105.6 111.837 104.22 113.048 103.069C113.954 102.213 115.055 101.595 116.401 101.206V113.195C114.758 112.611 113.531 111.916 112.726 111.137C111.719 110.172 111.245 108.911 111.245 107.277Z" fill="#AECA3B"/>
</svg>
