<svg width="137" height="35" viewBox="0 0 137 35" fill="none" xmlns="http://www.w3.org/2000/svg">
<path d="M1.04103 8.10498H7.94708C8.14338 8.10498 8.32574 8.20598 8.42993 8.37235C10.1864 11.1772 13.6138 16.5832 14.4089 17.8078C15.2149 19.0494 16.0714 18.3903 16.3736 17.8998L20.9173 10.6317C21.1544 10.2524 20.8817 9.76044 20.4345 9.76044H17.6524C17.4528 9.76044 17.2678 9.86491 17.1648 10.0358L14.7471 14.0449C14.5378 14.3919 14.0433 14.4155 13.802 14.0899L13.3816 13.5227C13.2416 13.3338 13.2321 13.0783 13.3577 12.8796L16.2061 8.37029C16.3104 8.20513 16.4921 8.10498 16.6875 8.10498H23.5079C23.9441 8.10498 24.2179 8.57512 24.0006 8.95337C22.2907 11.9304 19.2264 17.0743 17.5827 19.1414C15.7691 21.4222 14.1066 20.383 13.2501 19.3253L7.37228 10.0256C7.26793 9.86053 7.08626 9.76044 6.89096 9.76044H4.25774C3.80931 9.76044 3.53686 10.2547 3.7763 10.6339L11.8728 23.4547C12.0935 23.8042 12.6013 23.8095 12.8292 23.4647L13.8839 21.8694C14.0127 21.6746 13.9979 21.4988 14.2187 21.5748C14.6748 21.7319 15.4915 22.5355 15.2348 22.944L12.8714 26.7046C12.6492 27.0581 12.1348 27.0602 11.9097 26.7086L0.561477 8.98138C0.318859 8.60238 0.591032 8.10498 1.04103 8.10498Z" fill="#1C2027"/>
<path d="M26.0625 27V8.24972H39.4824V10.0712H28.1251V16.6338H35.5448V18.4284H28.1251V25.1785H39.5895V27H26.0625ZM43.6399 27V8.24972H51.6757C52.9079 8.24972 53.9793 8.47294 54.89 8.91938C55.8008 9.36581 56.5061 9.99082 57.0061 10.7944C57.524 11.598 57.7829 12.5444 57.7829 13.6337C57.7829 14.8659 57.4169 15.9284 56.6847 16.8213C55.9704 17.6963 55.0061 18.3124 53.7918 18.6695L57.9972 27H55.7204L51.7025 18.9374H45.7024V27H43.6399ZM45.7024 17.1963H51.5418C52.8096 17.1963 53.8186 16.8748 54.5686 16.232C55.3365 15.5891 55.7204 14.723 55.7204 13.6337C55.7204 12.5623 55.3365 11.7051 54.5686 11.0623C53.8186 10.4194 52.8096 10.098 51.5418 10.098H45.7024V17.1963ZM61.9758 27V8.24972H64.0383V27H61.9758ZM71.3093 25.125H75.5415C76.6308 25.125 77.6397 24.9375 78.5683 24.5625C79.4969 24.1875 80.3094 23.6607 81.0059 22.9821C81.7023 22.3035 82.238 21.5088 82.613 20.5981C83.0059 19.6874 83.2023 18.6963 83.2023 17.6249C83.2023 16.5534 83.0059 15.5623 82.613 14.6516C82.238 13.7409 81.7023 12.9462 81.0059 12.2676C80.3094 11.5891 79.4969 11.0623 78.5683 10.6873C77.6397 10.3123 76.6308 10.1247 75.5415 10.1247H71.3093V25.125ZM69.2468 27V8.24972H75.4344C76.8629 8.24972 78.1755 8.48187 79.3719 8.94616C80.5684 9.41045 81.6041 10.0622 82.4791 10.9015C83.372 11.7408 84.0595 12.7319 84.5416 13.8748C85.0416 15.0177 85.2916 16.2677 85.2916 17.6249C85.2916 18.982 85.0506 20.232 84.5684 21.3749C84.0863 22.5178 83.3988 23.5089 82.5059 24.3482C81.6309 25.1875 80.5862 25.8393 79.3719 26.3036C78.1755 26.7679 76.8629 27 75.4344 27H69.2468ZM89.5969 27V8.24972H91.6594V27H89.5969ZM105.654 27.2946C104.297 27.2946 103.029 27.0536 101.85 26.5714C100.689 26.0714 99.6625 25.3839 98.7697 24.5089C97.8946 23.616 97.2071 22.5892 96.7071 21.4285C96.225 20.2499 95.9839 18.982 95.9839 17.6249C95.9839 16.2677 96.225 15.0088 96.7071 13.848C97.2071 12.6694 97.8946 11.6426 98.7697 10.7676C99.6625 9.87475 100.689 9.18724 101.85 8.70509C103.029 8.20508 104.297 7.95508 105.654 7.95508C106.993 7.95508 108.243 8.20508 109.404 8.70509C110.582 9.18724 111.609 9.87475 112.484 10.7676C113.377 11.6426 114.065 12.6694 114.547 13.848C115.047 15.0088 115.297 16.2677 115.297 17.6249C115.297 18.982 115.047 20.2499 114.547 21.4285C114.065 22.5892 113.377 23.616 112.484 24.5089C111.609 25.3839 110.582 26.0714 109.404 26.5714C108.243 27.0536 106.993 27.2946 105.654 27.2946ZM105.654 25.3928C106.725 25.3928 107.716 25.1964 108.627 24.8035C109.538 24.4107 110.332 23.866 111.011 23.1696C111.707 22.4553 112.243 21.6249 112.618 20.6785C113.011 19.732 113.207 18.7142 113.207 17.6249C113.207 16.5177 113.011 15.4998 112.618 14.5712C112.243 13.6248 111.707 12.8034 111.011 12.1069C110.332 11.3926 109.538 10.839 108.627 10.4462C107.716 10.0533 106.725 9.85689 105.654 9.85689C104.582 9.85689 103.582 10.0533 102.654 10.4462C101.743 10.839 100.939 11.3926 100.243 12.1069C99.5643 12.8034 99.0286 13.6248 98.6357 14.5712C98.2607 15.4998 98.0732 16.5088 98.0732 17.5981C98.0732 18.7052 98.2607 19.732 98.6357 20.6785C99.0286 21.6249 99.5643 22.4553 100.243 23.1696C100.939 23.866 101.743 24.4107 102.654 24.8035C103.582 25.1964 104.582 25.3928 105.654 25.3928ZM119.598 27V8.24972H121.661L132.938 23.4642V8.24972H134.893V27H133.072L121.554 11.3837V27H119.598Z" fill="#1C2027"/>
</svg>
