<svg width="121" height="100" viewBox="0 0 121 100" fill="none" xmlns="http://www.w3.org/2000/svg">
<path d="M1.78174 0H39.9425C40.2948 0 40.6151 0.17525 40.7955 0.477861C49.2264 14.6159 66.6661 43.4745 70.6467 49.9064C74.5989 56.2925 78.7982 52.9024 80.2803 50.3795L104.328 10.0268C104.725 9.36019 104.245 8.51484 103.469 8.51484H85.5522C85.1943 8.51484 84.8636 8.70614 84.6852 9.01645L70.9329 32.9385C70.5689 33.5718 69.6707 33.6138 69.2492 33.0172L64.8481 26.7875C64.6191 26.4634 64.6034 26.0346 64.8081 25.6946L79.9888 0.484147C80.1697 0.183712 80.4947 0 80.8454 0H118.374C119.131 0 119.615 0.805424 119.254 1.47086C111.317 16.0954 94.8025 45.4283 86.2087 56.7656C77.3161 68.4971 69.1646 63.1517 64.9653 57.7117L35.6149 8.99876C35.434 8.69845 35.109 8.51484 34.7584 8.51484H17.5783C16.8003 8.51484 16.3203 9.36409 16.7215 10.0306L59.6818 81.3924C60.0658 82.0304 60.9875 82.0398 61.3845 81.4098L68.6987 69.804C68.9655 69.3806 69.5044 69.2146 69.9787 69.3742C71.1168 69.7569 73.319 70.3249 75.7524 70.0378C76.7472 69.9205 77.787 71.1651 77.2721 72.0244L61.616 98.1576C61.2295 98.8026 60.2962 98.8064 59.9045 98.1646L0.92813 1.52091C0.521481 0.854543 1.0011 0 1.78174 0Z" fill="#1C2027"/>
</svg>
