<svg width="240" height="240" viewBox="0 0 240 240" fill="none" xmlns="http://www.w3.org/2000/svg">
<path d="M120 16.0869H31.4795V135.401C31.4795 184.288 71.1126 223.922 120 223.922C168.887 223.922 208.52 184.288 208.52 135.401V16.0869H120Z" fill="#AECA3B"/>
<path d="M120 41.0979H52.79V131.684C52.79 168.803 82.8811 198.894 120 198.894C157.118 198.894 187.209 168.803 187.209 131.684V41.0979H120Z" fill="white"/>
<path d="M138.906 111.533C135.79 108.57 131.108 106.385 124.597 104.861V91.5937C127.332 92.8807 129.796 95.1752 131.921 98.4264L133.115 100.255L142.835 90.1967L141.827 88.8674C137.086 82.602 131.294 78.758 124.597 77.4203V66.9553H115.343V77.1578C111.965 77.6066 108.908 78.5802 106.241 80.0873C103.1 81.8484 100.585 84.2361 98.7649 87.1825C96.9446 90.1628 96.0132 93.5665 96.0132 97.2834C96.0132 102.804 97.7489 107.3 101.186 110.627C104.234 113.599 108.849 115.843 114.911 117.307V132.268C110.847 131.151 107.418 128.644 104.455 124.648L103.218 122.972L93.7949 132.979L94.7855 134.292C97.4272 137.789 100.636 140.591 104.336 142.606C107.57 144.359 111.118 145.502 114.903 146.01V156.221H124.072V146.01C127.671 145.51 130.896 144.452 133.69 142.86C136.959 140.998 139.533 138.508 141.336 135.477C143.148 132.412 144.071 128.89 144.071 124.995C144.088 119.339 142.344 114.818 138.906 111.533ZM129.728 125.529C129.728 127.476 129.135 129.025 127.908 130.253C126.968 131.193 125.689 131.879 124.089 132.311V119.534C126.46 120.347 127.671 121.151 128.28 121.736C129.271 122.684 129.728 123.895 129.728 125.529ZM110.212 96.9109C110.212 95.2344 110.805 93.8628 112.007 92.7198C112.904 91.8647 114.014 91.2466 115.351 90.8656V102.821C113.717 102.236 112.49 101.542 111.685 100.763C110.686 99.7981 110.212 98.545 110.212 96.9109Z" fill="#5E1EE5"/>
<path d="M124.403 156.526H114.607V146.281C110.881 145.747 107.385 144.604 104.201 142.877C100.467 140.845 97.2245 138.017 94.5489 134.478L93.3975 132.954L103.261 122.481L104.718 124.453C107.545 128.272 110.788 130.693 114.607 131.845V117.553C108.612 116.071 104.023 113.819 100.975 110.847C97.4785 107.452 95.7089 102.888 95.7089 97.275C95.7089 93.4988 96.6487 90.0443 98.5029 87.0132C100.34 84.0244 102.897 81.6029 106.089 79.808C108.714 78.3347 111.72 77.3441 115.03 76.8785V66.6421H124.911V77.1748C131.574 78.5718 137.357 82.4411 142.082 88.6896L143.25 90.2306L133.073 100.763L131.667 98.6043C129.695 95.5901 127.426 93.4057 124.919 92.1018V104.616C131.363 106.148 136.011 108.341 139.127 111.304C142.632 114.649 144.41 119.255 144.41 124.987C144.41 128.932 143.47 132.514 141.624 135.63C139.796 138.712 137.179 141.235 133.869 143.123C131.109 144.698 127.925 145.756 124.403 146.272V156.526ZM115.233 155.899H123.776V145.73L124.047 145.697C127.595 145.206 130.795 144.156 133.556 142.581C136.773 140.744 139.313 138.297 141.083 135.316C142.869 132.302 143.775 128.822 143.775 124.995C143.775 119.441 142.065 114.996 138.686 111.77C135.613 108.841 130.982 106.69 124.53 105.175L124.284 105.115V91.1027L124.733 91.3144C127.527 92.6267 130.033 94.972 132.192 98.2656L133.166 99.7642L142.429 90.1883L141.582 89.0707C136.891 82.8729 131.159 79.0629 124.538 77.7421L124.284 77.6913V67.2686H115.657V77.4288L115.386 77.4627C112.05 77.9029 109.027 78.8766 106.402 80.3498C103.304 82.094 100.831 84.4393 99.0448 87.335C97.2499 90.2729 96.3439 93.6089 96.3439 97.2665C96.3439 102.702 98.0542 107.113 101.416 110.39C104.421 113.32 108.993 115.538 114.996 116.994L115.233 117.053V132.675L114.835 132.565C110.704 131.43 107.232 128.898 104.218 124.826L103.21 123.454L94.2272 132.996L95.057 134.097C97.6732 137.569 100.857 140.329 104.506 142.318C107.698 144.046 111.22 145.18 114.971 145.688L115.242 145.722V155.899H115.233ZM123.776 132.717V119.094L124.191 119.238C126.68 120.093 127.908 120.948 128.501 121.515C129.551 122.523 130.042 123.793 130.042 125.529C130.042 127.569 129.415 129.186 128.128 130.473C127.146 131.455 125.817 132.167 124.166 132.607L123.776 132.717ZM124.403 119.983V131.896C125.758 131.481 126.867 130.854 127.688 130.033C128.856 128.865 129.415 127.391 129.415 125.529C129.415 123.979 128.983 122.845 128.061 121.964C127.553 121.482 126.503 120.745 124.403 119.983ZM115.657 103.261L115.233 103.109C113.565 102.516 112.295 101.796 111.457 100.983L111.364 100.882C110.373 99.8828 109.899 98.5789 109.899 96.9024C109.899 95.1413 110.517 93.6935 111.796 92.4828C112.736 91.5853 113.87 90.9503 115.267 90.5523L115.665 90.4338V103.261H115.657ZM111.991 100.628C112.693 101.28 113.718 101.856 115.03 102.364V91.289C113.921 91.6615 112.998 92.2034 112.219 92.9484C111.076 94.0322 110.526 95.3276 110.526 96.9109C110.526 98.4603 110.975 99.6457 111.897 100.535L111.991 100.628Z" fill="#4A4595"/>
<g opacity="0.15">
<path d="M208.529 16.0869H120V223.922C168.887 223.922 208.52 184.288 208.52 135.401V16.0869H208.529Z" fill="#6556A0"/>
</g>
</svg>
