<svg width="240" height="240" viewBox="0 0 240 240" fill="none" xmlns="http://www.w3.org/2000/svg">
<path d="M120.001 16.0869H31.4805V135.401C31.4805 184.288 71.1136 223.922 120.001 223.922C168.888 223.922 208.521 184.288 208.521 135.401V16.0869H120.001Z" fill="#AECA3B"/>
<path d="M120 41.0979H52.791V131.684C52.791 168.803 82.882 198.894 120 198.894C157.119 198.894 187.21 168.803 187.21 131.684V41.0979H120Z" fill="white"/>
<path d="M142.506 112.939C139.39 109.975 134.708 107.791 128.197 106.267V92.9994C130.932 94.2863 133.395 96.5808 135.521 99.8321L136.714 101.661L146.434 91.6023L145.427 90.2731C140.685 84.0076 134.894 80.1637 128.197 78.8259V68.361H118.943V78.5635C115.564 79.0122 112.508 79.9859 109.841 81.493C106.7 83.2541 104.185 85.6417 102.365 88.5882C100.544 91.5685 99.6128 94.9721 99.6128 98.689C99.6128 104.209 101.349 108.705 104.786 112.033C107.834 115.005 112.449 117.248 118.511 118.713V133.674C114.447 132.556 111.018 130.05 108.054 126.054L106.818 124.377L97.3945 134.385L98.3851 135.697C101.027 139.194 104.236 141.997 107.936 144.012C111.17 145.764 114.718 146.907 118.502 147.416V157.626H127.672V147.407C131.27 146.908 134.496 145.849 137.29 144.257C140.558 142.395 143.132 139.905 144.936 136.874C146.748 133.809 147.67 130.287 147.67 126.392C147.696 120.745 145.943 116.224 142.506 112.939ZM133.328 126.934C133.328 128.882 132.735 130.431 131.507 131.659C130.567 132.599 129.289 133.284 127.689 133.716V120.94C130.059 121.753 131.27 122.557 131.88 123.141C132.87 124.089 133.328 125.3 133.328 126.934ZM113.812 98.3165C113.812 96.6401 114.404 95.2685 115.607 94.1254C116.504 93.2703 117.613 92.6522 118.951 92.2712V104.226C117.317 103.642 116.089 102.948 115.285 102.169C114.286 101.212 113.812 99.9506 113.812 98.3165Z" fill="#4A4595"/>
<g opacity="0.15">
<path d="M208.529 16.0869H120V223.922C168.887 223.922 208.52 184.288 208.52 135.401V16.0869H208.529Z" fill="#6556A0"/>
</g>
</svg>
