<svg width="240" height="240" viewBox="0 0 240 240" fill="none" xmlns="http://www.w3.org/2000/svg">
<path d="M62.6118 223.049L57.4724 218.325C56.812 217.715 56.7697 216.691 57.3793 216.03L71.8152 200.333L79.3422 207.25L64.9063 222.948C64.2967 223.617 63.2722 223.659 62.6118 223.049Z" fill="#4A4595"/>
<path d="M175.018 223.049L180.157 218.325C180.817 217.715 180.86 216.691 180.25 216.03L165.814 200.333L158.287 207.25L172.723 222.956C173.333 223.617 174.357 223.659 175.018 223.049Z" fill="#6556A0"/>
<path d="M130.744 25.3412C129.753 20.3204 125.325 16.5188 120.008 16.5188C114.64 16.5188 110.169 20.3966 109.246 25.4936C109.06 26.5266 109.915 27.4579 110.965 27.4579H117.561V38.7526H122.438V27.4664H129.05C130.159 27.4664 130.955 26.4334 130.744 25.3412Z" fill="#4A4595"/>
<path d="M73.2614 43.1936L62.7275 49.4326L69.877 61.5036L80.4108 55.2646L73.2614 43.1936Z" fill="#4A4595"/>
<path d="M59.3266 37.8128C62.7074 37.8128 65.4481 35.0721 65.4481 31.6913C65.4481 28.3105 62.7074 25.5698 59.3266 25.5698C55.9458 25.5698 53.2051 28.3105 53.2051 31.6913C53.2051 35.0721 55.9458 37.8128 59.3266 37.8128Z" fill="#4A4595"/>
<path d="M92.7023 33.427L68.7582 47.6089L59.3262 31.6913L76.2767 21.6497C80.7556 18.9996 86.5385 20.4813 89.1971 24.9602L93.1595 31.649C93.5236 32.267 93.3204 33.0629 92.7023 33.427Z" fill="#4A4595"/>
<path d="M44.8142 61.7909L68.7584 47.609L59.3263 31.6914L42.3843 41.7246C37.9053 44.3747 36.4236 50.166 39.0737 54.6449L43.0362 61.3337C43.4003 61.9518 44.1962 62.155 44.8142 61.7909Z" fill="#6556A0"/>
<path d="M158.641 55.2637L169.175 61.5027L176.324 49.4317L165.79 43.1927L158.641 55.2637Z" fill="#6556A0"/>
<path d="M179.707 37.8128C183.088 37.8128 185.829 35.0721 185.829 31.6913C185.829 28.3105 183.088 25.5698 179.707 25.5698C176.327 25.5698 173.586 28.3105 173.586 31.6913C173.586 35.0721 176.327 37.8128 179.707 37.8128Z" fill="#6556A0"/>
<path d="M146.34 33.427L170.284 47.6089L179.716 31.6913L162.766 21.6497C158.287 18.9996 152.504 20.4813 149.845 24.9602L145.883 31.649C145.519 32.267 145.722 33.0629 146.34 33.427Z" fill="#6556A0"/>
<path d="M194.228 61.7909L170.284 47.609L179.716 31.6914L196.667 41.733C201.146 44.3831 202.627 50.1744 199.977 54.6534L196.015 61.3421C195.642 61.9518 194.846 62.155 194.228 61.7909Z" fill="#4A4595"/>
<path d="M120 36.9324V222.567C68.7416 222.567 27.1865 181.004 27.1865 129.754C27.1865 78.479 68.7416 36.9324 120 36.9324Z" fill="#6556A0"/>
<path d="M120 36.9324V222.567C171.258 222.567 212.813 181.004 212.813 129.754C212.822 78.479 171.258 36.9324 120 36.9324Z" fill="#4A4595"/>
<path d="M119.999 208.766C163.641 208.766 199.02 173.387 199.02 129.745C199.02 86.1034 163.641 50.7246 119.999 50.7246C76.3573 50.7246 40.9785 86.1034 40.9785 129.745C40.9785 173.387 76.3573 208.766 119.999 208.766Z" fill="white"/>
<path d="M120 133.945C119.339 133.945 118.662 133.784 118.035 133.454C115.995 132.37 115.216 129.83 116.308 127.79L142.707 78.1741C143.791 76.1336 146.331 75.3547 148.372 76.4469C150.412 77.5306 151.191 80.0707 150.099 82.1112L123.7 131.727C122.946 133.132 121.498 133.945 120 133.945Z" fill="#AECA3B"/>
<path d="M150.742 133.936H117.917C115.605 133.936 113.726 132.057 113.726 129.745C113.726 127.434 115.605 125.554 117.917 125.554H150.742C153.054 125.554 154.934 127.434 154.934 129.745C154.934 132.057 153.054 133.936 150.742 133.936Z" fill="#AECA3B"/>
<path d="M120 140.524C125.953 140.524 130.778 135.698 130.778 129.745C130.778 123.793 125.953 118.967 120 118.967C114.047 118.967 109.222 123.793 109.222 129.745C109.222 135.698 114.047 140.524 120 140.524Z" fill="#4A4595"/>
</svg>
