<svg width="31" height="33" viewBox="0 0 31 33" fill="none" xmlns="http://www.w3.org/2000/svg">
<path d="M14.5179 1.11746C14.7256 0.0354226 16.2744 0.0354259 16.4821 1.11747L18.6221 12.2688C18.6964 12.6559 18.9912 12.9633 19.3748 13.0537L29.8694 15.5267C30.897 15.7688 30.897 17.2312 29.8694 17.4733L19.3748 19.9463C18.9912 20.0367 18.6964 20.3441 18.6221 20.7312L16.4821 31.8825C16.2744 32.9646 14.7256 32.9646 14.5179 31.8825L12.3779 20.7312C12.3036 20.3441 12.0088 20.0367 11.6252 19.9463L1.13056 17.4733C0.103045 17.2312 0.103047 15.7688 1.13056 15.5267L11.6252 13.0537C12.0088 12.9633 12.3036 12.6559 12.3779 12.2688L14.5179 1.11746Z" fill="#5E1EE5"/>
</svg>
