<svg width="84" height="93" viewBox="0 0 84 93" fill="none" xmlns="http://www.w3.org/2000/svg">
<path d="M41.0175 1.18495C41.2231 0.0998621 42.7769 0.0998592 42.9825 1.18495L49.7708 37.008C49.8441 37.3951 50.1379 37.703 50.5211 37.7945L82.9241 45.5273C83.948 45.7716 83.948 47.2284 82.9241 47.4727L50.5211 55.2055C50.1379 55.297 49.8441 55.6049 49.7708 55.992L42.9825 91.815C42.7769 92.9001 41.2231 92.9001 41.0175 91.815L34.2292 55.992C34.1559 55.6049 33.8621 55.297 33.4789 55.2055L1.07587 47.4727C0.0520358 47.2284 0.0520363 45.7716 1.07587 45.5273L33.4789 37.7945C33.8621 37.703 34.1559 37.3951 34.2292 37.008L41.0175 1.18495Z" fill="#D4C4F6"/>
</svg>
