<svg width="31" height="31" viewBox="0 0 31 31" fill="none" xmlns="http://www.w3.org/2000/svg">
<path d="M14.5198 0.858768C14.7356 -0.21088 16.2645 -0.210881 16.4803 0.858766L18.6159 11.4443C18.6939 11.8312 18.9923 12.136 19.3774 12.2224L29.6467 14.5242C30.6884 14.7577 30.6884 16.2423 29.6467 16.4758L19.3774 18.7776C18.9923 18.864 18.6939 19.1688 18.6159 19.5557L16.4803 30.1412C16.2645 31.2109 14.7356 31.2109 14.5198 30.1412L12.3841 19.5557C12.3061 19.1688 12.0077 18.864 11.6226 18.7776L1.3533 16.4758C0.311598 16.2423 0.311596 14.7577 1.3533 14.5242L11.6226 12.2224C12.0077 12.136 12.3061 11.8312 12.3841 11.4443L14.5198 0.858768Z" fill="#D4C4F6"/>
</svg>
