<svg width="43" height="45" viewBox="0 0 43 45" fill="none" xmlns="http://www.w3.org/2000/svg">
<path d="M20.5188 0.990806C20.7304 -0.0853114 22.2696 -0.0853097 22.4812 0.990808L25.6713 17.2166C25.7474 17.6037 26.0439 17.9098 26.4283 17.9983L41.7631 21.5254C42.7975 21.7634 42.7975 23.2366 41.7631 23.4746L26.4283 27.0017C26.0439 27.0902 25.7474 27.3963 25.6713 27.7834L22.4812 44.0092C22.2696 45.0853 20.7304 45.0853 20.5188 44.0092L17.3287 27.7834C17.2526 27.3963 16.9561 27.0902 16.5717 27.0017L1.23693 23.4746C0.202477 23.2366 0.202482 21.7634 1.23693 21.5254L16.5717 17.9983C16.9561 17.9098 17.2526 17.6037 17.3287 17.2166L20.5188 0.990806Z" fill="#A883F4"/>
</svg>
