<svg width="102" height="102" viewBox="0 0 102 102" fill="none" xmlns="http://www.w3.org/2000/svg">
<path d="M50.0046 1.32118C50.1209 0.115838 51.8791 0.115828 51.9954 1.32117L54.9984 32.4591C55.0871 33.3797 56.2706 33.6968 56.8078 32.944L74.9774 7.47919C75.6807 6.49346 77.2034 7.37258 76.7014 8.47456L63.7331 36.9423C63.3497 37.7839 64.2161 38.6503 65.0577 38.2669L93.5254 25.2986C94.6274 24.7966 95.5066 26.3193 94.5208 27.0226L69.056 45.1922C68.3032 45.7294 68.6203 46.9129 69.5409 47.0016L100.679 50.0046C101.884 50.1209 101.884 51.8791 100.679 51.9954L69.5409 54.9984C68.6203 55.0871 68.3032 56.2706 69.056 56.8078L94.5208 74.9774C95.5065 75.6807 94.6274 77.2034 93.5254 76.7014L65.0577 63.7331C64.2161 63.3497 63.3497 64.2161 63.7331 65.0577L76.7014 93.5254C77.2034 94.6274 75.6807 95.5066 74.9774 94.5208L56.8078 69.056C56.2706 68.3032 55.0871 68.6203 54.9984 69.5409L51.9954 100.679C51.8791 101.884 50.1209 101.884 50.0046 100.679L47.0016 69.5409C46.9129 68.6203 45.7294 68.3032 45.1922 69.056L27.0226 94.5208C26.3193 95.5065 24.7966 94.6274 25.2986 93.5254L38.2669 65.0577C38.6503 64.2161 37.7839 63.3497 36.9423 63.7331L8.47457 76.7014C7.3726 77.2034 6.49345 75.6807 7.47918 74.9774L32.944 56.8078C33.6968 56.2706 33.3797 55.0871 32.4591 54.9984L1.32118 51.9954C0.115838 51.8791 0.115828 50.1209 1.32117 50.0046L32.4591 47.0016C33.3797 46.9129 33.6968 45.7294 32.944 45.1922L7.47919 27.0226C6.49346 26.3193 7.37258 24.7966 8.47456 25.2986L36.9423 38.2669C37.7839 38.6503 38.6503 37.7839 38.2669 36.9423L25.2986 8.47457C24.7966 7.3726 26.3193 6.49345 27.0226 7.47918L45.1922 32.944C45.7294 33.6968 46.9129 33.3797 47.0016 32.4591L50.0046 1.32118Z" fill="#E8E0FB"/>
</svg>
