<svg width="26" height="26" viewBox="0 0 26 26" fill="none" xmlns="http://www.w3.org/2000/svg">
<path d="M12.0219 1.59963C12.2464 0.54363 13.7536 0.543627 13.9781 1.59962L15.6707 9.55913C15.7529 9.94537 16.0546 10.2471 16.4409 10.3293L24.4004 12.0219C25.4564 12.2464 25.4564 13.7536 24.4004 13.9781L16.4409 15.6707C16.0546 15.7529 15.7529 16.0546 15.6707 16.4409L13.9781 24.4004C13.7536 25.4564 12.2464 25.4564 12.0219 24.4004L10.3293 16.4409C10.2471 16.0546 9.94537 15.7529 9.55913 15.6707L1.59963 13.9781C0.54363 13.7536 0.543627 12.2464 1.59962 12.0219L9.55913 10.3293C9.94537 10.2471 10.2471 9.94537 10.3293 9.55913L12.0219 1.59963Z" fill="#5E1EE5"/>
</svg>
