<svg width="49" height="51" viewBox="0 0 49 51" fill="none" xmlns="http://www.w3.org/2000/svg">
<path d="M23.5073 1.15968C23.6499 -0.0126294 25.3501 -0.0126356 25.4927 1.15968L27.0883 14.2753C27.1917 15.125 28.2454 15.4605 28.821 14.827L37.603 5.16285C38.3952 4.29111 39.78 5.2672 39.2253 6.30631L32.9603 18.0418C32.5631 18.7859 33.2089 19.6573 34.0364 19.4937L46.8365 16.9635C47.9869 16.7361 48.5218 18.3332 47.4664 18.8445L35.587 24.6001C34.835 24.9644 34.835 26.0356 35.587 26.3999L47.4664 32.1555C48.5218 32.6668 47.9869 34.2639 46.8365 34.0365L34.0364 31.5063C33.2089 31.3427 32.5631 32.2141 32.9603 32.9582L39.2253 44.6937C39.78 45.7328 38.3952 46.7089 37.603 45.8372L28.821 36.173C28.2454 35.5395 27.1917 35.875 27.0883 36.7247L25.4927 49.8403C25.3501 51.0126 23.6499 51.0126 23.5073 49.8403L21.9117 36.7247C21.8083 35.875 20.7546 35.5395 20.179 36.173L11.397 45.8372C10.6048 46.7089 9.22001 45.7328 9.77473 44.6937L16.0397 32.9582C16.4369 32.2141 15.7911 31.3427 14.9636 31.5063L2.16354 34.0365C1.01308 34.2639 0.478231 32.6668 1.5336 32.1555L13.413 26.3999C14.165 26.0356 14.165 24.9644 13.413 24.6001L1.5336 18.8445C0.478231 18.3332 1.01308 16.7361 2.16354 16.9635L14.9636 19.4937C15.7911 19.6573 16.4369 18.7859 16.0397 18.0418L9.77473 6.3063C9.22 5.26719 10.6048 4.2911 11.397 5.16284L20.179 14.827C20.7546 15.4605 21.8083 15.125 21.9117 14.2753L23.5073 1.15968Z" fill="#E3D5FF"/>
</svg>
