<svg width="53" height="58" viewBox="0 0 53 58" fill="none" xmlns="http://www.w3.org/2000/svg">
<path d="M25.8589 1.42762C26.0675 0.346988 27.6141 0.346985 27.8227 1.42762L31.8912 22.5052C31.9659 22.8924 32.2611 23.1994 32.645 23.2894L52.185 27.8672C53.2141 28.1083 53.2141 29.5733 52.1849 29.8145L32.645 34.3923C32.2611 34.4822 31.9659 34.7893 31.8912 35.1764L27.8227 56.254C27.6141 57.3347 26.0675 57.3347 25.8589 56.254L21.7904 35.1764C21.7157 34.7893 21.4205 34.4822 21.0367 34.3923L1.49669 29.8145C0.467491 29.5733 0.467496 28.1083 1.49669 27.8672L21.0367 23.2894C21.4205 23.1994 21.7157 22.8924 21.7904 22.5052L25.8589 1.42762Z" fill="#5E1EE5"/>
</svg>
