<svg width="51" height="51" viewBox="0 0 51 51" fill="none" xmlns="http://www.w3.org/2000/svg">
<path d="M24.507 1.32141C24.6473 0.146061 26.3527 0.146059 26.493 1.32141L28.2756 16.2604C28.3687 17.0406 29.2839 17.4136 29.8958 16.9207L41.4454 7.61696C42.3638 6.87714 43.5817 8.05875 42.8701 8.99915L33.7599 21.0378C33.296 21.6509 33.6686 22.5364 34.4313 22.6333L49.1901 24.508C50.3554 24.656 50.3554 26.344 49.1901 26.492L34.4313 28.3667C33.6686 28.4636 33.296 29.3491 33.7599 29.9622L42.8701 42.0008C43.5817 42.9413 42.3638 44.1229 41.4454 43.383L29.8958 34.0793C29.2839 33.5864 28.3687 33.9594 28.2756 34.7396L26.493 49.6786C26.3527 50.8539 24.6473 50.8539 24.507 49.6786L22.7244 34.7396C22.6313 33.9594 21.7161 33.5864 21.1042 34.0793L9.55465 43.383C8.63625 44.1229 7.41827 42.9413 8.12991 42.0009L17.2401 29.9622C17.704 29.3491 17.3314 28.4636 16.5687 28.3667L1.8099 26.492C0.644576 26.344 0.644581 24.656 1.8099 24.508L16.5687 22.6333C17.3314 22.5364 17.704 21.6509 17.2401 21.0378L8.12991 8.99915C7.41827 8.05875 8.63624 6.87714 9.55464 7.61696L21.1042 16.9207C21.7161 17.4136 22.6313 17.0406 22.7244 16.2604L24.507 1.32141Z" fill="#EBE3FE"/>
</svg>
