<svg width="53" height="57" viewBox="0 0 53 57" fill="none" xmlns="http://www.w3.org/2000/svg">
<path d="M25.5181 1.0868C25.7267 0.00616741 27.2733 0.00616455 27.4819 1.0868L31.5504 22.1644C31.6251 22.5515 31.9203 22.8586 32.3041 22.9485L51.8441 27.5264C52.8733 27.7675 52.8733 29.2325 51.8441 29.4736L32.3041 34.0515C31.9203 34.1414 31.6251 34.4485 31.5504 34.8356L27.4819 55.9132C27.2733 56.9938 25.7267 56.9938 25.5181 55.9132L21.4496 34.8356C21.3749 34.4485 21.0797 34.1414 20.6959 34.0515L1.15587 29.4736C0.126671 29.2325 0.126676 27.7675 1.15587 27.5264L20.6959 22.9485C21.0797 22.8586 21.3749 22.5515 21.4496 22.1644L25.5181 1.0868Z" fill="#5E1EE5"/>
</svg>
