<svg width="51" height="54" viewBox="0 0 51 54" fill="none" xmlns="http://www.w3.org/2000/svg">
<path d="M24.5061 0.970189C24.6376 -0.216307 26.3625 -0.216297 26.4939 0.970198L28.2797 17.0868C28.3684 17.888 29.32 18.2603 29.9289 17.7321L41.6052 7.60266C42.4966 6.82939 43.7572 7.96747 43.0787 8.93296L33.6612 22.3351C33.2306 22.948 33.6017 23.7993 34.3439 23.9008L49.7571 26.0092C50.9098 26.1669 50.9098 27.8331 49.7571 27.9908L34.3439 30.0992C33.6017 30.2007 33.2306 31.052 33.6612 31.6649L43.0787 45.067C43.7572 46.0325 42.4966 47.1706 41.6052 46.3973L29.9289 36.2679C29.32 35.7397 28.3684 36.112 28.2797 36.9132L26.4939 53.0298C26.3625 54.2163 24.6375 54.2163 24.5061 53.0298L22.7203 36.9132C22.6316 36.112 21.68 35.7397 21.0711 36.2679L9.39478 46.3973C8.50342 47.1706 7.24284 46.0325 7.92128 45.067L17.3388 31.6649C17.7694 31.052 17.3983 30.2007 16.6561 30.0992L1.24287 27.9908C0.0902477 27.8331 0.0902468 26.1669 1.24287 26.0092L16.6561 23.9008C17.3983 23.7993 17.7694 22.948 17.3388 22.3351L7.92128 8.93296C7.24284 7.96747 8.50342 6.82939 9.39478 7.60265L21.0711 17.7321C21.68 18.2603 22.6316 17.888 22.7203 17.0868L24.5061 0.970189Z" fill="#AFE638"/>
</svg>
