<svg width="28" height="28" viewBox="0 0 28 28" fill="none" xmlns="http://www.w3.org/2000/svg">
<path d="M13.0219 1.59962C13.2464 0.543627 14.7536 0.543626 14.9781 1.59962L16.8461 10.3838C16.9283 10.77 17.23 11.0718 17.6162 11.1539L26.4004 13.0219C27.4564 13.2464 27.4564 14.7536 26.4004 14.9781L17.6162 16.8461C17.23 16.9283 16.9283 17.23 16.8461 17.6162L14.9781 26.4004C14.7536 27.4564 13.2464 27.4564 13.0219 26.4004L11.1539 17.6162C11.0718 17.23 10.77 16.9283 10.3838 16.8461L1.59962 14.9781C0.543627 14.7536 0.543626 13.2464 1.59962 13.0219L10.3838 11.1539C10.77 11.0718 11.0718 10.77 11.1539 10.3838L13.0219 1.59962Z" fill="#AFE638"/>
</svg>
