<svg width="51" height="57" viewBox="0 0 51 57" fill="none" xmlns="http://www.w3.org/2000/svg">
<path d="M24.5042 1.79217C24.616 0.581337 26.3841 0.581345 26.4958 1.79217L27.9202 17.2296C28.0023 18.1198 29.122 18.4631 29.689 17.772L39.2693 6.0955C40.0366 5.16028 41.4957 6.13716 40.9234 7.20292L33.4732 21.076C33.0654 21.8355 33.7454 22.7207 34.5843 22.5223L49.2299 19.0593C50.3958 18.7836 50.9721 20.4183 49.8911 20.9347L35.9447 27.5977C35.1861 27.9601 35.1861 29.0399 35.9447 29.4023L49.8911 36.0653C50.9721 36.5817 50.3958 38.2164 49.2299 37.9407L34.5843 34.4777C33.7454 34.2793 33.0654 35.1645 33.4732 35.924L40.9234 49.7971C41.4957 50.8629 40.0366 51.8397 39.2693 50.9045L29.689 39.228C29.122 38.5369 28.0023 38.8802 27.9202 39.7704L26.4958 55.2078C26.3841 56.4187 24.616 56.4187 24.5042 55.2078L23.0799 39.7704C22.9977 38.8802 21.878 38.5369 21.311 39.228L11.7307 50.9045C10.9634 51.8397 9.50431 50.8628 10.0766 49.7971L17.5268 35.924C17.9347 35.1645 17.2546 34.2793 16.4157 34.4777L1.77014 37.9407C0.604203 38.2164 0.0278859 36.5817 1.10894 36.0653L15.0553 29.4023C15.8139 29.0399 15.8139 27.9601 15.0553 27.5977L1.10893 20.9347C0.0278763 20.4183 0.604192 18.7836 1.77013 19.0593L16.4157 22.5223C17.2546 22.7207 17.9347 21.8355 17.5268 21.076L10.0766 7.20292C9.50431 6.13715 10.9634 5.16029 11.7307 6.09551L21.311 17.772C21.878 18.4631 22.9977 18.1198 23.0799 17.2296L24.5042 1.79217Z" fill="#A883F4"/>
</svg>
