<svg width="58" height="64" viewBox="0 0 58 64" fill="none" xmlns="http://www.w3.org/2000/svg">
<path d="M28.0174 1.19823C28.2226 0.112549 29.7774 0.112545 29.9826 1.19823L34.4913 25.0508C34.5645 25.4379 34.8581 25.7459 35.2413 25.8376L56.9347 31.0274C57.9578 31.2722 57.9578 32.7278 56.9347 32.9726L35.2413 38.1624C34.8581 38.2541 34.5645 38.5621 34.4913 38.9492L29.9826 62.8018C29.7774 63.8875 28.2226 63.8875 28.0174 62.8018L23.5087 38.9492C23.4355 38.5621 23.1419 38.2541 22.7587 38.1624L1.06526 32.9726C0.0421538 32.7278 0.0421538 31.2722 1.06526 31.0274L22.7587 25.8376C23.1419 25.7459 23.4355 25.4379 23.5087 25.0508L28.0174 1.19823Z" fill="#AFE638"/>
</svg>
