<svg width="37" height="41" viewBox="0 0 37 41" fill="none" xmlns="http://www.w3.org/2000/svg">
<path d="M31.4516 0.609671C32.2533 -0.147983 33.5111 0.759854 33.0446 1.7594L25.3836 18.1729C25.2169 18.53 25.2755 18.9517 25.5333 19.2498L36.5653 32.0115C37.2547 32.809 36.4005 33.9925 35.4264 33.5894L19.8393 27.1392C19.4751 26.9885 19.0565 27.0657 18.77 27.3364L5.60554 39.7778C4.80385 40.5355 3.54598 39.6276 4.01251 38.6281L11.6735 22.2146C11.8402 21.8575 11.7816 21.4358 11.5239 21.1377L0.491778 8.37602C-0.197629 7.57853 0.656604 6.39495 1.63066 6.79803L17.2178 13.2483C17.582 13.399 18.0007 13.3218 18.2871 13.0511L31.4516 0.609671Z" fill="#5E1EE5"/>
</svg>
