<svg width="45" height="44" viewBox="0 0 45 44" fill="none" xmlns="http://www.w3.org/2000/svg">
<path d="M21.5039 1.20875C21.6119 -0.00656187 23.3881 -0.00656569 23.4961 1.20874L24.4714 12.1837C24.5524 13.0949 25.7132 13.4281 26.265 12.6984L32.8625 3.97529C33.5973 3.00373 35.1014 3.94113 34.5529 5.0288L29.5364 14.9761C29.129 15.784 29.9184 16.6744 30.7692 16.3669L41.1012 12.6324C42.2433 12.2196 42.9953 13.8164 41.9496 14.4339L32.3429 20.1067C31.5713 20.5623 31.7423 21.7246 32.6123 21.9388L43.4014 24.5949C44.5795 24.885 44.321 26.6288 43.1093 26.5645L32.0773 25.9793C31.1793 25.9317 30.6797 27.0012 31.2925 27.6594L38.9031 35.8326C39.7319 36.7227 38.5535 38.0415 37.5761 37.3177L28.7801 30.8036C28.0484 30.2617 27.0322 30.9 27.2026 31.7944L29.2779 42.6828C29.5062 43.8808 27.799 44.3669 27.362 43.2283L23.4336 32.9926C23.1052 32.137 21.8948 32.137 21.5664 32.9926L17.638 43.2283C17.2011 44.3669 15.4938 43.8808 15.7221 42.6828L17.7974 31.7944C17.9678 30.9 16.9516 30.2617 16.2199 30.8036L7.42392 37.3177C6.44653 38.0415 5.2681 36.7227 6.09693 35.8326L13.7075 27.6594C14.3203 27.0012 13.8207 25.9317 12.9227 25.9793L1.89065 26.5645C0.67905 26.6288 0.420503 24.885 1.59863 24.5949L12.3877 21.9388C13.2577 21.7246 13.4287 20.5623 12.6571 20.1067L3.05039 14.4339C2.00469 13.8164 2.7567 12.2196 3.89879 12.6324L14.2308 16.3669C15.0816 16.6744 15.871 15.784 15.4636 14.9761L10.4471 5.0288C9.89856 3.94113 11.4027 3.00373 12.1375 3.9753L18.735 12.6984C19.2868 13.4281 20.4476 13.095 20.5286 12.1837L21.5039 1.20875Z" fill="#E3D6FE"/>
</svg>
