<svg width="54" height="58" viewBox="0 0 54 58" fill="none" xmlns="http://www.w3.org/2000/svg">
<path d="M26.0182 1.07868C26.227 -0.00157475 27.773 -0.00156903 27.9818 1.07869L32.1379 22.5767C32.2127 22.9638 32.508 23.2708 32.8919 23.3607L52.8374 28.0263C53.867 28.2671 53.867 29.7329 52.8374 29.9737L32.8919 34.6393C32.508 34.7292 32.2127 35.0362 32.1379 35.4233L27.9818 56.9213C27.773 58.0016 26.227 58.0016 26.0182 56.9213L21.8621 35.4233C21.7873 35.0362 21.492 34.7292 21.1081 34.6393L1.1626 29.9737C0.132964 29.7329 0.132969 28.2671 1.16261 28.0263L21.1081 23.3606C21.492 23.2708 21.7873 22.9638 21.8621 22.5767L26.0182 1.07868Z" fill="#AFE638"/>
</svg>
