<svg width="67" height="71" viewBox="0 0 67 71" fill="none" xmlns="http://www.w3.org/2000/svg">
<path d="M32.5062 0.889751C32.6387 -0.295448 34.3613 -0.295454 34.4938 0.889744L37.0384 23.6518C37.1277 24.4504 38.0749 24.8229 38.6842 24.299L55.244 10.0604C56.1386 9.29116 57.3941 10.4345 56.7117 11.397L43.5056 30.0242C43.071 30.6372 43.4424 31.4926 44.187 31.5935L65.6912 34.5091C66.8454 34.6656 66.8454 36.3344 65.6912 36.4909L44.187 39.4065C43.4424 39.5074 43.071 40.3628 43.5056 40.9758L56.7117 59.603C57.3941 60.5655 56.1386 61.7088 55.244 60.9396L38.6842 46.7011C38.0749 46.1771 37.1277 46.5496 37.0384 47.3482L34.4938 70.1103C34.3613 71.2955 32.6387 71.2955 32.5062 70.1103L29.9616 47.3482C29.8723 46.5496 28.9251 46.1771 28.3158 46.7011L11.756 60.9396C10.8614 61.7088 9.6059 60.5655 10.2883 59.603L23.4944 40.9758C23.929 40.3628 23.5576 39.5074 22.813 39.4065L1.30881 36.4909C0.154609 36.3344 0.154609 34.6656 1.30881 34.5091L22.813 31.5935C23.5576 31.4926 23.929 30.6372 23.4944 30.0242L10.2883 11.397C9.6059 10.4345 10.8614 9.29117 11.7561 10.0604L28.3158 24.299C28.9251 24.8229 29.8723 24.4504 29.9616 23.6518L32.5062 0.889751Z" fill="#AFE638"/>
</svg>
