<svg width="67" height="74" viewBox="0 0 67 74" fill="none" xmlns="http://www.w3.org/2000/svg">
<path d="M32.5175 1.19005C32.7229 0.104727 34.2771 0.104726 34.4825 1.19005L39.7803 29.1739C39.8536 29.561 40.1473 29.869 40.5305 29.9606L65.9282 36.0274C66.9518 36.2719 66.9518 37.7281 65.9282 37.9726L40.5305 44.0394C40.1473 44.131 39.8536 44.439 39.7803 44.8261L34.4825 72.81C34.2771 73.8953 32.7229 73.8953 32.5175 72.81L27.2197 44.8261C27.1464 44.439 26.8527 44.131 26.4695 44.0394L1.07179 37.9726C0.0482371 37.7281 0.0482405 36.2719 1.07179 36.0274L26.4695 29.9606C26.8527 29.869 27.1464 29.561 27.2197 29.1739L32.5175 1.19005Z" fill="#AFE638"/>
</svg>
