<svg width="240" height="240" viewBox="0 0 240 240" fill="none" xmlns="http://www.w3.org/2000/svg">
<path d="M120 223.6C177.217 223.6 223.6 177.217 223.6 120C223.6 62.7834 177.217 16.4001 120 16.4001C62.7836 16.4001 16.4004 62.7834 16.4004 120C16.4004 177.217 62.7836 223.6 120 223.6Z" fill="#9F8CC2"/>
<path d="M120 200.24C164.315 200.24 200.24 164.315 200.24 120C200.24 75.6846 164.315 39.76 120 39.76C75.6844 39.76 39.7598 75.6846 39.7598 120C39.7598 164.315 75.6844 200.24 120 200.24Z" fill="#FDFDFC"/>
<path d="M126.595 110.839L129.889 115.199C132.454 118.594 131.607 123.454 128.043 125.783L95.2002 147.204C91.9659 149.312 87.6563 148.558 85.3279 145.485C82.9995 142.412 83.4483 138.051 86.3608 135.52L115.91 109.747C119.11 106.936 124.021 107.444 126.595 110.839Z" fill="#9F8CC2"/>
<path d="M223.6 120C223.6 177.219 177.219 223.6 120 223.6V16.4001C177.219 16.4001 223.6 62.7813 223.6 120Z" fill="#4A4596" fill-opacity="0.25" style="mix-blend-mode:multiply"/>
</svg>
