<svg width="1823" height="302" viewBox="0 0 1823 302" fill="none" xmlns="http://www.w3.org/2000/svg">
<path d="M0.190218 62.0146L11.7426 66.0818L15.8098 54.5294L4.25737 50.4622L0.190218 62.0146ZM328.391 91.1299L329.056 89.7857L328.391 91.1299ZM1477.5 69.1022L1478.64 70.0713L1477.5 69.1022ZM1822.48 64.0157L1821.74 51.7904L1809.52 52.5281L1810.26 64.7533L1822.48 64.0157ZM8.64824 59.6247C62.3641 33.8828 174.541 16.6117 327.725 92.4741L329.056 89.7857C175.167 13.5742 62.0149 30.7234 7.35176 56.9193L8.64824 59.6247ZM327.725 92.4741C423.81 140.059 465.892 144.219 505.898 136.694C545.752 129.197 582.684 110.405 669.696 112.154L669.756 109.155C582.345 107.398 544.57 126.367 505.343 133.746C466.267 141.096 424.892 137.247 329.056 89.7857L327.725 92.4741ZM669.696 112.154C712.966 113.024 754.063 128.306 795.296 149.939C836.578 171.599 877.748 199.477 921.407 225.545C1008.59 277.603 1105.1 322.029 1228.74 292.282L1228.04 289.365C1105.58 318.827 1009.96 274.922 922.945 222.969C879.504 197.032 838.054 168.985 796.689 147.283C755.275 125.554 713.696 110.038 669.756 109.155L669.696 112.154ZM1228.74 292.282C1351.97 262.636 1399.46 225.066 1423.66 185.549C1435.71 165.869 1441.92 145.766 1448.88 126.307C1455.85 106.806 1463.58 87.8603 1478.64 70.0713L1476.35 68.1332C1460.93 86.3527 1453.05 105.726 1446.05 125.297C1439.04 144.911 1432.94 164.636 1421.1 183.983C1397.51 222.52 1350.92 259.802 1228.04 289.365L1228.74 292.282ZM1478.64 70.0713C1507.65 35.7957 1566.08 10.3614 1630.26 4.93211C1694.39 -0.493121 1763.88 14.0918 1815.01 59.3945L1816.99 57.1492C1765.09 11.1532 1694.7 -3.53009 1630 1.94279C1565.36 7.41163 1506.05 33.0418 1476.35 68.1332L1478.64 70.0713Z" fill="#5E1EE5"/>
</svg>
