<svg width="1823" height="302" viewBox="0 0 1823 302" fill="none" xmlns="http://www.w3.org/2000/svg">
<path d="M1822.81 61.6601L1811.26 65.7273L1807.19 54.1749L1818.74 50.1077L1822.81 61.6601ZM1494.61 90.7754L1493.94 89.4312L1494.61 90.7754ZM345.505 68.7477L344.36 69.7168L345.505 68.7477ZM0.518555 63.6612L1.2561 51.436L13.4813 52.1736L12.7438 64.3988L0.518555 63.6612ZM1814.35 59.2702C1760.64 33.5283 1648.46 16.2572 1495.27 92.1196L1493.94 89.4312C1647.83 13.2197 1760.99 30.3689 1815.65 56.5648L1814.35 59.2702ZM1495.27 92.1196C1399.19 139.704 1357.11 143.865 1317.1 136.339C1277.25 128.843 1240.32 110.051 1153.3 111.8L1153.24 108.8C1240.66 107.043 1278.43 126.012 1317.66 133.391C1356.73 140.742 1398.11 136.893 1493.94 89.4312L1495.27 92.1196ZM1153.3 111.8C1110.03 112.669 1068.94 127.952 1027.7 149.585C986.422 171.244 945.252 199.123 901.593 225.19C814.405 277.248 717.904 321.674 594.257 291.927L594.959 289.011C717.422 318.473 813.043 274.567 900.055 222.615C943.496 196.677 984.946 168.631 1026.31 146.928C1067.72 125.2 1109.3 109.684 1153.24 108.8L1153.3 111.8ZM594.257 291.927C471.029 262.281 423.536 224.711 399.343 185.195C387.295 165.514 381.076 145.412 374.12 125.953C367.15 106.451 359.416 87.5058 344.36 69.7168L346.65 67.7787C362.07 85.9982 369.949 105.371 376.945 124.943C383.956 144.557 390.058 164.281 401.902 183.628C425.495 222.165 472.076 259.448 594.959 289.011L594.257 291.927ZM344.36 69.7168C315.349 35.4412 256.918 10.0069 192.743 4.57762C128.615 -0.847613 59.1152 13.7373 7.99487 59.04L6.00513 56.7948C57.9078 10.7988 128.305 -3.88458 192.996 1.5883C257.639 7.05714 316.949 32.6873 346.65 67.7787L344.36 69.7168Z" fill="#5E1EE5"/>
</svg>
