<svg width="182" height="99" viewBox="0 0 182 99" fill="none" xmlns="http://www.w3.org/2000/svg">
<path d="M180.228 0.919702C179.542 0.343959 178.611 0.157689 177.756 0.411694L159.222 5.98285C157.816 6.40619 157.012 7.88788 157.435 9.29337C157.859 10.6989 159.349 11.5032 160.746 11.0799L170.559 8.13342L115.948 71.5413L71.6412 56.8006L1.4345 93.9021C0.139075 94.5879 -0.360467 96.1966 0.325344 97.5005C0.799485 98.4065 1.72237 98.9145 2.67912 98.9145C3.09399 98.9145 3.5258 98.8129 3.92374 98.6097L72.1238 62.575L117.658 77.7221L174.911 11.2407L173.827 20.8929C173.666 22.3492 174.716 23.67 176.172 23.8309C176.274 23.8393 176.376 23.8478 176.477 23.8478C177.815 23.8478 178.966 22.8403 179.119 21.4856L181.168 3.25654C181.269 2.36753 180.914 1.48698 180.228 0.919702Z" fill="#AECA3B"/>
</svg>
